<?xml version="1.0" encoding="utf-8"?>
<!-- Generator: Adobe Illustrator 23.1.0, SVG Export Plug-In . SVG Version: 6.00 Build 0)  -->
<svg version="1.1" id="Layer_1" xmlns="http://www.w3.org/2000/svg" xmlns:xlink="http://www.w3.org/1999/xlink" x="0px" y="0px"
	 viewBox="0 0 1602.6 798.2" style="enable-background:new 0 0 1602.6 798.2;" xml:space="preserve">
<style type="text/css">
	.st0{fill:#FFFFFF;}
	.st1{clip-path:url(#SVGID_2_);}
	.st2{fill-rule:evenodd;clip-rule:evenodd;fill:#FFFFFF;}
	.st3{fill:#31A576;}
</style>
<title>logo острова на синий фон</title>
<path class="st0" d="M560,687.1c-2.9-2.4-5-5.7-6-9.4c-0.9-3.1-1.4-6.4-1.5-9.6c-0.1-2.9,0.4-5.7,1.2-8.4c-0.6,0-2,1.2-4.2,3.7
	s-4.6,5.5-7.2,8.9s-5.1,6.8-7.7,10.1s-4.4,5.7-5.6,7.2c-1.7,1.9-3.7,3.6-5.8,5.1c-1.3,1-2.8,1.7-4.3,2.1c-2.7-0.2-5.3-0.7-7.8-1.6
	c-2.7-0.9-5.3-2.1-7.7-3.7c-2.4-1.5-4.5-3.4-6.3-5.6c-1.8-2.2-3-4.8-3.6-7.5c0-4.4,0.1-8,0.4-10.8c0.3-3.1,0.8-6.1,1.5-9.1
	c1.7-6.8,3.8-13.6,6.3-20.1c2.8-7.5,6-14.9,9.6-22.1c3.5-7.1,7.6-13.9,12.1-20.4c3.9-5.7,8.7-10.7,14.2-14.8c1.6,0,3.3,0.1,4.9,0.4
	c2,0.3,3.9,0.7,5.7,1.3c1.9,0.6,3.8,1.4,5.6,2.2c1.7,0.8,3.3,2,4.6,3.4c-1.4,1.6-5,6.8-10.7,15.7s-12.1,21.7-19.2,38.4
	c-1.1,2.4-2,5-2.8,7.5c-1.1,3.3-2.2,6.7-3.3,10.3s-2,7.1-2.7,10.5c-0.6,2.7-1,5.4-1.1,8.2c-0.1,1,0.1,1.9,0.6,2.8
	c0.3,0.5,0.6,1,1,1.4c2.3-0.9,5.3-3.5,9-7.7s8.6-10.7,15.1-19.4c1.6-2.2,3.4-4.7,5.5-7.5s4.3-5.8,6.5-9c2.2-3.2,4.3-6.5,6.3-9.9
	c1.9-3.3,3.5-6.7,4.8-10.3c0.6-1.9,1.5-4.1,2.5-6.7c1.1-2.8,2.4-5.5,3.8-8.1c1.6-2.9,3.3-5.8,5.2-8.5c2-2.9,4.3-5.6,6.9-8.1
	c2.2,0,4.4,0.3,6.6,0.7c2.3,0.5,4.5,1.1,6.7,1.8c1.9,0.6,3.7,1.4,5.5,2.4c1.3,0.7,2.5,1.6,3.5,2.7c-2.8,6.9-6,13.7-9.4,20.4
	c-3.5,6.7-6.7,13.3-9.7,19.8c-2.9,6.3-5.4,12.7-7.6,19.3c-2,6.1-3,12.4-3,18.8c-0.1,2.9,0.2,5.7,0.8,8.5c0.4,2.1,1,4.1,1.7,6.1
	c0.6,1.6,1.2,3,1.7,4.1c0.5,0.9,0.8,1.8,0.8,2.8c0,0.2-0.2,0.4-0.5,0.7c-0.1,0.1-0.3,0.2-0.5,0.2c-1.4-0.1-2.8-0.3-4.2-0.7
	c-2-0.5-3.9-1.2-5.7-2c-2.1-0.9-4.2-1.8-6.3-3C563.9,689.5,561.9,688.3,560,687.1z"/>
<path class="st0" d="M765.5,710.3c-0.3,0.1-0.6,0.2-0.9,0.2h-1.9c-2.6-0.1-5.1-0.4-7.6-1.1c-2.9-0.7-5.7-1.6-8.4-2.6
	c-2.4-0.9-4.8-2-7-3.4c-2-1.3-3.2-2.3-3.6-3.3c-0.1-2.2-0.2-4.5-0.2-6.8s0-4.6,0-6.8c0.1-18.4,1.5-36.7,4.1-54.8
	c3-20.9,7.4-41.5,13-61.8c0.6-2.2,1.3-5,2-8.3c0.7-3.3,1.5-7,2.3-10.9c-3.7,3-8.2,7.7-13.4,14.1c-5.2,6.5-10.7,14.1-16.4,22.9
	c-5.7,8.8-11.5,18.5-17.2,29c-5.7,10.5-11,21.2-15.7,32.1c-4.6,10.5-8.7,21.3-12.2,32.2c-3.2,9.6-5.3,19.5-6.3,29.5
	c-7.5-2.2-12.7-4.4-15.6-6.6s-4.3-4.9-4.3-8c0-2.8,0.9-6.8,2.6-12c1.7-5.2,4.2-11.2,7.3-18.3c3.1-7,7-14.9,11.6-23.5
	c4.6-8.7,9.6-18,15.1-28c6.3-11.4,12.5-22.1,18.5-32c6.1-10,12-19,17.8-27.1c5.2-7.4,11-14.4,17.1-21c4.8-5.3,10.4-9.9,16.6-13.5
	c3,0.2,5.9,0.7,8.8,1.7c3.7,1.1,7.3,2.4,10.8,4c3.2,1.4,6.3,3,9.4,4.8c2.7,1.7,4.3,3,4.5,4.1c-3,6.4-5.6,13-7.8,19.7
	c-3,8.7-6,18.7-9.1,29.7c-3.1,11.1-6,22.8-8.8,35.3c-2.8,12.4-5,24.3-6.6,35.7c3.6-8.6,7.8-17.5,12.6-26.8
	c4.8-9.3,9.9-18.5,15.2-27.6s10.8-18,16.4-26.5c5.6-8.6,11-16.4,16.3-23.5c5.3-7.1,10.3-13.3,15-18.6c3.6-4.4,7.8-8.3,12.3-11.7
	c3,0.2,5.9,0.7,8.8,1.7c3.7,1.1,7.3,2.4,10.8,4c3.2,1.4,6.3,3,9.4,4.8c2.7,1.7,4.2,3,4.6,4.1c-5,8.9-9.5,19.7-13.3,32.5
	c-3.9,13.3-7.1,26.7-9.6,40.3c-2.6,14-4.6,28-6,41.8c-1.4,13.8-2.1,26.2-2.1,37.2c0,3.6,0,7.4,0,11.3c0,3.9,0.1,8,0.4,12.2
	c-2.6-0.1-5.3-0.3-7.9-0.8c-3-0.6-6-1.3-8.9-2.3c-2.7-0.9-5.3-1.9-7.8-3.2c-1.9-0.9-3.6-2.2-4.9-3.9c-0.2-2.2-0.2-4.5-0.2-6.8
	s0-4.6,0-6.8c0.1-18.4,1.5-36.7,4.1-54.8c3-20.9,7.4-41.5,13-61.8c0.6-2.2,1.3-5.2,2.2-8.9s1.6-7.7,2.4-11.7
	c-4.4,2.2-9.4,6.3-14.9,12.5c-6.2,7-11.9,14.5-17,22.5c-5.7,8.8-11.4,18.6-17,29.4c-5.6,10.8-10.6,21.7-15.1,32.9
	c-4.4,10.9-8.2,22-11.4,33.3C768.2,689.9,766.3,700,765.5,710.3z"/>
<path class="st0" d="M945.9,704.9c-3-2.5-5.1-5.9-6.1-9.6c-0.9-3.2-1.5-6.5-1.6-9.8c-0.1-2.9,0.3-5.8,1.2-8.7
	c-0.7,0-2.1,1.3-4.3,3.8c-2.2,2.6-4.7,5.6-7.3,9.1c-2.7,3.5-5.3,7-7.8,10.3c-2.5,3.4-4.5,5.9-5.8,7.5c-1.8,2-3.7,3.7-5.9,5.3
	c-1.3,1-2.8,1.8-4.4,2.2c-2.7-0.2-5.4-0.7-8-1.6c-2.8-0.9-5.5-2.1-7.9-3.7c-2.5-1.6-4.6-3.5-6.5-5.8c-1.8-2.2-3.1-4.9-3.7-7.7
	c0-4.5,0.1-8.2,0.4-11.1c0.3-3.2,0.8-6.3,1.6-9.4c1.7-7,3.9-13.9,6.4-20.7c2.8-7.7,6.1-15.3,9.7-22.7c3.6-7.3,7.7-14.3,12.4-20.9
	c4-5.9,8.9-11,14.6-15.3c1.7,0,3.3,0.1,5,0.4c2,0.3,4,0.7,5.9,1.3c2,0.6,3.9,1.4,5.8,2.3c1.8,0.8,3.4,2,4.7,3.5
	c-1.4,1.6-5.1,7-10.9,16.1c-5.9,9.1-12.4,22.3-19.6,39.4c-0.8,1.8-1.8,4.3-2.9,7.7c-1.1,3.4-2.2,6.9-3.4,10.6
	c-1.1,3.7-2,7.3-2.8,10.8c-0.6,2.8-1,5.6-1.1,8.4c-0.1,1,0.1,2,0.6,2.9c0.3,0.5,0.7,1,1.1,1.4c2.4-1,5.4-3.6,9.1-7.9
	c3.7-4.3,8.8-11,15.4-20c1.6-2.2,3.5-4.8,5.7-7.7c2.2-2.9,4.4-6,6.6-9.3c2.2-3.3,4.4-6.7,6.4-10.2c1.9-3.4,3.6-6.9,4.9-10.6
	c0.6-1.9,1.5-4.2,2.5-6.8c1.1-2.8,2.4-5.6,3.8-8.3c1.6-3,3.4-5.9,5.3-8.8c2-3,4.4-5.8,7.1-8.3c2.3,0,4.5,0.3,6.7,0.7
	c2.3,0.5,4.6,1.1,6.8,1.8c2,0.6,3.8,1.4,5.7,2.4c1.4,0.7,2.6,1.6,3.6,2.8c-2.9,7-6.1,14-9.6,20.9c-3.5,6.9-6.8,13.7-9.9,20.3
	c-3,6.5-5.5,13.1-7.7,19.8c-2,6.2-3.1,12.7-3.1,19.2c0,2.9,0.2,5.9,0.8,8.8c0.4,2.1,1.1,4.2,1.8,6.3c0.6,1.7,1.2,3.1,1.8,4.2
	c0.5,0.9,0.8,1.9,0.8,2.9c0,0.2-0.2,0.4-0.5,0.7c-0.1,0.1-0.3,0.2-0.5,0.2c-1.5-0.1-2.9-0.3-4.3-0.7c-2-0.6-4-1.2-5.9-2
	c-2.2-0.9-4.3-1.9-6.5-3C949.9,707.5,947.8,706.3,945.9,704.9z"/>
<path class="st0" d="M981.7,789.8c-2.3-0.6-3.5-3-3.8-7.2c-0.7-2.4-1.1-4.9-1.3-7.4c-0.2-2.9-0.4-6.2-0.4-9.9
	c0.1-4.6,0.7-9.3,1.7-13.8c1.1-5.8,2.7-12.5,4.7-19.8s4.4-15.4,7.3-23.9c2.9-8.6,6.1-17.3,9.6-26.1c4.3-11,8.1-20.6,11.3-28.7
	c3.2-8.1,5.9-15.1,8-21c2.2-5.9,3.9-10.8,5.3-14.7c1.4-3.8,2.4-7.1,3.2-9.9c0.8-2.4,1.8-4.7,2.9-7c1.3-2.8,2.8-5.6,4.4-8.3
	c1.7-2.8,3.4-5.4,5.2-7.9c1.4-2.1,3-3.9,4.8-5.7c5.5,0.8,10.8,2.2,15.9,4.3c5,2.1,8,4.1,9.1,6c-2.9,2.9-5.5,6.2-7.7,9.7
	c-2.9,4.4-5.7,9.2-8.4,14.4s-5.2,10.5-7.4,16c-2,4.7-3.6,9.5-5,14.4c1.9-3.1,4-6.1,6.3-8.9c2.6-3.2,6.5-7.6,11.8-13.2
	c5-5.3,10.6-10,16.7-14.1c5.2-3.3,9.7-4.9,13.6-4.9c6.1,0,11.1,1.7,15,5c3.9,3.2,6,8,5.9,13c0,11.7-2,23.2-5.8,34.3
	c-3.7,11.1-9.3,21.5-16.6,30.7c-2.9,3.7-6.1,7.1-9.6,10.1c-3.6,3.2-7.5,6-11.5,8.5c-3.7,2.3-7.7,4.3-11.8,5.9
	c-3.3,1.3-6.8,2.1-10.3,2.2c-2.6,0.1-5.2-0.6-7.6-1.8c-1.9-1-3.5-2.5-4.4-4.5c6.8-4.2,13-9.4,18.3-15.4c6.2-7,11.8-14.6,16.5-22.7
	c5.2-8.9,9.6-18.2,13.2-27.8c3.7-9.8,6.6-20,8.5-30.3c-5.8,3-11.3,6.5-16.5,10.5c-5.4,4.3-10.3,9.3-14.6,14.8
	c-5.8,7.1-10.3,12.7-13.7,17.1c-3.4,4.3-6.1,8-8.3,11.1c-2,2.7-3.7,5.6-5.3,8.5c-1.3,2.7-2.8,5.9-4.4,9.7
	c-2.2,5.1-4.8,11.9-7.8,20.3s-6,17.8-9.1,28.3c-3.1,10.4-6.2,21.5-9.4,33.3s-6.1,23.5-9,35.2c-1.8-0.3-3.3-1.6-4.6-3.8
	c-1.3-1.4-2.2-2.5-2.8-3.1C983.2,790.6,982.5,790.1,981.7,789.8z"/>
<path class="st0" d="M316.6,319.3c-0.8,0.5-1.7,0.8-2.6,0.8c-1.5-0.1-2.9-0.7-3.9-1.7c-1.4-1.2-2.7-2.5-3.9-4
	c-1.2-1.5-2.5-2.8-3.9-4c-1.2-1.1-2.7-1.7-4.3-1.7c-1.5,0.1-2.9,0.7-4,1.7c-1.4,1.2-2.8,2.5-4,3.9c-1.2,1.4-2.5,2.7-4,3.9
	c-1.1,1-2.4,1.7-3.9,1.8c-1.6,0-3.1-0.6-4.3-1.7c-1.4-1.2-2.8-2.5-3.9-4c-1.2-1.4-2.5-2.8-3.9-4c-1.1-1-2.5-1.6-3.9-1.7
	c-1.4,0.1-2.8,0.7-3.8,1.7c-1.3,1.1-2.5,2.3-3.8,3.5s-2.6,2.5-4,3.8c-1.1,1.1-2.5,1.9-4,2.2v-7.8c1.4-0.4,2.7-1.1,3.8-2.1
	c1.3-1.2,2.6-2.4,3.7-3.7c1.2-1.3,2.6-2.6,4-3.7c2.1-2.2,5.5-2.2,7.7-0.1c0.1,0,0.1,0.1,0.1,0.1c1.4,1.2,2.7,2.5,3.9,4
	c1.2,1.5,2.5,2.8,3.9,4c1.2,1.1,2.7,1.7,4.3,1.7c1.5-0.1,2.9-0.7,3.9-1.7c1.5-1.2,2.8-2.5,4-3.9c1.2-1.4,2.5-2.7,4-3.9
	c1.1-1,2.5-1.6,4-1.7c1.6,0,3.1,0.6,4.3,1.7c1.4,1.2,2.8,2.5,3.9,4c1.2,1.4,2.5,2.8,3.9,3.9c1.1,1,2.5,1.6,3.9,1.7
	c0.9,0,1.9-0.2,2.6-0.7v4.1L316.6,319.3z M251,303.7c0-1.3,0-2.6,0-4c0-1.3,0.1-2.6,0.4-3.9c1.5-0.4,2.8-1.1,3.8-2.2
	c1.3-1.2,2.5-2.5,3.6-3.7c1.1-1.2,2.3-2.3,3.6-3.4c1.1-0.9,2.4-1.4,3.8-1.5c1.5,0.1,2.9,0.7,3.9,1.7c1.4,1.2,2.7,2.5,3.9,4
	c1.2,1.5,2.5,2.8,3.9,4c1.2,1.1,2.7,1.7,4.3,1.7c1.5-0.1,2.9-0.7,4-1.7c1.4-1.2,2.8-2.5,4-3.9c1.2-1.4,2.5-2.7,4-3.9
	c1.1-1,2.5-1.6,4-1.7c1.6,0,3.1,0.6,4.3,1.7c1.4,1.2,2.7,2.5,3.9,4c1.2,1.5,2.5,2.8,3.9,4c1.1,1,2.5,1.6,3.9,1.7
	c1.3,0,2.5-0.5,3.4-1.5c0,1.3-0.1,2.6-0.2,3.9s-0.2,2.7-0.2,3.9c-0.9,0.6-1.9,1-3,1.1c-1.5-0.1-2.9-0.7-3.9-1.7
	c-1.4-1.2-2.7-2.5-3.9-4c-1.2-1.5-2.5-2.8-3.9-4c-1.2-1.1-2.7-1.7-4.3-1.7c-1.5,0.1-2.9,0.7-4,1.7c-1.4,1.2-2.8,2.5-4,3.9
	c-1.2,1.4-2.5,2.8-4,3.9c-1.1,1-2.5,1.6-3.9,1.7c-1.6,0-3.1-0.6-4.3-1.7c-1.4-1.2-2.7-2.5-3.9-4c-1.2-1.4-2.5-2.8-3.9-4
	c-1.1-1-2.5-1.6-3.9-1.7c-1.4,0-2.7,0.6-3.8,1.5c-1.3,1.1-2.6,2.3-3.8,3.5c-1.3,1.4-2.5,2.7-3.8,3.9
	C253.8,302.5,252.5,303.3,251,303.7z M251.3,335.2c-0.2-1.2-0.4-2.4-0.4-3.6c0-1.1,0-2.3,0-3.6c1.4-0.4,2.7-1.1,3.8-2.2
	c1.3-1.3,2.5-2.6,3.8-3.9c1.2-1.3,2.4-2.5,3.8-3.5c1-0.9,2.4-1.4,3.8-1.5c1.5,0.1,2.9,0.7,3.9,1.7c1.4,1.2,2.7,2.5,3.9,4
	c1.2,1.5,2.5,2.8,3.9,4c1.2,1.1,2.7,1.7,4.3,1.7c1.5-0.1,2.9-0.7,4-1.7c1.4-1.2,2.8-2.5,4-3.9c1.2-1.4,2.5-2.8,4-3.9
	c1.1-1,2.5-1.6,4-1.7c1.6,0,3.1,0.6,4.3,1.7c1.4,1.2,2.7,2.5,3.9,4c1.2,1.5,2.5,2.8,3.9,4c1.1,1,2.5,1.6,3.9,1.7c1-0.1,2-0.4,3-0.7
	c0,1.3,0,2.4,0,3.6c0,1.2,0.1,2.4,0.4,3.6c-1,0.7-2.2,1.1-3.4,1.1c-1.5-0.1-2.9-0.7-3.9-1.7c-1.4-1.2-2.7-2.5-3.9-4
	c-1.2-1.4-2.5-2.8-3.9-4c-1.2-1.1-2.7-1.7-4.3-1.7c-1.5,0.1-2.9,0.7-3.9,1.7c-1.4,1.2-2.8,2.5-4,3.9c-1.2,1.4-2.5,2.8-4,3.9
	c-1.1,1-2.5,1.6-3.9,1.7c-1.6,0-3.1-0.6-4.3-1.7c-1.4-1.2-2.8-2.5-3.9-4c-1.2-1.4-2.5-2.8-3.9-4c-1.1-1-2.5-1.6-3.9-1.7
	c-1.4,0-2.7,0.6-3.8,1.5c-1.3,1-2.5,2.1-3.6,3.4c-1.1,1.3-2.3,2.5-3.6,3.7C254,334,252.7,334.8,251.3,335.2z M251.6,343.4
	c2.8-1.5,5.3-3.7,7.2-6.4c2.3-3,4.6-4.5,7.1-4.5c1.5,0.1,2.9,0.7,3.9,1.7c1.4,1.2,2.7,2.5,3.9,4c1.2,1.5,2.5,2.8,3.9,4
	c1.2,1.1,2.7,1.7,4.3,1.7c1.5-0.1,2.9-0.7,4-1.7c1.5-1.2,2.8-2.5,4-3.9c1.2-1.4,2.5-2.7,4-3.9c1.1-1,2.5-1.6,3.9-1.7
	c1.6,0,3.1,0.6,4.3,1.7c1.4,1.2,2.7,2.5,3.9,4c1.2,1.5,2.5,2.8,3.9,4c1.1,1,2.5,1.6,3.9,1.7c1,0,2.4-0.6,4.1-1.8l1,6.7
	c-2,2-3.8,3-5.3,3c-1.5-0.1-2.9-0.7-3.9-1.7c-1.4-1.2-2.7-2.5-3.9-4c-1.2-1.5-2.5-2.8-3.9-4c-1.2-1.1-2.7-1.7-4.3-1.7
	c-1.5,0.1-2.9,0.7-3.9,1.7c-1.5,1.2-2.8,2.5-4,3.9c-1.2,1.4-2.5,2.7-4,3.9c-1.1,1-2.5,1.6-4,1.7c-1.6,0-3.1-0.6-4.3-1.7
	c-1.4-1.2-2.8-2.5-3.9-4c-1.2-1.4-2.5-2.8-3.9-4c-1.1-1-2.5-1.6-3.9-1.7c-2,0-4.1,1.4-6.4,4.1c-1.9,2.4-4.2,4.4-6.8,6L251.6,343.4z
	 M253.3,278.9c2.3-1.8,4.5-3.9,6.4-6.2c2.3-2.6,4.4-3.9,6.4-3.9c1.5,0.1,2.9,0.7,3.9,1.7c1.4,1.2,2.7,2.5,3.9,3.9
	c1.2,1.5,2.5,2.8,3.9,4c1.2,1.1,2.7,1.7,4.3,1.7c1.5-0.1,2.9-0.7,3.9-1.7c1.5-1.2,2.8-2.5,4-3.9c1.2-1.4,2.5-2.7,4-3.9
	c1.1-1,2.5-1.6,4-1.7c1.6,0,3.1,0.6,4.3,1.7c1.4,1.2,2.8,2.5,3.9,4c1.2,1.4,2.5,2.8,3.9,3.9c1.1,1,2.5,1.6,3.9,1.7
	c1.3,0,2.6-0.5,3.6-1.3c1.3-1,2.5-2,3.6-3.2c-1.3,3.2-2.1,6.6-2.4,10c-2,1.5-3.6,2.2-4.9,2.2c-1.5-0.1-2.9-0.7-3.9-1.7
	c-1.4-1.2-2.8-2.5-3.9-4c-1.2-1.5-2.5-2.8-3.9-4c-1.2-1.1-2.7-1.7-4.3-1.7c-1.5,0.1-2.9,0.7-4,1.7c-1.4,1.2-2.8,2.5-4,3.9
	c-1.2,1.4-2.5,2.8-4,3.9c-1.1,1-2.5,1.6-4,1.7c-1.6,0-3.1-0.6-4.3-1.7c-1.4-1.2-2.8-2.5-3.9-4c-1.2-1.4-2.5-2.8-3.9-4
	c-1.1-1-2.5-1.6-3.9-1.7c-2.3,0-4.6,1.5-7,4.5c-1.9,2.6-4.3,4.7-7,6.3L253.3,278.9z M253.8,358.1c2.2-1.7,4.2-3.7,6-5.8
	c2-2.4,4-3.5,6-3.5c1.5,0.1,2.9,0.7,3.9,1.7c1.4,1.2,2.7,2.5,3.9,4c1.2,1.5,2.5,2.8,3.9,4c1.2,1.1,2.7,1.7,4.3,1.7
	c1.5-0.1,2.9-0.7,4-1.7c1.5-1.2,2.8-2.5,4-3.9c1.2-1.4,2.5-2.7,4-3.9c1.1-1,2.5-1.6,4-1.7c1.6,0,3.1,0.6,4.3,1.7
	c1.4,1.2,2.7,2.6,3.9,4c1.2,1.5,2.5,2.8,3.9,4c1.1,1,2.5,1.6,3.9,1.7c1.3,0,2.6-0.5,3.6-1.3c1.3-1,2.5-2,3.6-3.2
	c0.5,1.9,1.1,3.8,1.8,5.6c-1.5,1.5-3,2.9-4.5,4.3c-1.2,1.2-2.8,1.9-4.5,2c-1.5-0.1-2.9-0.7-3.9-1.7c-1.4-1.2-2.7-2.5-3.9-4
	c-1.2-1.5-2.5-2.8-3.9-4c-1.2-1.1-2.7-1.7-4.3-1.7c-1.5,0.1-2.9,0.7-4,1.7c-1.4,1.2-2.8,2.5-3.9,3.9c-1.2,1.4-2.5,2.8-4,3.9
	c-1.1,1-2.5,1.6-3.9,1.7c-1.6,0-3.1-0.6-4.3-1.7c-1.4-1.2-2.7-2.5-3.9-4c-1.2-1.4-2.5-2.8-3.9-4c-1.1-1-2.5-1.6-3.9-1.7
	c-2.1,0.1-4.1,1.1-5.5,2.8c-1.7,1.9-3.5,3.7-5.5,5.4L253.8,358.1z M254.9,269.2c0.5-1.8,1-3.4,1.3-5.1c0.3-1.6,0.8-3.2,1.3-4.7
	l4.3-4.3c1.1-1.2,2.7-1.9,4.3-2c1.5,0.1,2.9,0.7,3.9,1.7c1.4,1.2,2.7,2.5,3.9,4c1.2,1.5,2.5,2.8,3.9,4c1.2,1.1,2.7,1.7,4.3,1.7
	c1.5-0.1,2.9-0.7,3.9-1.7c1.4-1.2,2.8-2.5,4-3.9c1.2-1.4,2.5-2.7,4-3.9c1.1-1,2.5-1.6,4-1.7c1.6,0,3.1,0.6,4.3,1.7
	c1.4,1.2,2.8,2.5,3.9,4c1.2,1.5,2.5,2.8,3.9,4c2.1,2.2,5.5,2.3,7.7,0.2c0.1-0.1,0.1-0.1,0.2-0.2c1.5-1.2,2.9-2.5,4.1-3.9
	c1.3-1.4,2.7-2.7,4.2-3.9c1.1-1,2.5-1.6,3.9-1.7c0.3,0,0.5,0.1,0.8,0.2c0.4,0.2,0.7,0.2,1.1,0.2c-2.1,2.7-4,5.6-5.7,8.6
	c-2.2,1.9-4.3,4-6.2,6.2c-2.1,2.4-4.2,3.5-6.2,3.5c-1.5-0.1-2.9-0.7-3.9-1.7c-1.4-1.2-2.8-2.5-3.9-4c-1.2-1.4-2.5-2.8-3.9-4
	c-1.2-1.1-2.7-1.7-4.3-1.7c-1.5,0.1-2.9,0.7-4,1.7c-1.4,1.2-2.8,2.5-4,3.9c-1.2,1.4-2.5,2.8-4,3.9c-1.1,1-2.5,1.6-3.9,1.7
	c-1.6,0-3.1-0.6-4.3-1.7c-1.4-1.2-2.7-2.5-3.9-4c-1.2-1.4-2.5-2.8-3.9-4c-1.1-1-2.5-1.6-3.9-1.7c-2,0-3.9,1-5.6,3
	C258.8,265.6,256.9,267.4,254.9,269.2L254.9,269.2z M256.8,370.9c1.5-1.5,3-2.9,4.5-4.3c1.2-1.2,2.8-1.9,4.5-2
	c1.5,0.1,2.9,0.7,3.9,1.7c1.4,1.2,2.7,2.5,3.9,4c1.2,1.5,2.5,2.8,3.9,4c1.2,1.1,2.7,1.7,4.3,1.7c1.5-0.1,2.9-0.7,4-1.7
	c1.4-1.2,2.8-2.5,4-3.9c1.2-1.4,2.5-2.7,3.9-3.9c1.1-1,2.5-1.6,4-1.7c1.6,0,3.1,0.6,4.3,1.7c1.4,1.2,2.7,2.5,3.9,4
	c1.2,1.5,2.5,2.8,3.9,4c1.1,1,2.5,1.6,3.9,1.7c2,0,3.9-1,5.6-3.2c1.7-2.1,3.6-4.1,5.7-6l3.3,6c-1.4,0.6-2.7,1.4-3.8,2.4
	c-1.3,1.1-2.5,2.3-3.8,3.5c-1.2,1.2-2.4,2.3-3.8,3.4c-0.9,0.9-2.1,1.4-3.4,1.5c-1.5-0.1-2.9-0.7-3.9-1.7c-1.4-1.2-2.7-2.5-3.9-4
	c-1.2-1.4-2.5-2.8-3.9-4c-1.2-1.1-2.7-1.7-4.3-1.7c-1.5,0.1-2.9,0.7-4,1.7c-1.5,1.2-2.8,2.5-4,3.9c-1.2,1.4-2.5,2.7-3.9,3.9
	c-1.1,1-2.5,1.6-4,1.7c-1.6,0-3.1-0.7-4.3-1.7c-1.4-1.2-2.7-2.5-3.9-4c-1.2-1.5-2.5-2.8-3.9-4c-1.1-1-2.5-1.6-3.9-1.7
	c-1.3,0-2.6,0.6-3.6,1.5c-1.1,1-2.3,2.1-3.6,3.4L256.8,370.9z M260.5,383.3c2.3-1.7,4-2.6,5.3-2.6c1.5,0.1,2.9,0.7,3.9,1.7
	c1.4,1.2,2.7,2.5,3.9,3.9c1.2,1.4,2.5,2.8,3.9,4c1.2,1.1,2.7,1.7,4.3,1.7c1.5-0.1,2.9-0.7,4-1.7c1.4-1.2,2.8-2.5,4-3.9
	c1.2-1.4,2.5-2.7,4-3.9c1.1-1,2.5-1.6,4-1.7c1.6,0,3.1,0.6,4.3,1.7c1.4,1.2,2.7,2.5,3.9,4c1.2,1.4,2.5,2.8,3.9,3.9
	c2.1,2.2,5.5,2.3,7.7,0.2c0.1-0.1,0.1-0.1,0.2-0.2c1.5-1.2,2.9-2.5,4.1-3.9c1.3-1.4,2.7-2.7,4.1-3.9c2.1-2.2,5.5-2.3,7.7-0.2
	c0.1,0.1,0.1,0.1,0.2,0.2c1.4,1.2,2.8,2.5,3.9,4c1.2,1.5,2.5,2.8,3.9,4c1.2,1.1,2.7,1.7,4.3,1.7c1,0,2.6-0.9,4.9-2.6
	c1.9,0.8,3.9,1.2,6,1.1c-2,1.7-3.8,3.7-5.5,5.8c-1.7,2.1-3.5,3.2-5.5,3.2c-1.6,0-3.1-0.6-4.3-1.7c-1.4-1.2-2.8-2.5-3.9-4
	c-1.2-1.4-2.5-2.8-3.9-4c-2.1-2.2-5.5-2.3-7.7-0.2c-0.1,0.1-0.1,0.1-0.2,0.2c-1.5,1.2-2.9,2.5-4.1,3.9c-1.3,1.4-2.7,2.7-4.1,3.9
	c-1.1,1-2.5,1.6-4,1.7c-1.5-0.1-2.9-0.7-3.9-1.7c-1.4-1.2-2.8-2.5-3.9-4c-1.2-1.4-2.5-2.8-3.9-3.9c-1.2-1.1-2.7-1.7-4.3-1.7
	c-1.5,0.1-2.9,0.7-4,1.7c-1.5,1.2-2.8,2.5-4,3.9c-1.2,1.4-2.5,2.7-3.9,3.9c-1.1,1-2.5,1.6-4,1.7c-1.6,0-3.1-0.6-4.3-1.7
	c-1.4-1.2-2.7-2.5-3.9-4c-1.2-1.4-2.5-2.8-3.9-3.9c-1.1-1-2.5-1.6-3.9-1.7c-1.1,0-2.1,0.4-3,1.1L260.5,383.3z M261.3,247.5
	c0.5-1.9,1.1-3.7,1.9-5.4c0.8-1.6,1.5-3.3,2.3-5h0.8c1.5,0.1,2.9,0.7,3.9,1.7c1.4,1.2,2.7,2.5,3.9,4c1.2,1.4,2.5,2.7,3.9,3.9
	c1.2,1.1,2.7,1.7,4.3,1.7c1.5-0.1,2.9-0.7,3.9-1.7c1.5-1.2,2.8-2.5,4-3.9c1.2-1.4,2.5-2.7,4-3.9c1.1-1,2.5-1.6,4-1.7
	c1.6,0,3.1,0.6,4.3,1.7c1.4,1.2,2.8,2.5,3.9,4c1.2,1.4,2.5,2.8,3.9,3.9c1.1,1,2.5,1.6,3.9,1.7c1.5-0.1,2.9-0.7,4-1.7
	c1.5-1.2,2.8-2.5,4.1-3.9c1.3-1.4,2.7-2.7,4.1-3.9c1.1-1,2.5-1.6,4-1.7c2,0,3.8,1.1,5.4,3.2c1.6,2.1,3.4,4.1,5.4,5.8
	c-1.6,0.9-3.1,1.9-4.5,3c-1.3-1.2-2.3-2.3-3.2-3c-0.9-0.8-2-1.2-3.2-1.1c-1.5,0.1-2.9,0.7-3.9,1.7c-1.5,1.2-2.9,2.5-4.1,3.9
	c-1.3,1.4-2.7,2.7-4.1,3.9c-2.1,2.2-5.5,2.3-7.7,0.2c-0.1-0.1-0.1-0.1-0.2-0.2c-1.4-1.2-2.8-2.5-3.9-4c-1.2-1.5-2.5-2.8-3.9-4
	c-1.2-1.1-2.7-1.8-4.3-1.8c-1.5,0.1-2.9,0.7-4,1.7c-1.5,1.2-2.8,2.5-4,3.9c-1.2,1.4-2.5,2.7-4,3.9c-1.1,1-2.5,1.6-3.9,1.7
	c-1.6,0-3.1-0.6-4.3-1.7c-1.4-1.2-2.7-2.5-3.9-4c-1.2-1.5-2.5-2.8-3.9-4c-1.1-1-2.5-1.6-3.9-1.7
	C264.7,244.8,263.1,245.7,261.3,247.5L261.3,247.5z M275.8,412.6c-1.7-2.5-3.4-5.1-5-7.7c-1.6-2.6-3.1-5.5-4.6-8.5
	c1.4,0.3,2.7,1.1,3.8,2.1c1.2,1.1,2.5,2.4,3.9,3.8c1.4,1.4,2.7,2.6,3.9,3.8c1.1,1.1,2.6,1.7,4.1,1.7c1.5-0.1,2.9-0.7,4-1.7
	c1.4-1.2,2.8-2.5,3.9-3.9c1.2-1.4,2.5-2.7,4-3.9c1.1-1,2.5-1.6,4-1.7c1.6,0,3.1,0.6,4.3,1.7c1.4,1.2,2.8,2.5,3.9,4
	c1.2,1.4,2.5,2.8,3.9,3.9c2,2.2,5.5,2.3,7.6,0.2c0.1-0.1,0.2-0.2,0.2-0.2c1.5-1.2,2.9-2.5,4.2-3.9c1.3-1.4,2.7-2.7,4.1-3.9
	c2.1-2.2,5.5-2.3,7.7-0.2c0.1,0.1,0.1,0.1,0.2,0.2c1.4,1.2,2.8,2.5,3.9,4c1.2,1.5,2.5,2.8,3.9,4c1.2,1.1,2.7,1.7,4.3,1.7
	c1.5-0.1,2.9-0.7,4-1.7c1.5-1.2,2.8-2.5,4-3.9c1.2-1.4,2.5-2.8,4-3.9c1.1-1,2.5-1.6,3.9-1.7c1.6,0,3.1,0.6,4.3,1.7
	c1.4,1.2,2.7,2.5,3.9,4c1.2,1.5,2.5,2.8,3.9,4c2.1,2.2,5.5,2.3,7.7,0.2c0.1-0.1,0.1-0.1,0.2-0.2c1.5-1.2,2.9-2.5,4.1-3.9
	c1.3-1.4,2.7-2.7,4.1-3.9c2.1-2.2,5.5-2.3,7.7-0.2c0.1,0.1,0.1,0.1,0.2,0.2c1.4,1.2,2.7,2.5,3.9,3.9c1.2,1.5,2.5,2.8,3.9,4
	c1.2,1.1,2.7,1.7,4.3,1.7c1.5-0.1,2.9-0.7,3.9-1.7c1.5-1.2,2.8-2.5,4-3.9c1.2-1.4,2.5-2.7,4-3.9c1.1-1,2.5-1.6,4-1.7
	c1.6,0,3.1,0.6,4.3,1.7c1.4,1.2,2.7,2.5,3.9,3.9c1.2,1.5,2.5,2.8,3.9,4c2.1,2.2,5.5,2.3,7.7,0.2c0.1-0.1,0.1-0.1,0.2-0.2
	c1.5-1.2,2.9-2.5,4.2-3.9c1.3-1.4,2.7-2.7,4.1-3.9c1.1-1,2.5-1.6,3.9-1.7c1.2,0,2.3,0.4,3.2,1.1c0.9,0.8,1.9,1.8,3.2,3
	c-0.5,0.9-1,1.8-1.5,2.6c-0.6,0.8-1.1,1.7-1.5,2.6c-0.9-1-2.2-1.6-3.6-1.6c-1.5,0.1-2.9,0.7-3.9,1.7c-1.5,1.2-2.9,2.5-4.2,3.9
	c-1.3,1.4-2.7,2.7-4.1,3.9c-2.1,2.2-5.5,2.3-7.7,0.2c-0.1-0.1-0.1-0.1-0.2-0.2c-1.4-1.2-2.8-2.5-3.9-4c-1.2-1.5-2.5-2.8-3.9-4
	c-1.2-1.1-2.7-1.7-4.3-1.7c-1.5,0.1-2.9,0.7-4,1.7c-1.4,1.2-2.8,2.5-4,3.9c-1.2,1.4-2.5,2.8-4,3.9c-1.1,1-2.5,1.6-3.9,1.7
	c-1.6,0-3.1-0.6-4.3-1.7c-1.4-1.2-2.7-2.5-3.9-4c-1.2-1.4-2.5-2.8-3.9-4c-1.1-1-2.5-1.6-3.9-1.7c-1.5,0.1-2.9,0.7-4,1.7
	c-1.5,1.2-2.9,2.5-4.1,3.9c-1.3,1.4-2.7,2.7-4.1,3.9c-2.1,2.2-5.5,2.3-7.7,0.2c-0.1-0.1-0.1-0.1-0.2-0.2c-1.4-1.2-2.7-2.5-3.9-3.9
	c-1.2-1.4-2.5-2.8-3.9-4c-1.2-1.1-2.7-1.7-4.3-1.7c-1.5,0.1-2.9,0.7-3.9,1.7c-1.5,1.2-2.8,2.5-4,3.9c-1.2,1.4-2.5,2.8-4,3.9
	c-1.1,1-2.5,1.6-4,1.7c-1.6,0-3.1-0.6-4.3-1.7c-1.4-1.2-2.8-2.5-3.9-4c-1.2-1.4-2.5-2.8-3.9-3.9c-2.1-2.2-5.5-2.3-7.7-0.2
	c-0.1,0.1-0.1,0.1-0.2,0.2c-1.5,1.2-2.9,2.5-4.1,3.9c-1.3,1.4-2.7,2.7-4.1,3.9c-2.1,2.2-5.5,2.3-7.7,0.2c-0.1-0.1-0.1-0.1-0.2-0.2
	c-1.4-1.2-2.7-2.5-3.9-4c-1.2-1.4-2.5-2.8-3.9-4c-1.2-1.1-2.7-1.7-4.3-1.7c-1.5,0.1-2.9,0.7-4,1.7c-1.5,1.2-2.8,2.5-4,3.9
	c-1.2,1.4-2.5,2.8-3.9,3.9c-1.1,1-2.5,1.6-4,1.7c-1.1,0-2.1-0.4-3-1C277.8,413.9,276.8,413.3,275.8,412.6L275.8,412.6z M272.3,224.9
	c1.8,1.8,3.4,3.5,5,5.1c1.3,1.5,3.1,2.4,5.1,2.4c1.5-0.1,2.9-0.7,4-1.7c1.4-1.2,2.8-2.5,3.9-3.9c1.2-1.4,2.5-2.7,4-3.9
	c1.1-1,2.5-1.6,4-1.7c1.6,0,3.1,0.6,4.3,1.7c1.4,1.2,2.8,2.5,3.9,4c1.2,1.5,2.5,2.8,3.9,4c2.1,2.2,5.5,2.2,7.7,0.1
	c0.1,0,0.1-0.1,0.1-0.1c1.5-1.2,2.9-2.5,4.1-3.9c1.3-1.4,2.7-2.7,4.1-3.9c2.1-2.2,5.5-2.3,7.7-0.2c0.1,0.1,0.1,0.1,0.2,0.2
	c1.4,1.2,2.7,2.5,3.9,4c1.2,1.5,2.5,2.8,3.9,4c1.2,1,2.7,1.6,4.3,1.7c1.5-0.1,2.9-0.7,4-1.7c1.5-1.2,2.8-2.5,4-3.9
	c1.2-1.4,2.5-2.8,4-3.9c1.1-1,2.5-1.6,3.9-1.7c1.6,0,3.1,0.6,4.3,1.7c1.4,1.2,2.7,2.5,3.9,4c1.2,1.5,2.5,2.8,3.9,4
	c2.1,2.2,5.6,2.2,7.7,0.1c0,0,0.1-0.1,0.1-0.1c1.5-1.2,2.9-2.5,4.1-3.9c1.3-1.4,2.7-2.7,4.1-3.9c2.1-2.2,5.5-2.3,7.7-0.2
	c0.1,0.1,0.1,0.1,0.2,0.2c1.4,1.2,2.7,2.6,3.9,4c1.2,1.5,2.5,2.8,3.9,4c1.2,1.1,2.7,1.7,4.3,1.7c1.5-0.1,2.9-0.7,3.9-1.7
	c1.5-1.2,2.8-2.5,4-3.9c1.2-1.4,2.5-2.7,4-3.9c1.1-1,2.5-1.6,4-1.7c1.6,0,3.1,0.6,4.3,1.7c1.4,1.2,2.7,2.6,3.9,4
	c1.2,1.5,2.5,2.8,3.9,4c2.1,2.2,5.5,2.2,7.7,0.1c0.1,0,0.1-0.1,0.1-0.1c1.5-1.2,2.9-2.5,4.2-3.9c1.3-1.4,2.7-2.7,4.1-3.9
	c1.1-1,2.5-1.6,3.9-1.7h0.2c3,4.5,5.7,9.1,8.2,13.9c-1.5-1.5-3-2.9-4.5-4.3c-1.1-1.2-2.5-1.9-4.1-2.1c-1.5,0.1-2.9,0.7-3.9,1.7
	c-1.5,1.1-2.9,2.3-4.2,3.7c-1.3,1.4-2.7,2.7-4.1,3.9c-2.1,2.2-5.5,2.3-7.7,0.2c-0.1-0.1-0.1-0.1-0.2-0.2c-1.4-1.2-2.8-2.5-3.9-4
	c-1.2-1.5-2.5-2.8-3.9-4c-1.2-1.1-2.7-1.7-4.3-1.7c-1.5,0.1-2.9,0.6-4,1.7c-1.5,1.2-2.8,2.5-4,3.9c-1.2,1.4-2.5,2.7-4,3.9
	c-1.1,1-2.5,1.6-3.9,1.7c-1.6,0-3.1-0.6-4.3-1.7c-1.4-1.2-2.7-2.5-3.9-4c-1.2-1.5-2.5-2.8-3.9-4c-2.1-2.2-5.5-2.3-7.7-0.2
	c-0.1,0.1-0.1,0.1-0.2,0.2c-1.5,1.2-2.9,2.5-4.1,3.9c-1.3,1.4-2.7,2.7-4.1,3.9c-2.1,2.2-5.5,2.3-7.7,0.2c-0.1-0.1-0.1-0.1-0.2-0.2
	c-1.4-1.2-2.7-2.5-3.9-4c-1.2-1.5-2.5-2.8-3.9-4c-1.2-1.1-2.7-1.7-4.3-1.7c-1.5,0.1-2.9,0.7-3.9,1.7c-1.5,1.2-2.8,2.5-4,3.9
	c-1.2,1.4-2.5,2.7-4,3.9c-1.1,1-2.5,1.6-4,1.7c-1.6,0-3.1-0.6-4.3-1.7c-1.4-1.2-2.8-2.5-3.9-4c-1.2-1.5-2.5-2.8-3.9-4
	c-2.1-2.2-5.5-2.3-7.7-0.2c-0.1,0.1-0.1,0.1-0.2,0.2c-1.5,1.2-2.9,2.5-4.1,3.9c-1.3,1.4-2.7,2.7-4.1,3.9c-2.1,2.2-5.5,2.3-7.7,0.2
	c-0.1-0.1-0.1-0.1-0.2-0.2c-1.4-1.2-2.8-2.5-3.9-4c-1.2-1.4-2.5-2.8-3.9-4c-1.2-1.1-2.7-1.7-4.3-1.7c-1.5,0.1-2.9,0.7-4,1.7
	c-1.5,1.2-2.8,2.5-4,3.9c-1.2,1.4-2.5,2.7-3.9,3.9c-1.1,1-2.5,1.6-3.9,1.7c-2.3,0-4.5-1.3-6.8-4c-1.9-2.3-4-4.4-6.3-6.2L272.3,224.9
	z M279.1,215.6c1.1,0.4,2.2,0.7,3.4,0.8c1.5-0.1,2.9-0.7,3.9-1.7c1.5-1.2,2.8-2.5,4-3.9c1.2-1.4,2.5-2.7,3.9-3.9
	c1.1-1,2.5-1.6,4-1.7c1.6,0,3.1,0.6,4.3,1.7c1.4,1.2,2.7,2.5,3.9,4c1.2,1.5,2.5,2.8,3.9,4c1.1,1,2.5,1.6,3.9,1.7
	c1.5-0.1,2.9-0.7,4-1.7c1.5-1.2,2.9-2.5,4.1-3.9c1.3-1.4,2.7-2.7,4.1-3.9c2.1-2.2,5.5-2.3,7.7-0.2c0.1,0.1,0.1,0.1,0.2,0.2
	c1.4,1.2,2.8,2.5,3.9,4c1.2,1.5,2.5,2.8,3.9,4c1.2,1.1,2.7,1.7,4.3,1.7c1.5-0.1,2.9-0.7,4-1.7c1.5-1.2,2.8-2.5,4-3.9
	c1.2-1.4,2.5-2.8,4-3.9c1.1-1,2.5-1.6,3.9-1.7c1.6,0,3.1,0.6,4.3,1.7c1.4,1.2,2.7,2.6,3.9,4c1.2,1.4,2.5,2.8,3.9,4
	c2.1,2.2,5.5,2.3,7.7,0.2c0.1-0.1,0.1-0.1,0.2-0.2c1.5-1.2,2.9-2.5,4.1-3.9c1.3-1.4,2.7-2.7,4.1-3.9c1.1-1,2.5-1.6,4-1.7
	c1.5,0.1,2.9,0.7,3.9,1.7c1.4,1.2,2.7,2.6,3.9,4c1.2,1.5,2.5,2.8,3.9,4c1.2,1.1,2.7,1.7,4.3,1.7c1.5-0.1,2.9-0.7,4-1.7
	c1.4-1.2,2.8-2.5,3.9-3.9c1.2-1.4,2.6-2.7,4-3.9c1.1-1,2.5-1.6,4-1.7c1.6,0,3.1,0.6,4.3,1.7c1.4,1.2,2.8,2.5,3.9,4
	c1.2,1.4,2.5,2.8,3.9,3.9c2.1,2.2,5.5,2.3,7.7,0.2c0.1-0.1,0.1-0.1,0.2-0.2c1.4-1.1,2.7-2.3,3.9-3.5l3.7,4.1
	c-2.2,1.6-4.1,3.5-5.8,5.6c-1.9,2.3-3.8,3.4-5.8,3.3c-1.5-0.1-2.9-0.7-3.9-1.7c-1.4-1.2-2.7-2.5-3.9-4c-1.2-1.5-2.5-2.8-3.9-4
	c-1.2-1.1-2.7-1.7-4.3-1.7c-1.5,0.1-2.9,0.7-4,1.7c-1.5,1.2-2.8,2.5-4,3.9c-1.2,1.4-2.5,2.8-3.9,3.9c-1.1,1-2.5,1.6-4,1.7
	c-1.6,0-3.1-0.6-4.3-1.7c-1.4-1.2-2.7-2.5-3.9-4c-1.2-1.4-2.5-2.8-3.9-4c-2.1-2.2-5.5-2.3-7.7-0.2c-0.1,0.1-0.1,0.1-0.2,0.2
	c-1.5,1.2-2.9,2.5-4.1,3.9c-1.3,1.4-2.7,2.7-4.1,3.9c-2.1,2.2-5.6,2.2-7.8,0.1c0,0-0.1-0.1-0.1-0.1c-1.4-1.2-2.7-2.5-3.9-4
	c-1.2-1.4-2.5-2.8-3.9-4c-1.2-1.1-2.7-1.7-4.3-1.7c-1.5,0-3,0.6-4.1,1.6c-1.4,1.2-2.8,2.5-4,3.9c-1.2,1.4-2.5,2.7-4,3.9
	c-1.1,1-2.5,1.6-4,1.7c-1.6,0-3.1-0.6-4.3-1.7c-1.4-1.2-2.8-2.5-3.9-4c-1.2-1.5-2.5-2.8-3.9-4c-2.1-2.2-5.5-2.3-7.7-0.2
	c-0.1,0.1-0.1,0.1-0.2,0.2c-1.5,1.2-2.9,2.5-4.1,3.9c-1.3,1.4-2.7,2.7-4.1,3.9c-2.1,2.2-5.6,2.2-7.7,0.1c0,0-0.1-0.1-0.1-0.1
	c-1.4-1.2-2.8-2.5-3.9-4c-1.2-1.5-2.5-2.8-3.9-4c-1.2-1.1-2.7-1.7-4.3-1.7c-1.5,0.1-2.9,0.7-4,1.7c-1.4,1.2-2.8,2.5-4,3.9
	c-1.2,1.4-2.5,2.8-4,3.9c-1.1,1-2.5,1.6-3.9,1.7c-1.2,0-2.4-0.4-3.4-1.1c-1.2-0.9-2.3-1.9-3.4-3L279.1,215.6z M284.7,422.7
	c2.4-1.6,4.6-3.7,6.4-6c2.3-2.8,4.4-4.1,6.4-4.1c1.6,0,3.1,0.6,4.3,1.7c1.4,1.2,2.7,2.5,3.9,4c1.2,1.4,2.5,2.8,3.9,3.9
	c2.1,2.2,5.5,2.3,7.7,0.2c0.1-0.1,0.1-0.1,0.2-0.2c1.5-1.2,2.9-2.5,4.1-3.9c1.3-1.4,2.7-2.7,4.1-3.9c2.1-2.2,5.5-2.3,7.7-0.2
	c0.1,0.1,0.1,0.1,0.2,0.2c1.4,1.2,2.8,2.5,3.9,4c1.2,1.4,2.5,2.8,3.9,3.9c1.2,1.1,2.7,1.7,4.3,1.7c1.5-0.1,2.9-0.7,4-1.7
	c1.5-1.2,2.8-2.5,4-3.9c1.2-1.4,2.5-2.7,3.9-3.9c1.1-1,2.5-1.6,3.9-1.7c1.6,0,3.1,0.6,4.3,1.7c1.4,1.2,2.7,2.5,3.9,4
	c1.2,1.5,2.5,2.8,3.9,4c1.1,1,2.5,1.6,3.9,1.7c1.5-0.1,2.9-0.7,4-1.7c1.5-1.2,2.9-2.5,4.1-3.9c1.3-1.4,2.7-2.7,4.1-3.9
	c2.1-2.2,5.5-2.3,7.7-0.2c0.1,0.1,0.1,0.1,0.2,0.2c1.4,1.2,2.7,2.5,3.9,4c1.2,1.5,2.5,2.8,3.9,4c1.2,1.1,2.7,1.7,4.3,1.7
	c1.5-0.1,2.9-0.7,3.9-1.7c1.4-1.2,2.8-2.5,4-3.9c1.2-1.4,2.5-2.7,4-3.9c1.1-1,2.5-1.6,4-1.7c1.6,0,3.1,0.7,4.3,1.7
	c1.4,1.2,2.8,2.5,3.9,3.9c1.2,1.5,2.5,2.8,3.9,4c1.1,1,2.5,1.6,3.9,1.7c1.3-0.1,2.4-0.6,3.4-1.5c1.3-1.1,2.6-2.2,3.8-3.4
	c1.3-1.2,2.5-2.4,3.8-3.5c1.1-1,2.4-1.8,3.8-2.4c-5.1,6.6-11.1,12.5-17.7,17.6c-2.5-1.7-4.6-3.8-6.3-6.2c-2.2-2.9-4.5-4.3-6.7-4.3
	c-1.5,0.1-2.9,0.7-4,1.7c-1.5,1.2-2.8,2.5-4,3.9c-1.2,1.4-2.5,2.8-4,3.9c-1.1,1-2.5,1.6-3.9,1.7c-1.6,0-3.1-0.6-4.3-1.7
	c-1.4-1.2-2.8-2.5-3.9-4c-1.2-1.4-2.5-2.8-3.9-4c-1.1-1-2.5-1.6-3.9-1.7c-1.5,0.1-2.9,0.7-3.9,1.7c-1.5,1.2-2.9,2.5-4.1,3.9
	c-1.3,1.4-2.7,2.7-4.1,3.9c-2.1,2.2-5.5,2.3-7.7,0.2c-0.1-0.1-0.1-0.1-0.2-0.2c-1.4-1.2-2.8-2.5-3.9-4c-1.2-1.4-2.5-2.8-3.9-4
	c-1.2-1.1-2.7-1.7-4.3-1.7c-1.5,0.1-2.9,0.7-3.9,1.7c-1.5,1.2-2.8,2.5-4,3.9c-1.2,1.4-2.5,2.7-4,3.9c-1.1,1-2.5,1.6-4,1.7
	c-1.6,0-3.1-0.6-4.3-1.7c-1.4-1.2-2.8-2.5-3.9-3.9c-1.2-1.4-2.5-2.8-3.9-4c-2.1-2.2-5.5-2.3-7.7-0.2c-0.1,0.1-0.1,0.1-0.2,0.2
	c-1.5,1.2-2.9,2.5-4.1,3.9c-1.3,1.4-2.7,2.7-4.1,3.9c-2.1,2.2-5.5,2.3-7.7,0.2c-0.1-0.1-0.1-0.1-0.2-0.2c-1.4-1.2-2.8-2.5-3.9-4
	c-1.2-1.4-2.5-2.8-3.9-3.9c-1.2-1.1-2.7-1.7-4.3-1.7c-1.7,0.1-3.2,0.8-4.3,2l-4.3,4.3L284.7,422.7z M319.2,444.2
	c-9.3-3.3-18-8-25.8-14c1.1-1.2,2.6-1.8,4.1-1.9c1.6,0,3.1,0.7,4.3,1.7c1.4,1.2,2.8,2.5,3.9,4c1.2,1.4,2.5,2.8,3.9,3.9
	c1.1,1,2.5,1.6,3.9,1.7c1.5-0.1,2.9-0.7,3.9-1.7c1.5-1.2,2.9-2.5,4.1-3.9c1.3-1.4,2.7-2.7,4.2-3.9c2.1-2.2,5.5-2.3,7.7-0.2
	c0.1,0.1,0.1,0.1,0.2,0.2c1.4,1.2,2.7,2.5,3.9,4c1.2,1.5,2.5,2.8,3.9,4c1.2,1.1,2.7,1.7,4.3,1.7c1.5-0.1,2.9-0.7,4-1.7
	c1.5-1.2,2.8-2.5,4-3.9c1.2-1.4,2.5-2.7,3.9-3.9c1.1-1,2.5-1.6,4-1.7c1.6,0,3.1,0.7,4.3,1.7c1.4,1.2,2.7,2.5,3.9,4
	c1.2,1.5,2.5,2.8,3.9,4c2.1,2.2,5.5,2.3,7.7,0.2c0.1-0.1,0.1-0.1,0.2-0.2c1.5-1.2,2.9-2.5,4.1-3.9c1.3-1.4,2.7-2.7,4.1-3.9
	c1.1-1,2.5-1.6,4-1.7c1.5,0.1,2.9,0.7,3.9,1.7c1.4,1.2,2.7,2.5,3.9,4c1.2,1.5,2.5,2.8,3.9,4c1.2,1.1,2.7,1.7,4.3,1.7
	c1.5-0.1,2.9-0.7,3.9-1.7c1.5-1.2,2.8-2.5,4-3.9c1.2-1.4,2.5-2.7,4-3.9c1.1-1,2.5-1.6,4-1.7c1.6,0.1,3,0.8,4.1,1.9
	c1.5,1.3,2.9,2.5,4.1,3.8l-5.3,3.4c-0.9-0.6-1.9-1-3-1.1c-1.8,0-3.5,0.8-4.7,2.2l-4.5,4.5c-1.7,0.5-3.4,1.1-5.1,1.7
	c-1.6,0.6-3.3,1.2-5.1,1.7c-2.6-1.5-4.8-3.6-6.5-6c-2.1-2.7-4.2-4.1-6.2-4.1c-1.5,0.1-2.9,0.7-4,1.7c-1.5,1.2-2.9,2.5-4.1,3.9
	c-1.3,1.4-2.7,2.7-4.1,3.9c-2.1,2.2-5.5,2.3-7.7,0.2c-0.1-0.1-0.1-0.1-0.2-0.2c-1.4-1.2-2.7-2.5-3.9-3.9c-1.2-1.5-2.5-2.8-3.9-4
	c-1.2-1.1-2.7-1.7-4.3-1.7c-1.5,0.1-2.9,0.7-3.9,1.7c-1.4,1.2-2.8,2.5-4,3.9c-1.2,1.4-2.6,2.7-4,3.9c-1.1,1-2.5,1.6-4,1.7
	c-1.6,0-3.1-0.6-4.3-1.7c-1.4-1.2-2.8-2.5-3.9-4c-1.2-1.4-2.5-2.8-3.9-4c-1.1-1-2.5-1.6-3.9-1.7c-2,0.1-3.8,1.1-5.1,2.6
	C322.8,440.8,321,442.5,319.2,444.2L319.2,444.2z M422.8,191.4c8.5,4.3,16.4,9.6,23.6,15.8c-1,0.9-2.4,1.4-3.8,1.5
	c-1.5-0.1-2.9-0.7-3.9-1.7c-1.4-1.2-2.7-2.5-3.9-4c-1.2-1.5-2.5-2.8-3.9-4c-1.2-1.1-2.7-1.7-4.3-1.7c-1.5,0.1-2.9,0.7-4,1.7
	c-1.4,1.2-2.7,2.5-3.9,3.9c-1.2,1.5-2.5,2.8-3.9,4c-1.1,1-2.5,1.6-4,1.7c-1.6,0-3.1-0.6-4.3-1.7c-1.4-1.2-2.8-2.5-3.9-4
	c-1.2-1.4-2.5-2.8-3.9-4c-2.1-2.2-5.5-2.3-7.7-0.2c-0.1,0.1-0.1,0.1-0.2,0.2c-1.5,1.2-2.9,2.5-4.1,3.9c-1.3,1.4-2.7,2.7-4.1,3.9
	c-2.1,2.2-5.5,2.3-7.7,0.2c-0.1-0.1-0.1-0.1-0.2-0.2c-1.4-1.2-2.8-2.5-3.9-4c-1.2-1.5-2.5-2.8-3.9-4c-1.2-1.1-2.7-1.7-4.3-1.7
	c-1.5,0.1-2.9,0.7-3.9,1.7c-1.5,1.2-2.8,2.5-4,3.9c-1.2,1.4-2.5,2.7-4,3.9c-1.1,1-2.5,1.6-4,1.7c-1.6,0-3.1-0.6-4.3-1.7
	c-1.4-1.2-2.8-2.5-3.9-3.9c-1.2-1.5-2.5-2.8-3.9-4c-2.1-2.2-5.5-2.3-7.7-0.2c-0.1,0.1-0.1,0.1-0.2,0.2c-1.5,1.2-2.9,2.5-4.1,3.9
	c-1.3,1.4-2.7,2.7-4.1,3.9c-1.1,1-2.5,1.6-4,1.7c-1.4-0.1-2.7-0.6-3.8-1.5c-1.3-1-2.5-2.2-3.5-3.4c-1.1-1.3-2.3-2.4-3.5-3.6
	c-1.1-1-2.4-1.9-3.7-2.5l5.6-3.4c1.4,1.7,2.9,3.2,4.5,4.7c1.2,1.2,2.8,2,4.5,2.1c1.5-0.1,2.9-0.7,4-1.7c1.5-1.2,2.8-2.5,4.1-3.9
	c1.3-1.4,2.7-2.7,4.1-3.9c1.1-1,2.5-1.6,3.9-1.7c1.5,0.1,2.9,0.7,3.9,1.7c1.4,1.2,2.7,2.5,3.9,4c1.2,1.4,2.5,2.8,3.9,4
	c1.2,1.1,2.7,1.7,4.3,1.7c1.5-0.1,2.9-0.6,4-1.7c1.4-1.2,2.8-2.5,4-3.9c1.2-1.4,2.5-2.8,4-3.9c1.1-1,2.5-1.6,4-1.7
	c1.6,0,3.1,0.6,4.3,1.7c1.4,1.2,2.7,2.5,3.9,4c1.2,1.4,2.5,2.8,3.9,4c2.1,2.2,5.5,2.3,7.7,0.2c0.1-0.1,0.1-0.1,0.2-0.2
	c1.5-1.2,2.9-2.5,4.1-3.9s2.7-2.7,4.1-3.9c2.1-2.2,5.5-2.3,7.7-0.2c0.1,0.1,0.1,0.1,0.2,0.2c1.4,1.2,2.7,2.5,3.9,4
	c1.2,1.5,2.5,2.8,3.9,4c1.2,1.1,2.7,1.7,4.3,1.7c2,0,4-1.2,6-3.7C418.6,195.1,420.6,193.1,422.8,191.4z M310.7,191.4
	c2-1,4.1-1.9,6.2-2.8s4.2-1.7,6.2-2.4c-1.5,1.5-3,2.9-4.5,4.3c-1.1,1.2-2.6,1.9-4.1,2C313.1,192.5,311.8,192.1,310.7,191.4
	L310.7,191.4z M325.5,446.5c1.8-1.3,3.1-1.9,4.1-1.9c1.3,0,2.5,0.5,3.4,1.3c1,0.9,2.1,1.8,3.4,2.8L325.5,446.5z M371.1,179.9
	c1.2,1.2,2.4,2.3,3.7,3.4c1,0.9,2.4,1.5,3.7,1.5c1.1,0,2.1-0.4,3-1.1c1-0.7,2.1-1.6,3.4-2.6c1.3,0,2.5,0.2,3.7,0.4l3.7,0.8
	c-2.2,1-4.6,3-7,6s-4.7,4.5-7,4.5c-1.5-0.1-2.9-0.7-3.9-1.7c-1.4-1.2-2.7-2.5-3.9-4c-1.2-1.5-2.5-2.8-3.9-4
	c-1.2-1.1-2.7-1.7-4.3-1.7c-1.5,0.1-2.9,0.7-4,1.7c-1.4,1.2-2.8,2.5-4,3.9c-1.2,1.4-2.5,2.7-4,3.9c-1.1,1-2.5,1.6-3.9,1.7
	c-2.2,0-4.4-1.2-6.4-3.6c-1.8-2.2-3.8-4.1-6-5.8c1.1-0.5,2.2-0.7,3.4-0.7c1.1,0,2.3-0.1,3.4-0.4c2.3,1.8,4.1,2.6,5.6,2.6
	c1.2,0,2.4-0.4,3.4-1.1c1.2-0.9,2.3-1.9,3.4-3c2.3-0.3,4.5-0.4,6.8-0.5s4.6-0.2,7.1-0.2L371.1,179.9z M366.4,451.9
	c-2.5,0-4.9-0.1-7.1-0.2c-2.3-0.1-4.5-0.3-6.7-0.6c1.5-1.5,3-2.9,4.5-4.3c2.3-2.5,6.2-2.7,8.7-0.5c0.2,0.2,0.4,0.4,0.6,0.7
	c1.5,1.5,3,3.1,4.5,4.9L366.4,451.9z M364.1,240.3c-1.3,0-2.6,0-3.9,0.2c-1.3,0.1-2.7,0.3-4,0.5c2-2.5,4-3.7,6-3.7
	c1.5,0,3.4,1.1,5.6,3.4c-0.6,0-1.3-0.1-1.9-0.2C365.3,240.4,364.7,240.3,364.1,240.3z M392.1,381.8c0.5-0.5,1.2-0.8,1.9-0.8
	c1.5,0.1,2.9,0.7,3.9,1.7c1.4,1.2,2.7,2.5,3.9,4c1.2,1.5,2.5,2.8,3.9,4c1.2,1.1,2.7,1.7,4.3,1.7c1.5-0.1,2.9-0.7,3.9-1.7
	c1.4-1.2,2.8-2.5,4-3.9c1.2-1.4,2.5-2.7,4-3.9c1.1-1,2.5-1.6,4-1.7c1.6,0,3.1,0.6,4.3,1.7c1.4,1.2,2.8,2.5,3.9,4
	c1.2,1.5,2.5,2.8,3.9,4c2.1,2.2,5.5,2.3,7.7,0.2c0.1-0.1,0.1-0.1,0.2-0.2c1.5-1.2,2.8-2.5,4.1-3.9c1.3-1.4,2.7-2.7,4.2-3.9
	c1.1-1,2.5-1.6,3.9-1.7c2,0,3.9,1.2,5.8,3.6c1.7,2.2,3.6,4.1,5.8,5.8l-2.3,5.1c-1.7-1.5-3.3-3-4.9-4.7c-1.5-1.6-3-2.5-4.5-2.5
	c-1.5,0.1-2.9,0.7-4,1.7c-1.5,1.2-2.9,2.5-4.1,3.9c-1.3,1.4-2.7,2.7-4.1,3.9c-2.1,2.2-5.5,2.3-7.7,0.2c-0.1-0.1-0.1-0.1-0.2-0.2
	c-1.4-1.2-2.8-2.5-3.9-4c-1.2-1.5-2.5-2.8-3.9-4c-1.2-1.1-2.7-1.7-4.3-1.7c-1.5,0.1-2.9,0.7-4,1.7c-1.5,1.2-2.8,2.5-4,3.9
	c-1.2,1.4-2.5,2.7-3.9,3.9c-1.1,1-2.5,1.6-4,1.7c-1.6,0-3.1-0.6-4.3-1.7c-1.4-1.2-2.7-2.5-3.9-4c-1.2-1.4-2.5-2.8-3.9-4
	c-2.1-2.2-5.5-2.3-7.7-0.2c-0.1,0.1-0.1,0.1-0.2,0.2c-1.5,1.2-2.9,2.5-4.1,3.9c-1.3,1.4-2.7,2.7-4.1,3.9c-1.1,1-2.5,1.6-4,1.7
	c-2,0-3.8-1-5.4-3c-1.6-2-3.5-3.9-5.4-5.6c2.1,0,4.3-0.3,6.4-0.7c1.3,1.1,2.8,1.7,4.5,1.9c1.5,0,3.1-0.8,4.7-2.4s3.3-3.2,5.1-4.7
	L392.1,381.8z M384.7,244.8c1.8-1.7,3.4-3.4,4.9-5c1.2-1.5,3-2.4,4.9-2.4c1.5,0.1,2.9,0.7,3.9,1.7c1.4,1.2,2.7,2.5,3.9,4
	c1.2,1.5,2.5,2.8,3.9,4c1.2,1.1,2.7,1.7,4.3,1.7c1.5-0.1,2.9-0.7,4-1.7c1.4-1.2,2.8-2.5,3.9-3.9c1.2-1.4,2.5-2.7,4-3.9
	c1.1-1,2.5-1.6,4-1.7c1.6,0,3.1,0.6,4.3,1.7c1.4,1.2,2.8,2.5,3.9,3.9c1.2,1.5,2.5,2.8,3.9,4c2.1,2.2,5.5,2.3,7.7,0.2
	c0.1-0.1,0.1-0.1,0.2-0.2c1.5-1.2,2.9-2.5,4.2-3.9c1.3-1.4,2.7-2.7,4.1-3.9c1.1-1,2.5-1.6,3.9-1.7c2.3,0,4.5,1.5,6.7,4.5
	c1.8,2.7,4.3,4.8,7.1,6.4l1.1,2.6l-6,1.5c-1.5-1.8-3-3.4-4.5-4.9c-1.1-1.3-2.8-2.1-4.5-2.3c-1.5,0.1-2.9,0.7-3.9,1.7
	c-1.5,1.2-2.9,2.5-4.2,3.9c-1.3,1.4-2.7,2.7-4.1,3.9c-1.1,1-2.5,1.6-3.9,1.7c-1.5-0.1-2.9-0.7-3.9-1.7c-1.4-1.2-2.8-2.5-3.9-4
	c-1.2-1.5-2.5-2.8-3.9-4c-1.2-1.1-2.7-1.7-4.3-1.7c-1.5,0.1-2.9,0.7-4,1.7c-1.5,1.2-2.8,2.5-4,3.9c-1.2,1.4-2.5,2.7-4,3.9
	c-1.1,1-2.5,1.6-3.9,1.7c-1.6,0-3.1-0.6-4.3-1.7c-1.4-1.2-2.7-2.5-3.9-4c-1.2-1.5-2.5-2.8-3.9-4c-1.1-1-2.5-1.6-3.9-1.7
	c-1.5,0-3.1,0.9-4.9,2.6L384.7,244.8z M399.7,448.2c-2.5,0.5-4.9,0.9-7.3,1.3s-4.8,0.8-7.3,1.3c1.5-1.5,2.9-2.9,4.3-4.1
	c1.2-1.2,2.7-1.8,4.3-1.9C395.1,444.8,397,445.9,399.7,448.2L399.7,448.2z M403.3,265.5c-2-4-4.4-7.8-7.1-11.3
	c2.4,1.3,4.5,3.1,6.2,5.3c1.6,2.1,3.7,3.8,6.2,4.9L403.3,265.5z M398.3,183c6.4,1.4,12.6,3.3,18.7,5.7c-1.2,1.3-2.3,2.3-3.2,3
	c-0.9,0.8-2,1.2-3.2,1.1c-2.2,0-4.4-1.2-6.4-3.6c-1.8-2.2-3.8-4.3-5.9-6.2L398.3,183z M401.1,369.8c1.5,1.5,3,3,4.5,4.3
	c1.2,1.2,2.8,2,4.5,2.1c1.6-0.1,3.2-0.8,4.3-2c1.4-1.4,2.8-2.9,4.3-4.7l17.6,3.8c2,2,3.9,3,5.6,3c1.1-0.1,2.1-0.5,3-1.1l6.8,1.5
	l-5.1,5c-1.6,1.6-3.2,2.4-4.7,2.4c-1.5-0.1-2.9-0.7-3.9-1.7c-1.4-1.2-2.8-2.5-3.9-4c-1.2-1.5-2.5-2.8-3.9-4
	c-1.2-1.1-2.7-1.7-4.3-1.7c-1.5,0.1-2.9,0.7-4,1.7c-1.4,1.2-2.8,2.5-3.9,3.9c-1.2,1.4-2.5,2.7-4,3.9c-1.1,1-2.5,1.6-3.9,1.7
	c-2,0-4-1.2-6-3.4c-1.9-2.1-3.9-4.1-6-6L401.1,369.8z M410.1,367.9c-1.2,0-2.4-0.4-3.4-1.1l4.5,1.2L410.1,367.9z M426.4,253.6
	c1.5,0.1,2.9,0.8,3.9,1.9c1.4,1.3,2.7,2.5,3.9,3.8l-19.9,4.1c2.2-1.7,4.3-3.8,6-6C422.3,254.9,424.3,253.6,426.4,253.6z
	 M458.6,253.8c0.2,0,0.4,0,0.6,0.2c0.3,0.2,0.6,0.2,0.9,0.2l-4.9,1.1C456.2,254.5,457.4,253.9,458.6,253.8z M472.4,383.9
	c-0.9-0.3-1.7-0.9-2.4-1.5c-0.9-0.7-1.8-1.5-2.8-2.3l6.4,1.2L472.4,383.9z"/>
<path class="st0" d="M495.2,184.9v1.1c0.1,2.1-0.8,4-2.3,5.4c-1.4,1.4-3.3,2.2-5.3,2.4v-9L495.2,184.9z M489.1,216.7
	c0,1.2-0.1,2.4-0.4,3.6c-0.3,1.2-0.7,2.4-1.1,3.6V210c0.4,1.1,0.8,2.2,1.1,3.4C489,214.5,489.1,215.6,489.1,216.7z M497.7,232.5
	c5.3-0.1,9.6,4.2,9.7,9.4c0,0.1,0,0.2,0,0.3c0.1,1.6-0.3,3.2-1.2,4.5l-17.2-0.1c-0.8-1.3-1.2-2.9-1.1-4.5c-0.1-5.3,4.2-9.7,9.5-9.7
	C497.5,232.5,497.6,232.5,497.7,232.5L497.7,232.5z M504.2,189.8c4.5,0.1,8.2,3.7,8.2,8.3c0,2.1-0.9,4.2-2.5,5.6
	c-1.6,1.5-3.7,2.3-5.8,2.2c-2.2,0-4.2-0.8-5.8-2.3c-1.6-1.4-2.5-3.5-2.4-5.6C496,193.5,499.7,189.8,504.2,189.8L504.2,189.8z
	 M508.2,211.2c5.3,0.1,9.5,4.5,9.4,9.8c-0.1,5.3-4.5,9.5-9.8,9.4c-5.3-0.1-9.5-4.5-9.4-9.8c0.1-2.5,1.1-4.8,2.8-6.6
	C503.1,212.1,505.6,211.1,508.2,211.2L508.2,211.2z M523.9,232.9c3.7,0,7.2,1.5,9.7,4.2c2.7,2.6,4.3,6.1,4.5,9.8l-28.5-0.1
	c0-3.7,1.5-7.2,4.2-9.7C516.4,234.4,520.1,232.9,523.9,232.9z M518.4,188.3c0-1.1,0.1-2.3,0.4-3.4l27.4,0.1c0,0.6,0.1,1.1,0.2,1.7
	c0.1,0.6,0.2,1.1,0.2,1.7c0,3.6-1.4,7.2-4,9.7c-2.6,2.7-6.2,4.2-10,4.1c-3.8,0.1-7.5-1.4-10.1-4.2
	C519.8,195.5,518.4,192,518.4,188.3L518.4,188.3z M531.9,207.5c2.4,0,4.7,0.9,6.3,2.7c1.8,1.8,2.7,4.2,2.6,6.8c0,5-4,9-9,9
	c-2.5,0.1-5-0.9-6.7-2.7c-1.7-1.7-2.7-4-2.6-6.4c-0.2-5,3.7-9.1,8.6-9.3C531.4,207.5,531.7,207.5,531.9,207.5L531.9,207.5z
	 M542.5,274.6c0.1,2.5-0.9,5-2.7,6.8v-13.5C541.7,269.7,542.6,272.1,542.5,274.6L542.5,274.6z M552.2,286.3
	c7.8-0.1,14.1,6.2,14.2,14c0,0.1,0,0.2,0,0.3c0,3.7-1.5,7.2-4.2,9.7c-2.7,2.7-6.4,4.2-10.2,4.1c-5.8,0-9.9-2.3-12.3-6.8v-14.3
	C542.3,288.7,546.5,286.3,552.2,286.3L552.2,286.3z M548.7,325.3c0.1,2.5-0.9,5-2.7,6.8c-1.7,1.7-4,2.8-6.4,3l0.1-19.5
	c2.4,0.2,4.7,1.4,6.4,3.2C547.8,320.5,548.8,322.9,548.7,325.3L548.7,325.3z M550.5,341.1c4.2-0.1,8.3,1.6,11.2,4.7
	c2.9,3,4.5,7,4.5,11.2c0.1,4.3-1.6,8.4-4.5,11.4c-2.9,3.1-7,4.7-11.3,4.6c-4.8,0-8.4-1.5-10.8-4.5l0.1-22.9
	C542.5,342.6,546.5,341,550.5,341.1L550.5,341.1z M550.6,422.5c0,3.4-1.1,6.7-3.2,9.4c-2.1,2.7-4.9,4.8-8.1,6l0.1-30.4
	c3.2,1,6,3,8,5.7C549.6,415.8,550.7,419.1,550.6,422.5L550.6,422.5z M554.5,378.6c7.9,0,14.2,6.4,14.2,14.3s-6.4,14.2-14.3,14.2l0,0
	c-3.7,0-7.2-1.5-9.7-4.2c-5.5-5.7-5.5-14.6,0.1-20.3C547.3,380,550.9,378.6,554.5,378.6L554.5,378.6z M553.5,234.9
	c5.3,0.1,9.5,4.5,9.4,9.8c-0.1,5.3-4.5,9.5-9.8,9.4s-9.5-4.5-9.4-9.8c0-2.5,1.1-4.9,2.8-6.6C548.4,235.9,550.9,234.9,553.5,234.9
	L553.5,234.9z M565.3,199.3c8.6,0.2,15.6,7.2,15.7,15.8c0,4.1-1.7,8.1-4.7,10.9c-6.2,6-16,6-22.2-0.1c-3-2.8-4.7-6.8-4.7-10.9
	C549.6,206.4,556.6,199.5,565.3,199.3L565.3,199.3z M559.1,260.5c5.3-0.1,9.7,4.2,9.7,9.5c0,0.1,0,0.2,0,0.3
	c0.1,5.3-4.2,9.7-9.5,9.7c-0.1,0-0.2,0-0.3,0c-5.4,0.2-9.9-4.1-10-9.5c-0.2-5.4,4.1-9.9,9.5-10C558.7,260.5,558.9,260.5,559.1,260.5
	z M558.9,433.4c5.3-0.1,9.7,4.2,9.7,9.5c0,0.1,0,0.2,0,0.3c0.1,1.6-0.3,3.2-1.1,4.5l-17.6-0.1c-0.5-0.8-0.7-2.3-0.7-4.5
	c-0.1-5.3,4.2-9.6,9.5-9.7C558.7,433.4,558.8,433.4,558.9,433.4z M563,319c5.3,0.1,9.5,4.5,9.4,9.8c-0.1,5.3-4.5,9.5-9.8,9.4
	c-5.3-0.1-9.5-4.5-9.4-9.8c0.1-2.5,1.1-4.8,2.8-6.6C557.9,319.9,560.4,318.9,563,319L563,319z M563.5,413.2c4.5,0.1,8.2,3.7,8.2,8.3
	c0,2.1-0.9,4.2-2.5,5.6c-3.3,3-8.3,3-11.6,0c-1.6-1.4-2.5-3.5-2.4-5.6C555.2,416.8,558.9,413.2,563.5,413.2L563.5,413.2z
	 M566.9,193.7c-2.4,0.1-4.8-0.8-6.6-2.5c-1.6-1.7-2.6-3.9-2.8-6.2l19.1,0.1c-0.2,2.4-1.4,4.6-3.2,6.2
	C571.6,192.9,569.2,193.8,566.9,193.7L566.9,193.7z M576,364.8c5.4,0,9.7,4.4,9.7,9.8c0,5.4-4.4,9.7-9.8,9.7
	c-5.4-0.1-9.8-4.5-9.7-9.9c0-2.5,1-5,2.8-6.8C570.9,365.8,573.4,364.8,576,364.8L576,364.8z M583.2,234.7c7.8-0.1,14.1,6.2,14.2,14
	c0,0.1,0,0.2,0,0.3c0,3.7-1.5,7.2-4.2,9.7c-5.7,5.5-14.6,5.5-20.3-0.1c-2.7-2.6-4.1-6.1-4.1-9.8c-0.1-7.8,6.2-14.1,14-14.2
	C583,234.7,583.1,234.7,583.2,234.7L583.2,234.7z M578.9,301.1c5.3,0.1,9.5,4.5,9.4,9.8c-0.1,5.3-4.5,9.5-9.8,9.4
	c-5.3-0.1-9.5-4.5-9.4-9.8c0.1-2.5,1.1-4.8,2.8-6.6C573.7,302,576.2,301,578.9,301.1L578.9,301.1z M585.7,268.8
	c3.8-0.1,7.4,1.4,9.9,4.2c5.2,5.8,5.2,14.5-0.1,20.3c-2.6,2.7-6.2,4.2-10,4.1c-7.9,0-14.2-6.4-14.2-14.3
	C571.4,275.2,577.8,268.8,585.7,268.8z M586.8,388.5c8.7,0.2,15.6,7.2,15.7,15.8c0,4.1-1.7,8.1-4.7,10.8c-6.2,6-16,5.9-22.1-0.1
	c-3-2.8-4.7-6.8-4.7-10.9C571.1,395.5,578.1,388.6,586.8,388.5L586.8,388.5z M588.9,331.5c8.6,0.2,15.6,7.2,15.7,15.8
	c0.1,4.3-1.7,8.4-4.7,11.4c-6,6.1-15.7,6.2-21.8,0.2c-0.1-0.1-0.2-0.2-0.3-0.3c-3.1-3-4.8-7.2-4.7-11.5
	C573.3,338.5,580.2,331.6,588.9,331.5z M587.4,425.3c3.1-0.1,6,1.1,8.2,3.2c2.2,2.1,3.4,5,3.3,8.1c0,2.6-0.8,5.1-2.5,7.1
	c-1.6,2-3.8,3.4-6.2,4.1H584c-4.8-1.6-8-6.2-7.9-11.3c-0.2-6,4.6-11,10.6-11.2C586.9,425.2,587.2,425.2,587.4,425.3L587.4,425.3z
	 M581.8,194.9c-0.1-3.8,1.6-7.4,4.5-9.7l16.1,0.1c5.3,4.3,6.2,12.1,1.9,17.5c-2.4,3-6,4.7-9.9,4.6c-3.4,0.1-6.6-1.2-9-3.6
	C583,201.5,581.7,198.3,581.8,194.9z M597.5,215.9c4.5,0,8.2,3.7,8.2,8.2c0,2.2-0.9,4.3-2.5,5.9c-3.3,3.2-8.5,3.1-11.7-0.2
	c-1.5-1.5-2.3-3.5-2.3-5.7C589.3,219.6,593,216,597.5,215.9L597.5,215.9z M598.8,371.6c2.7,0,5.2,1.2,6.7,3.4v9.4
	c-1.5,2.2-4.1,3.5-6.8,3.3c-2.2,0-4.3-0.8-5.8-2.3c-1.6-1.4-2.5-3.5-2.4-5.6C590.6,375.3,594.3,371.7,598.8,371.6L598.8,371.6z
	 M600.5,307.1c1.9,0.1,3.7,0.7,5.2,1.9v12.8c-1.5,1.1-3.4,1.6-5.3,1.5c-2,0-4-0.8-5.4-2.3c-1.6-1.4-2.5-3.5-2.4-5.6
	c0-2.2,0.9-4.3,2.4-5.8C596.5,308,598.5,307.2,600.5,307.1L600.5,307.1z M598.5,447.8c1.6-2.4,4-4.1,6.8-4.8v4.9L598.5,447.8z
	 M599.5,265.5c0-4.3,2.1-6.8,6.4-7.5l-0.1,15.8C601.7,272.5,599.6,269.8,599.5,265.5L599.5,265.5z M601.2,425.3
	c0-3.7,1.5-7.2,4.2-9.7l-0.1,19.9C602.6,432.7,601.2,429.1,601.2,425.3L601.2,425.3z M604.3,295.5c0-2.3,0.5-4.7,1.5-6.8v13.9
	C604.7,300.4,604.2,298,604.3,295.5L604.3,295.5z M604.9,331.9c-0.1-1.2,0.2-2.3,0.8-3.4v7.1C605.1,334.5,604.9,333.2,604.9,331.9
	L604.9,331.9z M617.3,231c3.1-0.1,6,1.1,8.2,3.2c2.2,2.1,3.4,5,3.3,8.1c0,1.7-0.4,3.4-1.2,4.9l-20.6-0.1c-0.7-1.5-1.1-3.2-1.1-4.9
	c-0.2-6,4.6-11,10.6-11.2C616.8,231,617.1,231,617.3,231L617.3,231z M621.2,195c-5,0-9-4-9-9v-0.8l18.4,0.1v0.8
	c0,2.4-0.9,4.7-2.6,6.4C626.1,194.2,623.7,195.2,621.2,195L621.2,195z M628.3,198.8c3.7,0,7.2,1.5,9.7,4.2c2.7,2.7,4.2,6.3,4.1,10.2
	c-0.2,7.6-6.3,13.7-13.9,13.8c-3.8,0.1-7.4-1.4-10.1-4.2c-2.7-2.5-4.1-6.1-4.1-9.8c-0.1-7.8,6.2-14.1,14-14.2
	C628.1,198.8,628.2,198.8,628.3,198.8L628.3,198.8z M650.3,225.9c2.9,0.1,5.7,0.8,8.2,2.3l-0.1,19.1l-23.3-0.1
	c-0.5-1.8-0.7-3.7-0.7-5.6C634.7,233,641.7,226,650.3,225.9L650.3,225.9z M658.7,193.3c-5.2,3.2-11.8,2.9-16.7-0.6
	c-2.3-1.8-4-4.4-4.7-7.3l21.4,0.1L658.7,193.3z M658.6,219.9c-5.4,0.2-9.9-4.1-10-9.5c-0.2-5.4,4.1-9.9,9.5-10c0.2,0,0.4,0,0.6,0
	L658.6,219.9z"/>
<path class="st0" d="M791.8,185.9h3L688.3,291.6V286l100.9-100.2L791.8,185.9z M688.3,275.5l90.3-89.7h5.6l-96,95.3L688.3,275.5z
	 M688.3,265l79.8-79.2h5.6l-85.4,84.9L688.3,265z M688.3,254.5l69.3-68.8h5.6l-74.9,74.4L688.3,254.5z M752.3,185.7l-64,63.9V244
	l58.8-58.3L752.3,185.7z M688.4,233.5l48.2-47.9h5.3l-53.5,53.5L688.4,233.5z M688.4,223l37.7-37.4h5.3l-42.9,43L688.4,223z
	 M688.4,212.5l27.1-26.9h5.3l-32.4,32.5L688.4,212.5z M710.2,185.6l-21.8,22.1V202l16.7-16.5L710.2,185.6z M688.4,191.5l6-6h5.3
	l-11.3,11.6L688.4,191.5z M688.4,185.5h0.7l-0.8,1.1L688.4,185.5z M804.1,186.6L688.2,302.2v-5.6l111-110.3
	C800.9,186.3,802.5,186.4,804.1,186.6z M747.6,368v0.8l-59.8,59.4v-5.3l185.9-185c0.7,1.2,1.3,2.5,1.9,3.8L748.4,368H747.6z
	 M748,253.2l-59.8,59.4V307l59.8-59.4V253.2z M688.2,317.5l59.8-59.4v5.6l-59.9,59.4L688.2,317.5z M688.2,328l59.8-59.4v5.6
	l-59.9,59.4L688.2,328z M688.2,338.5l59.8-59.4v5.6l-59.9,59.4L688.2,338.5z M688.2,349.1l59.8-59.5v5.6l-59.8,59.4V349.1z
	 M688.2,359.6l59.9-59.4v5.6l-59.8,59.5L688.2,359.6z M802,304.4L688,417.7v-5.3l106.4-106.2c2.6-0.2,5.1-0.8,7.5-1.8L802,304.4z
	 M687.9,401.9l96-95.7h5.6L687.8,407.2L687.9,401.9z M687.9,391.4l85.4-85.2h5.6l-91.1,90.5L687.9,391.4z M687.9,380.6l74.9-74.4
	h5.3l-80.2,80L687.9,380.6z M687.9,370.1l64.4-63.9h5.3l-69.6,69.5L687.9,370.1z M687.6,433.5l59.8-59.4v5.3l-59.8,59.4L687.6,433.5
	z M687.6,448.1v-4.2l59.8-59.4v5.3l-58.7,58.3L687.6,448.1z M694,448.1l53.5-53.1v5.3l-48.2,47.8L694,448.1z M704.5,448.1l42.9-42.6
	v5.3l-37.6,37.4L704.5,448.1z M715,448.1l32.4-32.2v5.3l-27.1,26.9L715,448.1z M725.5,448.1l21.8-21.7v5.3l-16.6,16.4L725.5,448.1z
	 M736,448.1l11.3-11.2v5.3l-6,6L736,448.1z M746.5,448.1l0.8-0.7v0.8L746.5,448.1z M813.1,188.5l-59.8,59.1H748l60.6-60.2
	C810.1,187.7,811.6,188.1,813.1,188.5z M878.2,249.5L758.9,368h-5.2l123.1-122.6C877.2,246.7,877.7,248.1,878.2,249.5L878.2,249.5z
	 M821.4,190.8l-57.6,56.8h-5.3l58.3-57.9C818.4,190,819.9,190.3,821.4,190.8L821.4,190.8z M880.4,257.8l-111,110.3h-5.3l115.2-114.8
	C879.8,254.8,880.2,256.3,880.4,257.8L880.4,257.8z M826.9,193.1c0.6,0.3,1.2,0.6,1.9,0.8l-54.6,53.8H769l55.7-55.3
	C825.5,192.6,826.3,192.9,826.9,193.1L826.9,193.1z M881.8,266.8l-102,101.3h-5.3l106.5-106.2C881.6,263.5,881.9,265.2,881.8,266.8
	L881.8,266.8z M835.6,197.3l-50.8,50.5h-5.3l52.7-52.3C833.5,196.1,834.6,196.8,835.6,197.3L835.6,197.3z M882.6,276.6l-92.2,91.6
	h-5.3l97.1-96.8C882.5,273.1,882.6,274.8,882.6,276.6L882.6,276.6z M842.3,201.4l-47,46.7c-1.2-0.2-2.5-0.4-3.7-0.4h-1.5l48.9-48.6
	L842.3,201.4z M881.8,287.8l-80.5,80c-1.9,0-3.8,0.1-5.6,0.4l86.9-86.4C882.3,283.8,882.1,285.8,881.8,287.8L881.8,287.8z
	 M848.3,205.9l-44.8,44.5c-1.3-0.5-2.6-1-4.1-1.5l45.9-45.6C846.4,204.1,847.4,205,848.3,205.9z M853.9,210.8l-44,43.7
	c-1-0.9-2.2-1.6-3.4-2.3l44.4-44.1L853.9,210.8z M879.5,300.6l-65.5,65c-2,0.5-4.3,1-6.8,1.5l73.8-73.3
	C880.5,295.8,880,298.1,879.5,300.6L879.5,300.6z M859.2,216.1l-44.4,43.7c-0.6-1.1-1.3-2.1-2.2-3l44-43.7
	C857.3,214.2,858.2,215.2,859.2,216.1L859.2,216.1z M864,221.8l-45.6,45.2c-0.2-1.5-0.7-2.9-1.5-4.1l44.4-44.1
	C862.4,219.7,863.2,220.7,864,221.8L864,221.8z M871.9,234.9l-53.4,53c1-2.5,1.8-5.2,2.3-7.9l49.3-49
	C870.8,232.3,871.5,233.6,871.9,234.9L871.9,234.9z M868.1,228.1l-47.4,47.1c-0.3-1.8-0.5-3.3-0.7-4.5l45.9-46L868.1,228.1z
	 M875.3,312.9l-2.3,4.5l-42.2,41.9c-1.5,0.7-3,1.4-4.5,1.9c-1.5,0.8-3.1,1.5-4.9,2.2l55.7-55.3C876.7,309.6,876.1,311.2,875.3,312.9
	L875.3,312.9z M855.7,341.8c-3.8,3.8-8,7.3-12.4,10.5l22.6-22.4C862.9,334.1,859.5,338.1,855.7,341.8L855.7,341.8z"/>
<path class="st0" d="M1375,440.7c2.8,0,5.6,0.2,8.4,0.6c3.6,0.4,7.2,1.1,10.7,1.9c3.8,0.9,7.6,2.1,11.2,3.4
	c3.5,1.3,6.9,2.9,10.1,4.7c0.5,0.5,0.4,0.8-0.4,0.8l-18.8-0.1c-4.7-1.6-9.5-2.6-14.4-3.1c-5.4-0.5-10.6-1-15.6-1.5
	c-2.8-0.3-5.3-0.5-7.5-0.6c-2.3-0.2-4.5-0.5-6.8-1c-0.2,0-0.3-0.1-0.4-0.3c0,0,0-0.1,0-0.1l3-7.9l0.4-0.4l3,0.8
	c2.7,0.8,5.5,1.4,8.3,1.9C1369.2,440.4,1372.1,440.7,1375,440.7z M1361.1,450.7c0.6,0,1.1,0.1,1.7,0.2c0.5,0.1,1.1,0.2,1.7,0.2
	c0.2,0,0.4,0.1,0.4,0.3c0,0.2-0.1,0.4-0.3,0.4c0,0-0.1,0-0.1,0h-11.3c-0.3,0-0.4-0.1-0.4-0.4s0.1-0.4,0.4-0.4h2.6
	c0.5,0,1-0.1,1.5-0.2c0.5-0.1,1-0.2,1.5-0.2L1361.1,450.7z M1370.9,432.4c-1.3,0.2-2.4,0.4-3.4,0.5c-1.1,0.1-2.2,0.2-3.4,0.2
	c-3.5,0-5.8-0.8-6.8-2.3v-0.4l4.2-10.5l0.4-0.4c8,0,17.3,1.5,27.9,4.4c10.8,3,21.2,7,31.2,11.9l0.4,0.4l-3.4,9.7
	c0,0.3-0.3,0.4-0.8,0.4c-7.1-4.3-14.5-8-22.3-11c-7.4-2.8-13.2-4.2-17.4-4.2L1370.9,432.4z M1424.6,428.1c0,0.2-0.1,0.3-0.3,0.4
	c0,0-0.1,0-0.1,0c-9.3-5-19.2-8.8-29.4-11.4c-9.4-2.4-19-3.7-28.7-3.8h-2.3c-0.3,0-0.4-0.3-0.4-0.8l3.4-9l0.4-0.4
	c6.8,0.3,12.8,0.7,18.2,1.2c5.1,0.5,10.1,1.4,15,2.8c4.6,1.3,9.1,3,13.5,4.9c4.7,2.1,9.2,4.5,13.7,7.1v0.4L1424.6,428.1z
	 M1384.6,384.8c1.5,0,3,0.1,4.5,0.2s3.2,0.3,5.3,0.6c2.3,0.5,5.9,1.6,10.9,3.1s10.4,3.6,16.3,6s11.9,5.2,18.2,8.3s11.8,6.2,16.8,9.3
	c0.5,0.5,0.4,0.8-0.4,0.8l-22.5-0.1c-7-4.1-13.8-7.8-20.6-11s-12.2-4.8-16.5-4.9h-5.3c-1.8,0-3.5,0.1-5.3,0.4
	c-2,0.3-3.9,0.4-5.8,0.5s-4.1,0.2-6.6,0.2h-4.5c-0.2,0-0.3-0.1-0.4-0.3c0,0,0-0.1,0-0.1l4.6-12.3l0.4-0.4c2.5-0.2,4.7-0.3,6.6-0.3
	L1384.6,384.8z M1559.8,363.7h0.4c-1.3,0.8-3.3,1.8-6.2,3.2s-6.2,3-9.9,4.7c-5.8,2.8-11.7,5.6-17.7,8.6c-6,3-10.1,5.9-12.4,8.7
	c-4.5,5.3-8.3,9.8-11.2,13.7c-2.6,3.3-4.9,6.8-7,10.4l-0.4,0.4l-22.8-0.1c-5.2-4.3-12.4-8.7-21.5-13.2c-9.1-4.5-18.5-8.5-28.1-12
	c-9.6-3.6-18.7-6.5-27.2-8.8c-8.5-2.3-14.6-3.5-18.4-3.5c-0.3,0-0.4-0.1-0.4-0.4l3.4-10.1l0.4-0.4c12.1,0.4,23.9,3,35,7.8
	c10.4,4.6,20.6,9.7,30.5,15.3c5.3,2.8,10.9,5.7,16.8,8.9c6,3.1,12,6,18,8.5c1.2,0,2.4-0.1,3.6-0.4c1.2-0.2,2.4-0.3,3.6-0.4
	c1.6-1.3,3-2.8,4.3-4.4c1.6-1.9,3.2-3.8,4.6-5.7c1.4-1.8,2.7-3.7,3.8-5.7c1-1.6,1.5-3.3,1.6-5.2c0-2.4-1.1-4.6-2.8-6.2
	c-2.1-2-4.5-3.6-7.1-4.9c-2.8-1.4-5.7-2.4-8.7-3.2c-2.3-0.7-4.7-1.1-7.1-1.2c-2.4,0-4.9,0.2-7.3,0.5c-2.9,0.4-4.3,1.9-4.3,4.7
	c0,1.8,1.2,3.8,3.5,6.2s4.4,3.6,6.2,3.6c0.9-0.1,1.8-0.5,2.4-1.1c0.9-0.8,1.6-1.4,2.1-1.9s1.2-1.1,2.1-1.9c0.9-0.8,2-1.1,3.2-1.1
	c2.3,0.1,4.4,1,6,2.6c2,1.8,3,3.6,3,5.6s-0.9,4.5-2.6,7.2s-3.9,4.1-6.4,4.1c-6,0-10.7-1.2-14-3.6c-3.5-2.5-6.8-5.2-9.9-8.1
	c-1.5-1.5-3-3-4.7-4.5c-1.7-1.5-3.5-2.9-5.4-4.2c-0.5-0.2-3.4-1.1-8.6-2.7s-11.4-3.3-18.4-5.3s-14.2-4-21.6-6.1s-13.4-3.7-18.2-4.9
	c-0.3,0-0.4-0.1-0.4-0.4l3.8-9.7c0-0.3,0.1-0.4,0.4-0.4c5.3,2,11.2,4.1,17.8,6.3c6.6,2.2,13,4.1,19.3,5.9c6.3,1.8,11.8,3.2,16.5,4.4
	c3.3,0.9,6.7,1.5,10.1,1.7c2,0,3.9-0.2,5.8-0.7c1.9-0.5,3.8-1.1,5.8-1.8s3.9-1.4,5.8-2c1.9-0.6,3.8-0.9,5.8-0.9
	c5.6-0.1,11.2,1.1,16.4,3.3c4.3,1.8,8.4,3.9,12.4,6.3c4.2,2.5,7.2,3.8,9,3.8c3.8,0,10.6-2.2,20.5-6.5s20.8-9.8,32.9-16.3
	c0.2,0,0.3,0.1,0.4,0.3c0,0,0,0.1,0,0.1l2.6,7.5v0.4L1559.8,363.7z M1393,330.4c0-0.3,0.1-0.4,0.4-0.4c10.6,4.5,21.6,8,32.8,10.4
	c9.2,2.1,18.5,3.5,27.9,4c0.2,0,0.4,0.1,0.4,0.4l-4.2,10.1l-0.4,0.4c-10.7,0-21.3-1.5-31.5-4.6c-9.7-3-18.9-7.1-27.7-12.1l-0.4-0.4
	L1393,330.4z M1452.6,334.8c-19.5-0.1-38.7-4.1-56.6-11.8l-0.4-0.4l3-8.2c0-0.2,0.1-0.4,0.3-0.4c0,0,0.1,0,0.1,0
	c6.4,2.1,13,3.5,19.7,4.4c6.9,0.9,13.4,1.7,19.7,2.5l12.6,1.5c3.5,0.4,6.9,1,10.3,1.9c0.2,0,0.4,0.1,0.4,0.3c0,0,0,0,0,0.1
	l-3.8,10.1l-0.4,0.4c-0.8-0.3-1.6-0.4-2.4-0.4L1452.6,334.8z M1428.8,293c-0.7-4.3-2.3-8.4-4.6-12c-2.6-4.3-5.7-8.3-9.2-12v-0.4
	l3.8-10.1c0-0.3,0.2-0.4,0.8-0.4c3.2,2.8,6.6,5.8,10.1,9c2.7,3,4.6,6.6,5.4,10.5c0.6,3.5,1.2,6.8,1.7,9.8c0.2,2.3,0.6,4.7,1.1,6.9
	c0.5,2.1,1.6,4,3.2,5.5c2.1,1.8,4.6,3,7.3,3.6c4.4,1,9,1.5,13.5,1.4c2.4,0,4.8-0.4,7.1-1.1c0.2,0,0.3,0.1,0.4,0.3c0,0,0,0.1,0,0.1
	l-4.9,13.5l-0.4,0.4l-9.7-2.3c-4.5-1.3-9.1-2.3-13.7-3.2c-4.5-0.9-9.1-1.3-13.7-1.4c-8.5,0.1-17-1.2-25.1-3.8
	c-0.2,0-0.3-0.1-0.4-0.3c0,0,0-0.1,0-0.1l2.6-7.1c0-0.2,0.1-0.4,0.3-0.4c0,0,0.1,0,0.1,0c4.6,2.2,9.6,3.4,14.6,3.4
	c2.9,0,5.6-1.2,7.5-3.3v0.4L1428.8,293z M1414.6,282.5h0.4c1.8,0.4,3.4,1.2,4.7,2.5c1.2,1.4,1.8,3.2,1.7,5.1c0,0.3-0.1,0.5-0.2,0.8
	c-0.1,0.4-0.2,0.7-0.2,1.1v0.4l-5.6,3.3c-1.1,0-2.2-0.2-3.2-0.8c-0.9-0.5-1.7-1-2.4-1.5v-7.1L1414.6,282.5z M1470.1,260.6
	c26,0.1,44.5-8,55.6-24.2c0.5-0.5,0.8-0.4,0.8,0.4l4.1,11.6v0.4c-2.7,2.7-5.8,5.1-9,7.1c-3.3,2.1-6.8,3.9-10.5,5.2
	c-3.8,1.6-7.4,3.5-10.9,5.6c-2.9,2-6,3.7-9.2,5.2c-3.1,1.5-5.4,2.2-7,2.2c-2.5-0.1-5-0.4-7.5-0.8c-3.8-0.5-7.8-1.2-12.2-1.9
	l-12.1-2.1c-2.5-0.3-5-0.9-7.5-1.7c-3.1-1.3-6.1-2.8-9-4.5c-4.5-2.5-9.5-5.5-15-9.1v-0.4l3.4-10.1c0-0.2,0.3-0.4,0.8-0.4
	c6.7,4.3,13.6,8.3,20.6,11.9C1452.4,258.7,1460.6,260.5,1470.1,260.6z M1472.4,253.8c-8.8,0.1-17.5-1.4-25.7-4.4
	c-7.4-2.8-14.2-6.9-20-12.3v-0.4l3.8-11.2c0-0.8,0.3-0.9,0.8-0.4c4.8,5.7,10.9,10.1,17.8,12.9c7.2,3,14.9,4.5,22.7,4.5
	c9,0,17.9-2.7,26.7-8.1c8.3-4.9,15.1-12.1,19.6-20.7c0-0.2,0.2-0.4,0.4-0.4s0.4,0.2,0.4,0.4c0,0,0,0,0,0l4.1,12v0.4
	c-5.6,8.3-13.1,15.1-21.8,20C1492.3,251.2,1482.4,253.9,1472.4,253.8L1472.4,253.8z M1509.4,189.1l0.4,0.4l4.4,13.1
	c-1.2,4.7-3.5,9-6.6,12.7c-3.1,3.7-6.7,7-10.7,9.7c-4,2.8-8.5,4.9-13.1,6.3c-4.5,1.4-9.2,2.2-13.9,2.2c-11.5,0-19.8-1.9-24.7-5.7
	c-4.9-3.6-8.5-8.6-10.4-14.3l5.3-14.6c0-0.2,0.1-0.3,0.3-0.4c0,0,0.1,0,0.1,0c0.3,0,0.4,0.1,0.4,0.4c3.2,6.2,7.6,11.7,12.9,16.2
	c5,4.2,11.3,6.5,17.8,6.4c8.4,0.1,16.6-2.7,23.1-8c6.7-5.3,10-12.5,10-21.5v-2.6c0-0.2,0.1-0.3,0.3-0.4c0,0,0.1,0,0.1,0
	L1509.4,189.1z M1448.3,277c1.2,0.2,2.4,0.8,3.4,1.5c1,0.8,1.9,1.6,2.6,2.6c0.9,0.9,1.8,1.7,2.8,2.4c0.8,0.7,1.8,1.2,2.8,1.3
	c1-0.2,2-0.6,2.8-1.1c1.4-0.8,2.7-1.5,3.9-2.2c1.1-0.4,2.1-0.9,3-1.5c0.5-0.4,1.2-0.7,1.9-0.7c2.4-0.1,4.8,0.8,6.4,2.6v2.3
	c0,0.2-0.1,0.3-0.3,0.4c0,0-0.1,0-0.1,0c-0.2,0-0.3-0.1-0.4-0.3c0,0,0-0.1,0-0.1l-0.4-1.5l-4.5,11.6c-4.2,2.5-9,3.8-13.9,3.7
	c-5.3,0-9.1-1.8-11.6-5.3c-2.6-3.7-4.1-7.9-4.4-12.4l0.4-0.4L1448.3,277z M1474.5,202.1c3,0.1,5.7-1.6,7-4.3
	c1.5-2.6,2.5-5.4,2.8-8.4c0-0.2,0.1-0.3,0.3-0.4c0,0,0.1,0,0.1,0h11.3c0.2,0,0.4,0.1,0.4,0.3c0,0,0,0,0,0.1
	c-0.2,6.4-2.6,12.5-6.8,17.2c-3.9,4.8-9.9,7.6-16.2,7.4c-6.5,0-12.6-2.8-17-7.6c-4.9-5-8.7-10.9-11.4-17.3c0-0.2,0.1-0.3,0.3-0.4
	c0,0,0.1,0,0.1,0h10.5l0.4,0.4c2,3.5,4.7,6.6,8,9C1467.1,200.6,1470.7,201.9,1474.5,202.1L1474.5,202.1z M1469.2,190.1
	c-0.8,0-1.5-0.1-2.3-0.4c-0.3,0-0.4-0.1-0.4-0.4c0-0.2,0.1-0.4,0.3-0.4c0,0,0.1,0,0.1,0h4.5c0.2,0,0.4,0.1,0.4,0.3
	c0,0.2-0.1,0.4-0.3,0.4c0,0-0.1,0-0.1,0C1470.8,190,1470,190.1,1469.2,190.1L1469.2,190.1z M1518.9,266.4c0,0.2,0.1,0.3,0.3,0.4
	c0,0,0.1,0,0.1,0h0.8l0.4,0.4l1.9,4.5c-1.4,2-3,3.8-4.9,5.4c-2.5,2.4-5.5,5.2-9,8.4c-3.5,3.2-7.3,6.6-11.5,10.1
	c-4.2,3.5-8.1,6.7-11.9,9.7c-0.5,0-0.8-0.1-0.8-0.4l-3-9v-0.4c1.3-1.5,2.6-3,4.1-4.5c1.5-1.5,2.9-3.1,4.1-4.9
	c3.9-4.8,8.1-9.4,12.6-13.7c4.4-4.1,10.3-6.3,16.3-6.1L1518.9,266.4z M1509.2,345.1c-3.9-0.1-7.7-0.9-11.3-2.3l-0.4-0.4l-10.8-30.8
	v-0.4c2.6-2.6,5.5-5,8.5-7.1c3.2-2.3,6.6-4.4,10-6.3c3.8-2.5,7.3-5,10.7-7.5c3-2.1,5.7-4.6,8.1-7.5c1.7-2.5,3.2-5.1,4.5-7.9
	c2-4,4-8.5,6-13.5c0-0.2,0.2-0.4,0.4-0.4s0.4,0.2,0.4,0.4l4.1,11.6c-1.3,3-2.5,6.2-3.4,9.4c-1.8,6-4.7,10.4-8.8,13.3
	c-4.3,2.9-8.7,5.6-13.3,8c-4,2-7.8,4.3-11.5,6.9c-3.7,2.7-6.8,6-9.2,9.9v1.9c-0.2,3.9,1.6,7.7,4.8,10c3.3,2.4,7.2,3.7,11.3,3.6
	c7,0,13.9-1.8,20.1-5c6.4-3.2,12.4-6.9,18.2-11l6.8-4.1c0.2,0,0.3,0.1,0.4,0.3c0,0,0,0.1,0,0.1l3.3,10.2l-0.4,0.4
	c-9,4.8-18.3,9-27.8,12.8C1520.9,343.4,1514,345.1,1509.2,345.1L1509.2,345.1z M1501.8,355.6l-1.1-3.8c0-0.2,0.1-0.4,0.3-0.4
	c0,0,0.1,0,0.1,0c1.5,0.3,3,0.5,4.7,0.6s3.4,0.2,5.4,0.2c5,0,12-1.7,20.8-5c9.7-3.7,19.2-8.2,28.4-13.2c0.2,0,0.4,0.1,0.4,0.3
	c0,0,0,0.1,0,0.1l3.3,9.8l-0.4,0.4c-8.9,5.3-18.2,9.9-27.8,13.8c-8.8,3.5-15.5,5.2-20.3,5.2c-3.8-0.1-7.5-0.9-11-2.3
	c-3.9-1.5-7.4-2.9-10.7-4.2c-0.4,0-0.8-0.1-1.1-0.4c-0.3,0-0.6-0.1-0.8-0.4c-0.2,0-0.3-0.1-0.4-0.3c0,0,0-0.1,0-0.1
	c0-0.3,0.1-0.4,0.4-0.4L1501.8,355.6z M1523.6,308.8c4.6-0.1,8.5,3.5,8.6,8.1c0,0.2,0,0.4,0,0.6c-0.1,1.4-0.6,2.7-1.5,3.7
	c-0.8,1.1-2,1.8-3.4,1.9c-4.3,0-7.2,0.4-8.8,1.3c-1.5,0.8-3,1.7-4.3,2.8c-0.8,0.5-1.4,0.9-2.1,1.3c-0.9,0.4-1.8,0.6-2.8,0.5
	c-1.6-0.1-3.2-0.7-4.3-1.9c-1.3-1.1-2.2-2.5-2.8-4.1c0.1-2,1-3.8,2.4-5.1c1.8-1.7,3.8-3.3,6-4.5c2.3-1.3,4.7-2.4,7.1-3.3
	C1519.6,309.3,1521.6,308.9,1523.6,308.8L1523.6,308.8z M1506,413.4c-0.3,0-0.4-0.4-0.4-1.1c2.1-3.4,4.5-6.6,7-9.7
	c2.7-3.3,5.7-6.5,8.8-9.3c2.6-2.5,5.6-4.5,8.8-6.2c3.9-2.1,7.4-4,10.7-5.8l8.3-4.5h-0.4l22.2-12.3c0.5,0,0.7,0.1,0.7,0.4l4.5,12.8
	l-0.4,0.4c-2.1,1.3-4.4,2.4-6.8,3.2c-2.5,0.9-5.1,1.9-7.9,3.2c-7.8,3-15.4,6.4-22.7,10.2c-7.9,4.1-14.7,10.4-20.5,18.9L1506,413.4z
	 M1524.7,420.5v-0.4c6-9.5,13.8-17.7,23-24.1c9-6.4,19.5-10.7,30.4-12.4l0.4,0.4l3.7,10.8c0,0.3-0.1,0.4-0.4,0.4
	c-10.9,1.3-21.2,5.4-29.9,12.1c-9,6.6-16.6,15-22.4,24.5c0,0.2-0.1,0.4-0.3,0.4c0,0,0,0-0.1,0c-0.2,0-0.3-0.1-0.4-0.3
	c0,0,0-0.1,0-0.1L1524.7,420.5z M1533.2,444.2c4.3-10.7,11.4-20.1,20.5-27.1c9-7.2,19.7-12,31-14l0.4,0.4l3.7,10.9
	c0,0.2-0.1,0.4-0.3,0.4c0,0-0.1,0-0.1,0c-5.1,0.8-10.1,2.2-14.8,4.4c-4.8,2.2-9.4,5-13.5,8.3c-4.1,3.3-7.8,7.1-11.1,11.3
	c-3.2,4-5.6,8.5-7.2,13.3l-0.4,0.4h-4.9l-0.4-0.4L1533.2,444.2z M1540.5,296.5c2,0,4.1,1,6.2,2.8s3.2,3.8,3.2,5.8
	c0.1,2.1-0.7,4.1-2.1,5.6c-1.4,1.5-3.4,2.3-5.4,2.2c-1.8,0-3.6-1.3-5.4-3.8s-2.8-4.6-2.8-6.4c0.1-1.6,0.7-3.2,1.9-4.3
	C1537.1,297.2,1538.8,296.4,1540.5,296.5L1540.5,296.5z M1551.6,452.6c-0.2,0-0.4-0.1-0.4-0.3c0,0,0-0.1,0-0.1
	c3.2-8.2,8.9-15.1,16.2-20c7.4-5,15.9-8,24.8-8.7l0.4,0.4l3.3,10.1c0,0.2-0.1,0.3-0.3,0.4c0,0-0.1,0-0.1,0
	c-6.2,0.5-12.2,2.4-17.5,5.6c-5.3,3.2-9.9,7.5-13.4,12.7L1551.6,452.6z M1602.6,452.3c0,0.2-0.1,0.4-0.3,0.4c0,0,0,0-0.1,0
	l-24.4-0.1c-0.8,0-0.9-0.3-0.4-0.8c5-4.5,10.4-6.7,16.2-6.7c1,0,2,0.1,3,0.2c1,0.1,2.1,0.3,3.4,0.6l0.4,0.4L1602.6,452.3z"/>
<path class="st0" d="M496.6,0.6v8.6h-7.3v27.9h-9.2V9.2h-7.3V0.6H496.6z"/>
<path class="st0" d="M504.5,28.4c0.7,0,1.4-0.1,2-0.5c0.7-0.4,1.4-1,1.8-1.7l3.4-5.5L499.2,0.6h10.2l7.3,11.9l7.3-11.9h10.2
	l-18.5,30.1l0,0c-1,2.1-2.7,3.9-4.7,5c-2,1-4.3,1.5-6.5,1.5L504.5,28.4z"/>
<path class="st0" d="M545.1,25.9v11.1h-8.3V0.6h14.3c1.7,0,3.4,0.3,4.9,1c3,1.3,5.5,3.7,6.8,6.7c1.3,3.2,1.3,6.7,0,9.9
	c-1.3,3-3.7,5.5-6.8,6.7c-1.6,0.7-3.2,1-4.9,1L545.1,25.9z M545.1,17.3h6c2.2,0,4.1-1.8,4.1-4.1c0-2.2-1.8-4.1-4.1-4.1h-6V17.3z"/>
<path class="st0" d="M582.1,14.6c2.4-0.1,4.8,0.5,6.8,1.7c1.7,1,3.1,2.4,4.1,4.2c1.8,3.4,1.8,7.5,0,10.8c-1,1.7-2.4,3.2-4.1,4.2
	c-2.1,1.2-4.5,1.8-6.8,1.7h-14.3V0.6h24.1v8.6h-14.9v5.4L582.1,14.6z M577,28.5h5.2c1.1,0.1,2.2-0.3,3-1.1c0.6-0.6,1-1.5,1-2.4
	c0-0.9-0.4-1.8-1-2.4c-0.8-0.8-1.9-1.2-3-1.1H577V28.5z"/>
<path class="st0" d="M630.1,37.1H621v-20c-0.8,1.5-1.6,3.1-2.6,4.8s-1.9,3.5-2.9,5.2s-2,3.5-3.1,5.2s-2,3.3-2.9,4.7h-9.1V0.6h9.1
	v20.1c0.8-1.5,1.6-3.1,2.6-4.9s1.9-3.5,2.9-5.3s2-3.5,3.1-5.2s2-3.3,3-4.7h9.1V37.1z"/>
<path class="st0" d="M635.3,11.3c0-1.7,0.3-3.4,1.1-4.9c0.7-1.4,1.7-2.5,2.9-3.5c1.2-0.9,2.5-1.6,4-2.1c1.4-0.4,2.9-0.7,4.3-0.7
	c1.5,0,2.9,0.2,4.3,0.6c1.4,0.4,2.8,1,4,1.9c1.2,0.9,2.2,2,2.9,3.2c0.8,1.4,1.2,3.1,1.1,4.7c0.1,1.8-0.3,3.6-1,5.2
	c-0.8,1.5-2.1,2.6-3.7,3c1.6,0.5,2.9,1.5,3.7,3c0.8,1.6,1.1,3.4,1,5.2c0,1.6-0.3,3.2-1.1,4.7c-0.7,1.3-1.7,2.4-2.9,3.2
	c-1.2,0.9-2.6,1.5-4,1.9c-1.4,0.4-2.9,0.6-4.3,0.6c-1.5,0-2.9-0.2-4.3-0.7c-1.4-0.4-2.8-1.1-4-2.1c-1.2-1-2.2-2.1-2.9-3.5
	c-0.8-1.5-1.2-3.2-1.1-4.9h9c-0.1,1,0.3,2,0.9,2.7c0.5,0.6,1.2,0.9,2,1c0.7,0,1.5-0.2,2-0.7c0.7-0.6,1-1.5,0.9-2.4
	c0-0.8-0.1-1.7-0.2-2.5c-0.1-0.6-0.5-1.1-0.9-1.5c-0.6-0.4-1.2-0.7-2-0.8c-1.1-0.2-2.2-0.2-3.3-0.2v-6.1c1.1,0,2.2,0,3.3-0.2
	c0.7-0.1,1.4-0.3,2-0.8c0.5-0.4,0.8-0.9,0.9-1.5c0.2-0.8,0.3-1.6,0.2-2.5c0.1-0.9-0.3-1.8-0.9-2.4c-0.5-0.5-1.3-0.8-2-0.8
	c-0.8,0.1-1.5,0.4-2,1c-0.7,0.7-1,1.7-0.9,2.7L635.3,11.3z"/>
<path class="st0" d="M681.6,22.1h-7.3v15h-9.1V0.6h9.1v12.8h7.3L681.6,22.1z M681.6,13.4h1.5V0.6h9.1v36.5h-9.1v-15h-1.6L681.6,13.4
	z"/>
<path class="st0" d="M698.4,0.6h25.7v8.6h-16.6v5.4h10.2v8.6h-10.2v5.4h16.6v8.5h-25.7V0.6z"/>
<path class="st0" d="M743.3,0.2c1.6,0,3.2,0.2,4.8,0.5c1.5,0.3,2.9,0.9,4.2,1.7c1.3,0.8,2.5,1.8,3.4,3c1.1,1.4,1.9,2.9,2.4,4.6
	l-9.7,2c-0.4-1.2-1.3-2.1-2.3-2.7c-1-0.5-2.1-0.8-3.2-0.8c-0.9,0-1.7,0.2-2.6,0.5c-0.8,0.3-1.6,0.9-2.1,1.7c-0.7,1-1.1,2.1-1.4,3.2
	c-0.7,3.4-0.7,6.9,0,10.2c0.3,1.1,0.7,2.2,1.4,3.2c0.5,0.7,1.2,1.3,2.1,1.7c0.8,0.3,1.7,0.5,2.6,0.5c1.1,0,2.2-0.2,3.2-0.8
	c1.1-0.6,1.9-1.6,2.3-2.7l9.8,2.2c-0.5,1.7-1.4,3.2-2.4,4.6c-1,1.2-2.1,2.2-3.4,3.1c-1.3,0.8-2.7,1.4-4.2,1.7
	c-1.6,0.3-3.2,0.5-4.8,0.5c-2.1,0-4.2-0.3-6.3-0.9c-1.9-0.6-3.7-1.7-5.1-3.2c-1.6-1.7-2.8-3.6-3.5-5.8c-1.7-5.9-1.7-12.1,0-17.9
	c0.7-2.2,1.9-4.2,3.5-5.9c1.4-1.5,3.2-2.5,5.1-3.1C739,0.5,741.1,0.2,743.3,0.2z"/>
<path class="st0" d="M796.3,22.1H789v15h-9.1V0.6h9.1v12.8h7.3V22.1z M796.3,13.4h1.6V0.6h9.1v36.5h-9.1v-15h-1.6V13.4z"/>
<path class="st0" d="M823.1,0.6h9.1l13,36.5h-9.1l-2-5.5h-12.9l-1.9,5.5h-9.1L823.1,0.6z M831.3,23.8l-3.6-10.3L824,23.8H831.3z"/>
<path class="st0" d="M876.7,0c2.1,0,4.3,0.3,6.3,1c1.9,0.6,3.7,1.7,5.1,3.2c1.6,1.7,2.7,3.7,3.5,5.8c1.7,5.8,1.7,12,0,17.8
	c-0.7,2.2-1.9,4.2-3.5,5.8c-1.4,1.5-3.2,2.5-5.1,3.2c-2,0.6-4.1,1-6.3,1c-2.1,0-4.2-0.3-6.3-0.9c-2-0.6-3.7-1.7-5.1-3.2
	c-1.6-1.7-2.8-3.7-3.5-5.8c-1.7-5.9-1.7-12.1,0-17.9c0.7-2.2,1.9-4.2,3.5-5.8c1.4-1.5,3.2-2.5,5.1-3.1C872.5,0.3,874.6,0,876.7,0z
	 M876.3,8.4c-0.9,0-1.7,0.1-2.6,0.5c-0.8,0.3-1.6,0.9-2.1,1.7c-0.7,1-1.1,2.1-1.4,3.2c-0.7,3.4-0.7,6.9,0,10.2
	c0.3,1.1,0.7,2.2,1.4,3.2c0.5,0.7,1.2,1.3,2.1,1.7c1.6,0.6,3.5,0.6,5.1,0c0.8-0.4,1.6-0.9,2.1-1.7c0.7-1,1.2-2.1,1.4-3.2
	c0.7-3.4,0.7-6.9,0-10.2c-0.3-1.2-0.7-2.3-1.4-3.2c-0.5-0.7-1.3-1.3-2.1-1.7C878.1,8.5,877.2,8.4,876.3,8.4L876.3,8.4z"/>
<path class="st0" d="M912.5,0c1.6,0,3.2,0.2,4.8,0.5c1.5,0.3,2.9,0.9,4.2,1.7c1.3,0.8,2.5,1.8,3.4,3c1.1,1.4,1.9,2.9,2.4,4.6l-9.7,2
	c-0.4-1.2-1.3-2.1-2.3-2.7c-1-0.5-2.1-0.8-3.2-0.8c-0.9,0-1.7,0.1-2.6,0.5c-0.8,0.3-1.6,0.9-2.1,1.7c-0.7,1-1.1,2.1-1.4,3.2
	c-0.7,3.4-0.7,6.9,0,10.2c0.3,1.2,0.7,2.2,1.4,3.2c0.5,0.7,1.3,1.3,2.1,1.7c0.8,0.3,1.7,0.5,2.6,0.5c1.1,0,2.2-0.3,3.2-0.8
	c1.1-0.6,1.9-1.6,2.3-2.7l9.8,2.1c-0.5,1.7-1.4,3.2-2.4,4.6c-1.9,2.4-4.6,4.1-7.6,4.7c-1.6,0.4-3.2,0.5-4.8,0.5
	c-2.1,0-4.2-0.3-6.3-0.9c-1.9-0.6-3.7-1.7-5.1-3.2c-1.6-1.7-2.8-3.7-3.5-5.8c-1.7-5.9-1.7-12.1,0-17.9c0.7-2.2,1.9-4.2,3.5-5.8
	c1.4-1.5,3.2-2.5,5.1-3.1C908.3,0.3,910.4,0,912.5,0z"/>
<path class="st0" d="M953.6,0.6v8.6h-7.3v27.9h-9.2V9.2h-7.3V0.6H953.6z"/>
<path class="st0" d="M966,25.9v11.1h-8.3V0.6h14.4c1.7,0,3.4,0.3,4.9,1c1.5,0.6,2.9,1.6,4,2.7c1.1,1.2,2.1,2.5,2.7,4
	c1.3,3.2,1.3,6.7,0,9.9c-0.6,1.5-1.6,2.8-2.7,4c-1.1,1.1-2.5,2.1-4,2.7c-1.6,0.7-3.2,1-4.9,1L966,25.9z M966,17.3h6
	c2.2,0,4.1-1.8,4.1-4.1c0-2.2-1.8-4.1-4.1-4.1h-6V17.3z"/>
<path class="st0" d="M1002.8,0c2.1,0,4.3,0.3,6.3,1c1.9,0.6,3.7,1.7,5.1,3.2c1.6,1.7,2.7,3.7,3.5,5.8c1.7,5.8,1.7,12,0,17.8
	c-0.7,2.2-1.9,4.2-3.5,5.8c-1.4,1.5-3.2,2.6-5.1,3.2c-2,0.6-4.1,1-6.3,1c-2.1,0-4.2-0.3-6.3-0.9c-2-0.6-3.7-1.7-5.1-3.2
	c-1.6-1.7-2.8-3.7-3.5-5.8c-1.7-5.9-1.7-12.1,0-17.9c0.7-2.2,1.9-4.2,3.5-5.8c1.4-1.5,3.2-2.5,5.1-3.1C998.5,0.3,1000.7,0,1002.8,0z
	 M1002.4,8.4c-0.9,0-1.7,0.1-2.6,0.5c-0.8,0.3-1.6,0.9-2.1,1.7c-0.7,1-1.1,2.1-1.4,3.2c-0.7,3.4-0.7,6.9,0,10.2
	c0.3,1.1,0.7,2.2,1.4,3.2c0.5,0.7,1.2,1.3,2.1,1.7c1.6,0.6,3.5,0.6,5.1,0c0.8-0.4,1.6-0.9,2.1-1.7c0.7-1,1.2-2.1,1.4-3.2
	c0.7-3.4,0.7-6.9,0-10.2c-0.3-1.2-0.7-2.3-1.4-3.2c-0.5-0.7-1.3-1.3-2.1-1.7C1004.1,8.5,1003.2,8.4,1002.4,8.4L1002.4,8.4z"/>
<path class="st0" d="M1023,0.6h15.6c1.4,0,2.7,0.2,4.1,0.6c1.3,0.4,2.4,1,3.5,1.8c1,0.8,1.8,1.8,2.4,3c0.6,1.3,0.9,2.7,0.9,4.1
	c0,1.9-0.5,3.7-1.6,5.3c-1.1,1.5-2.6,2.8-4.3,3.5c1.7,0.8,3.2,2,4.3,3.5c1.1,1.5,1.6,3.4,1.6,5.3c0,1.4-0.3,2.8-0.9,4.1
	c-0.6,1.2-1.4,2.2-2.4,3c-1,0.8-2.2,1.4-3.5,1.8c-1.3,0.4-2.7,0.6-4.1,0.6H1023V0.6z M1032.1,9.2v6h5.8c0.7,0,1.5-0.3,1.9-0.9
	c0.5-0.6,0.7-1.3,0.7-2.1c0-0.7-0.3-1.5-0.7-2.1c-0.4-0.6-1.2-1-1.9-1L1032.1,9.2z M1037.9,22.5h-5.8v6.1h5.8c0.8,0,1.5-0.4,1.9-1
	c0.5-0.6,0.7-1.3,0.7-2.1c0-0.7-0.3-1.5-0.7-2C1039.4,22.8,1038.7,22.4,1037.9,22.5L1037.9,22.5z"/>
<path class="st0" d="M1064.3,0.6h9.1l13,36.5h-9.1l-2-5.5h-12.9l-1.9,5.5h-9.1L1064.3,0.6z M1072.5,23.8l-3.7-10.3l-3.6,10.3H1072.5
	z"/>
<path class="st0" d="M1110.5,0.6h10.2l-10,16.3l12.4,20.2H1113l-7.3-11.9l-7.3,11.9h-10.2l12.5-20.2l-10-16.3h10.2l4.9,8L1110.5,0.6
	z"/>
<path class="st0" d="M1154.5,187.1l112.5,0.4c9.9,0,19.8,1.5,29.2,4.4c9.1,2.7,17.6,7.1,25.1,13c7.3,5.8,13.2,13.1,17.4,21.4
	c4.3,8.5,6.5,18.3,6.5,29.3c0.1,13.6-4,26.9-11.8,38c-7.8,11.1-18.4,19.9-30.8,25.3c12.4,5.5,23,14.3,30.7,25.4
	c7.7,11.2,11.7,24.5,11.5,38.1c0,11-2.2,20.8-6.7,29.2c-4.2,8.3-10.2,15.6-17.5,21.3c-7.5,5.8-16,10.2-25.2,12.8
	c-9.5,2.8-19.4,4.3-29.3,4.2l-112.5-0.4L1154.5,187.1z M1220,249.3l-0.2,43.1l41.6,0.1c5.4,0.2,10.6-2.2,13.9-6.5
	c3.4-4.2,5.3-9.4,5.3-14.8c0-5.4-1.9-10.6-5.2-14.8c-3.2-4.5-8.4-7.1-13.9-7L1220,249.3z M1261.3,344.7l-41.6-0.1l-0.2,43.9
	l41.6,0.1c5.5,0.2,10.7-2.4,13.9-6.9c7-8.6,7.1-21,0.1-29.6c-3.2-4.5-8.4-7.1-13.8-7V344.7z"/>
<g>
	<defs>
		<path id="SVGID_1_" d="M1154.5,187.1l112.5,0.4c9.9,0,19.8,1.5,29.2,4.4c9.1,2.7,17.6,7.1,25.1,13c7.3,5.8,13.2,13.1,17.4,21.4
			c4.3,8.5,6.5,18.3,6.5,29.3c0.1,13.6-4,26.9-11.8,38c-7.8,11.1-18.4,19.9-30.8,25.3c12.4,5.5,23,14.3,30.7,25.4
			c7.7,11.2,11.7,24.5,11.5,38.1c0,11-2.2,20.8-6.7,29.2c-4.2,8.3-10.2,15.6-17.5,21.3c-7.5,5.8-16,10.2-25.2,12.8
			c-9.5,2.8-19.4,4.3-29.3,4.2l-112.5-0.4L1154.5,187.1z M1220,249.3l-0.2,43.1l41.6,0.1c5.4,0.2,10.6-2.2,13.9-6.5
			c3.4-4.2,5.3-9.4,5.3-14.8c0-5.4-1.9-10.6-5.2-14.8c-3.2-4.5-8.4-7.1-13.9-7L1220,249.3z M1261.3,344.7l-41.6-0.1l-0.2,43.9
			l41.6,0.1c5.5,0.2,10.7-2.4,13.9-6.9c7-8.6,7.1-21,0.1-29.6c-3.2-4.5-8.4-7.1-13.8-7V344.7z"/>
	</defs>
	<clipPath id="SVGID_2_">
		<use xlink:href="#SVGID_1_"  style="overflow:visible;"/>
	</clipPath>
	<g class="st1">
		<g id="_7Ul0tJ">
			<path class="st2" d="M1153.6,214.1c0.4,0.1,0.8,0.3,1.2,0.4c4,1.2,8.5,5.3,8.5,7.7s-5.3,6.2-9.6,6.8V214.1z"/>
			<path class="st2" d="M1153.6,257c4.8-0.3,6.9,3.5,9.4,6.5c0.2,0.9,0,1.8-0.6,2.5c-2.9,2.1-5.9,3.9-8.9,5.8V257z"/>
			<path class="st2" d="M1153.6,300c0.3,0.1,0.5,0.2,0.8,0.3c4.4,1.2,8.8,5.2,8.8,7.9c0,2.3-5.3,6-9.6,6.7L1153.6,300z"/>
			<path class="st2" d="M1153.6,429.8c4.8-0.2,6.9,3.5,9.5,6.5c0.4,0.8,0.3,1.8-0.2,2.5c-3,2.1-6.2,3.9-9.3,5.9V429.8z"/>
			<path class="st2" d="M1153.6,343.8c4.7-0.1,7,3.5,9.4,6.6c0.4,0.5,0.3,2.2-0.1,2.5c-3,2.1-6.2,3.9-9.3,5.8V343.8z"/>
			<path class="st2" d="M1153.6,386.8c4.1,0.2,8.9,3.3,9.6,6.7c0.2,0.9-1.1,2-1.7,3c-1.8,2.9-4.3,4.6-7.8,4.4V386.8z"/>
			<path class="st2" d="M1231.1,332.3l-5.1,2.8c0.8-3.2,2.9-5.9-1.2-8.5c0.4-0.2,0.8-0.4,1.2-0.7l4.3,2.2c2.9-1.8,5.5-3.9,8.4-5
				c5.3-1.8,11.1,1,13.1,6.3c0.1,1-0.3,1.9-0.9,2.7C1244.5,339,1237.4,339.1,1231.1,332.3z"/>
			<path class="st2" d="M1367,328c3.1-1.8,5.8-4,8.9-5.1c5.1-1.7,11.6,1.8,12.8,6.6c0.2,0.8-0.8,2.1-1.6,2.9
				c-6.7,6.5-12.8,6.4-19.3-0.1l-5.1,2.7c0.8-3.2,2.7-5.8-1-8.4c0.3-0.2,0.6-0.5,0.9-0.8L1367,328z"/>
			<path class="st2" d="M1299.4,332.4l-5.3,2.6c1.1-3.2,2.8-5.8-0.9-8.5l0.9-0.7l4.6,2.1c2.8-1.7,5.5-3.9,8.5-5
				c5.4-1.7,11.1,1.2,13,6.4c0.2,0.7-0.4,1.9-1,2.5C1312.5,338.9,1306.1,339.1,1299.4,332.4z"/>
			<path class="st2" d="M1265.3,332.3l-5.1,2.7c1-3.2,2.7-5.8-1.1-8.4l1-0.7l4.5,2.2c2.8-1.7,5.3-3.9,8.3-5
				c5.4-1.9,11.3,0.9,13.3,6.3c0.2,0.7-0.8,2.1-1.6,2.9C1277.9,338.9,1271.9,338.8,1265.3,332.3z"/>
			<path class="st2" d="M1382.4,309.8l-4.8,2.6c0.2-3,0.3-5.6,0.4-8.5l4,1.9c2.2-1.5,4.4-3.6,7-4.8c5.6-2.4,12.1,0.2,14.5,5.8
				c0,0,0,0.1,0,0.1c0.2,0.8,0.1,1.6-0.4,2.2C1395.9,317.7,1387.7,315.6,1382.4,309.8z"/>
			<path class="st2" d="M1245.8,223.8l-5.1,2.9l-0.6-0.6c0.6-1.2,1.7-2.5,1.8-3.7s-0.9-2.7-1.8-5.1l5.9,3c2.3-3.8,6.4-6.1,10.8-6
				c4.3,0,9.1,3.5,9.8,7.2c0.1,0.8-0.9,1.9-1.6,2.7C1258.8,230.6,1251.7,230.5,1245.8,223.8z"/>
			<path class="st2" d="M1197.1,418l-5.1,2.8c0.9-3.2,2.6-5.8-1-8.4c0.3-0.2,0.6-0.4,0.9-0.7c1.7,0.9,3.3,1.7,4.1,2.1
				c3.8-1.9,7-4.3,10.6-5.2c4.6-1.2,10.2,2.5,11.3,6.8c0.2,0.7-0.8,2-1.6,2.7C1210.2,424.9,1202.9,424.7,1197.1,418z"/>
			<path class="st2" d="M1157.6,335c1.2-3.3,3-5.9-1.2-8.6l1.2-0.6l4.7,2.3c2.8-1.7,5.3-3.8,8.2-4.9c5.4-1.8,11.3,0.9,13.4,6.3
				c0.2,0.9-0.1,1.9-0.7,2.6c-7.3,7-12.9,7.1-20.3,0.5L1157.6,335z"/>
			<path class="st2" d="M1177.6,223.9l-5,2.8c1.1-3.3,2.7-5.9-1.2-8.5l1.1-0.7l4.6,2.3c2.6-1.7,4.9-3.8,7.8-4.9
				c5.2-2.1,11.2,0.4,13.3,5.6c0.1,0.1,0.1,0.3,0.2,0.4c0.3,0.7-0.4,1.9-0.9,2.7C1193,230.9,1183,230.2,1177.6,223.9z"/>
			<path class="st2" d="M1211.6,309.9l-5.1,2.7c1.3-3.2,2.7-5.8-0.8-8.5l0.8-0.7c1.7,0.8,3.3,1.6,5.3,2.6c2.6-3.6,6.3-6.1,11.4-5.9
				c3.8,0.2,8.8,3.8,9.6,7c0.2,0.6-0.5,1.5-0.9,2.2C1225.9,317.7,1216.7,315.4,1211.6,309.9z"/>
			<path class="st2" d="M1177.7,309.7c-2,1-3.6,1.9-5.3,2.8c1.3-3.3,3-5.9-1.3-8.7c0.5-0.2,0.9-0.4,1.4-0.6c1.7,0.9,3.4,1.8,5.2,2.8
				c2.3-3.8,6.4-6,10.9-6c4.1,0,8.8,3.1,9.9,6.8c0.1,0.9-0.2,1.8-0.8,2.5C1192,316.5,1184.1,316.7,1177.7,309.7z"/>
			<path class="st2" d="M1382.6,220.2c2.1-3.5,5.9-5.8,10-6c4.5-0.3,9.3,2.7,10.6,6.8c0.2,0.7-0.4,1.9-1.1,2.6
				c-6.3,7-13.2,7-19.7,0.3l-5,2.7c1-3.2,2.7-5.7-1-8.2c0.3-0.3,0.6-0.5,1-0.8C1379,218.4,1380.7,219.2,1382.6,220.2z"/>
			<path class="st2" d="M1367.9,245.3c-1.9,1-3.6,1.9-5.3,2.8c1.6-3.3,2.3-5.9,0-9.2l4.6,2.4c2.5-1.7,4.7-3.7,7.4-4.8
				c5.4-2.3,11.5,0.2,13.8,5.6c0,0.1,0.1,0.2,0.1,0.3c0.3,0.7-0.7,2.2-1.5,3C1380.9,252,1373.8,251.9,1367.9,245.3z"/>
			<path class="st2" d="M1197,332.2c-1.7,1-3.4,1.9-5.1,2.8c0.9-3.2,2.7-5.8-0.9-8.4l0.9-0.7l4.6,2.2c2.7-1.7,5.1-3.9,8-5
				c5.4-2,11.4,0.8,13.4,6.2c0.2,0.7-0.7,2-1.4,2.8C1210.1,338.9,1203,338.9,1197,332.2z"/>
			<path class="st2" d="M1367.8,418.1c-1.9,1-3.5,1.9-5.1,2.7c1.1-3.2,2.6-5.8-1.1-8.4l1-0.7l4.6,2.3c2.8-1.7,5.4-4,8.5-5.1
				c5.2-1.9,11.7,1.5,13,6.4c0.2,0.7-0.5,1.7-1,2.4C1382.1,424.9,1374.3,424.9,1367.8,418.1z"/>
			<path class="st2" d="M1280,395.8l-5.3,2.9c1.2-3.2,2.6-5.7-0.8-8.3c0.3-0.3,0.6-0.5,0.9-0.8l5.1,2.8l-0.7-0.8
				c3.5-1.8,6.8-4.2,10.6-5.2c4.4-1.2,9.7,2.3,11.1,6.5c0.3,0.8-0.8,2.2-1.6,3C1292.9,402.7,1285.9,402.5,1280,395.8z"/>
			<path class="st2" d="M1190.9,376.7c2.8-2.5,3.1-5,0.8-8.3l4.5,2.2c3.2-1.8,6-4.1,9.2-5.1c5.1-1.4,10.5,1.3,12.3,6.3
				c0.2,0.9-0.1,1.8-0.6,2.4c-5.9,7.3-13.8,7.4-20,0.5c-1.8,0.9-3.5,1.8-5.2,2.7L1190.9,376.7z"/>
			<path class="st2" d="M1401.9,288.4l-5.2,2.8c1-3.2,3.1-5.8-1.1-8.5l1.2-0.6l4.4,2.1c3.3-1.9,6.1-4.1,9.3-5.2
				c5.1-1.6,11.4,2.2,12.4,7.2c0.1,0.7-1,1.7-1.7,2.4C1414.3,295.1,1408.2,294.9,1401.9,288.4z"/>
			<path class="st2" d="M1396.9,325.9l4.7,2.5c1.9-1.5,3.7-3.4,5.9-4.5c5.3-2.9,12-0.9,14.8,4.5c0.2,0.4,0.4,0.8,0.5,1.2
				c0.2,0.6-0.8,1.9-1.5,2.6c-6.7,6.8-13.4,6.8-19.4,0.2c-1.8,0.9-3.7,1.8-5.5,2.8c1.5-3.2,2.9-5.7-0.6-8.3L1396.9,325.9z"/>
			<path class="st2" d="M1211.7,353.4l-5.2,2.8c1.3-3.2,2.4-6-0.1-9.3c1.7,0.9,3.4,1.8,5.3,2.7c2.4-3.8,6.7-6.1,11.3-5.8
				c3.9,0.1,8.4,3.2,9.5,6.6c0,1-0.3,1.9-1,2.6C1225.1,360.2,1218.1,360.2,1211.7,353.4z"/>
			<path class="st2" d="M1265.1,461.9l-5.9,3.2c1.2-2.5,2.3-3.9,2.3-5.3s-1.1-2.6-2.1-4.8c2.3,1.1,4,1.9,5.2,2.5
				c2.5-1.6,4.8-3.7,7.5-4.7c5.6-2.2,12.5,1,14.1,6.2c0.2,0.6-0.9,1.8-1.6,2.5C1277.4,468.4,1272.1,468.5,1265.1,461.9z"/>
			<path class="st2" d="M1402,374.9l-4.8,2.4v-8.6l4.3,2.1c2.1-1.5,4-3.5,6.4-4.6c5.3-2.6,11.7-0.5,14.4,4.8
				c0.1,0.2,0.2,0.5,0.3,0.7c0.3,0.7-0.7,2.3-1.4,3.1C1415,381.5,1407.9,381.4,1402,374.9z"/>
			<path class="st2" d="M1172.3,398.7c1.5-3.2,2.7-5.8-0.8-8.4l0.9-0.7c1.7,0.8,3.3,1.7,4.2,2.1c3.3-1.8,6.3-4.1,9.7-5.2
				c4.9-1.5,11,2.1,12.1,6.7c0.2,0.8-0.8,2-1.5,2.8c-6.2,6.6-13.2,6.5-19.2-0.1L1172.3,398.7z"/>
			<path class="st2" d="M1280,309.8l-5.3,3.1l-0.8-0.7c1.7-2.5,3.7-5.1-0.2-7.6l1-0.8l4.4,2.3c2.7-1.8,5.4-4.3,8.5-5.5
				c5.2-2,11.4,1.3,13.1,6.2c0.1,0.9-0.2,1.8-0.8,2.5C1294.5,316.6,1286.7,316.6,1280,309.8z"/>
			<path class="st2" d="M1211,219.8c3-1.8,5.6-4,8.7-5.1c5.2-1.8,11.5,1.6,12.8,6.6c0.2,0.8-0.9,2.1-1.7,2.9
				c-6.1,6.4-12.9,6.3-19.1-0.2c-1.8,0.9-3.6,1.8-5.4,2.7c1.7-3.3,2.5-5.9-0.8-8.6c0.3-0.2,0.6-0.4,0.8-0.6L1211,219.8z"/>
			<path class="st2" d="M1314.3,395.9c-2,1-3.7,1.8-5.4,2.7c1.8-3.2,2.3-5.9,0.2-9.1l4.4,2.2c2.9-1.7,5.7-4,8.9-5.1
				c5.2-1.8,11.5,1.7,12.7,6.6c0.2,0.8-1,2.1-1.7,2.9C1327,402.6,1320.4,402.5,1314.3,395.9z"/>
			<path class="st2" d="M1332.7,327.9c3.5-1.8,6.5-4.1,9.8-5.1c4.8-1.4,10.7,2.2,12,6.8c0.2,0.7-0.9,1.8-1.6,2.5
				c-6.8,6.7-12.8,6.7-19.3,0.3l-4.6,2.3v-8.6C1330.3,326.7,1331.9,327.5,1332.7,327.9z"/>
			<path class="st2" d="M1382.5,395.9l-6.1,3.3c1.1-2.5,2.1-3.8,2.2-5.1s-0.9-2.7-1.8-4.9l4.9,2.6c2.9-1.7,5.7-4,8.9-5.1
				c5.2-1.6,10.8,1.2,12.7,6.3c0.2,0.7-0.4,2-1,2.7C1396,402.7,1388.8,402.7,1382.5,395.9z"/>
			<path class="st2" d="M1314.1,223.9l-5.1,2.8c-0.2-0.2-0.4-0.5-0.6-0.7c0.6-1.3,1.8-2.5,1.8-3.8s-1-2.7-2-5l5.3,2.6
				c2.7-1.7,5.2-3.9,8.1-5c5.4-1.9,11.4,0.9,13.3,6.3c0.2,0.7-0.7,2-1.4,2.7C1326.8,230.6,1320.7,230.6,1314.1,223.9z"/>
			<path class="st2" d="M1402,245.3l-5.3,2.8c1.5-3.3,2.4-5.9-0.8-8.5l0.8-0.6l4.1,2c4-1.9,7.4-4.3,11.2-5.1c4.5-1,9.8,2.6,10.8,6.8
				c0.2,0.8-1,2.1-1.8,3C1415.2,252,1407.7,251.8,1402,245.3z"/>
			<path class="st2" d="M1231.3,245.3c-1.8,1-3.4,1.9-4.7,2.6v-8.7l4,2.1c2.8-1.8,5.3-3.9,8.3-5c5.3-1.8,11.1,1,13,6.3
				c0.1,0.9-0.2,1.7-0.8,2.4C1245.7,252.1,1237.7,252.2,1231.3,245.3z"/>
			<path class="st2" d="M1157.9,238.9l4.3,2.4c2.9-1.8,5.6-4.1,8.6-5.1c5.4-1.7,11.1,1.2,13,6.4c0.1,0.8-0.2,1.7-0.8,2.3
				c-6.5,7.2-13.4,7.3-20.2,0.5l-5.1,2.7c1-3.2,3-5.9-1.1-8.5C1157,239.4,1157.4,239.1,1157.9,238.9z"/>
			<path class="st2" d="M1333.7,418.3l-4.6,2.4v-8.6l3.8,1.8c3-1.8,5.6-4,8.7-5c5.1-1.8,11.5,1.7,12.8,6.7c0.2,0.7-0.9,1.8-1.6,2.5
				C1346.4,424.8,1340,424.8,1333.7,418.3z"/>
			<path class="st2" d="M1299.6,418.1c-2,1.1-3.7,1.9-5,2.6c0.2-3,0.3-5.7,0.4-8.6l3.6,1.8c3.4-1.9,6.4-4.2,9.7-5.2
				c4.8-1.5,10.8,2.2,12,6.8c0.2,0.7-0.8,2-1.6,2.7C1312.6,424.8,1305.3,424.7,1299.6,418.1z"/>
			<path class="st2" d="M1265.3,418.4c-2,0.9-3.6,1.6-5.2,2.4c1.7-3.2,2.3-5.8,0-9l5.2,2.4c0.7-0.9,1.6-1.8,2.4-2.6
				c4.6-4.4,11.9-4.2,16.3,0.4c0.9,0.9,1.6,2,2.2,3.2c0.3,0.8,0.2,1.6-0.3,2.3C1279.1,425,1271.9,424.8,1265.3,418.4z"/>
			<path class="st2" d="M1231.1,418.1l-4.7,2.6v-8.8l4,2.2c2.8-1.8,5.4-4,8.4-5.1c5.3-1.8,11.1,1.1,13,6.3c0.1,0.9-0.2,1.8-0.8,2.4
				C1245.1,424.9,1237.2,424.9,1231.1,418.1z"/>
			<path class="st2" d="M1157.8,411.7l4.3,2.2c3.3-1.9,6.1-4.2,9.3-5.2c4.9-1.6,11.2,2,12.4,6.8c0.2,0.8-1,2.1-1.8,2.9
				c-6,6.4-12.9,6.3-19-0.3c-1.8,0.9-3.6,1.8-5.4,2.7C1159.4,417.6,1159.9,415,1157.8,411.7z"/>
			<path class="st2" d="M1280.1,353.4l-4.9,2.6c0.2-2.9,0.3-5.5,0.5-8.5l4.4,2.1c2.6-3.5,6.3-6,11.3-5.8c3.9,0.2,8.5,3.3,9.5,6.7
				c0,1-0.4,1.9-1.1,2.6C1293.4,360.2,1286.7,360.2,1280.1,353.4z"/>
			<path class="st2" d="M1333.5,288.8l-4.5,2.2v-8.4l3.5,1.6c3.6-1.8,6.8-4.1,10.3-5c4.5-1.3,10.5,2.5,11.7,6.7
				c0.2,0.7-0.8,1.9-1.5,2.6C1346,295.3,1340.3,295.3,1333.5,288.8z"/>
			<path class="st2" d="M1299.8,245.1c-2.1,1.1-3.9,2.1-5.7,3c1.8-3.3,2.3-5.9,0.3-9.3l4.7,2.6c2.4-1.7,4.7-3.8,7.5-5
				c5.2-2.3,11.3,0.1,13.6,5.4c0.1,0.2,0.2,0.4,0.3,0.6c0.3,0.8-0.8,2.3-1.5,3.1C1312.9,252.1,1304.9,251.9,1299.8,245.1z"/>
			<path class="st2" d="M1348.4,353.3c-1.6,0.9-3.2,1.8-4.6,2.6v-8.7l4.7,2.4c2.3-3.7,6.3-5.9,10.7-5.9c4.3,0,8.7,2.9,9.9,6.7
				c0.2,0.7-0.4,1.9-1,2.6C1362,360.2,1354.9,360.2,1348.4,353.3z"/>
			<path class="st2" d="M1197,245.3l-5.1,2.8c1.2-3.2,2.5-5.9-0.8-8.5c0.3-0.2,0.5-0.4,0.8-0.6l4.5,2.3c2.9-1.8,5.5-4,8.6-5.1
				c5.4-1.7,11.1,1.1,13,6.5c0.1,0.9-0.2,1.7-0.8,2.3C1210.7,252.1,1203.3,252.1,1197,245.3z"/>
			<path class="st2" d="M1382.5,353.4c-1.7,0.9-3.3,1.8-4.8,2.6c0.1-3,0.3-5.6,0.4-8.6l3.7,1.9c3-1.8,5.8-4.1,9-5.1
				c5.1-1.5,10.5,1.2,12.4,6.3c0.3,0.7-0.4,1.8-0.9,2.7C1398,360.7,1387.3,359.4,1382.5,353.4z"/>
			<path class="st2" d="M1177.6,353.4l-4.6,2.5v-8.7c1.2,0.6,2.8,1.5,4.3,2.3c2-1.5,4-3.5,6.4-4.7c5.4-2.7,12-0.4,14.6,5
				c0.1,0.1,0.1,0.2,0.2,0.4c0.2,1-0.1,2-0.8,2.7C1191.4,360.2,1184.5,360.3,1177.6,353.4z"/>
			<path class="st2" d="M1381.8,434.6c3.6-1.7,7-3.9,10.7-4.8c4.2-1,9.8,2.7,11,6.5c0.2,0.7-0.7,2-1.5,2.7c-7.2,7-12.9,7-19.7,0.2
				l-4.8,2.7c-0.2-0.2-0.4-0.4-0.6-0.6c0.6-1.3,1.6-2.5,1.6-3.8s-0.9-2.7-1.8-5.1l5.6,3C1382.2,435.2,1382,434.9,1381.8,434.6z"/>
			<path class="st2" d="M1346.2,466.9c-7-0.5-8.5-1.1-12.7-4.9c-1.7,0.8-3.3,1.6-4.7,2.3c0.2-2.9,0.3-5.5,0.5-8.5l4.4,2
				c2.3-3.6,6.3-5.7,10.5-5.7c4.5,0,9.4,2.9,9.8,7c0.2,1.8-2.4,4-4.1,5.8c-1,1-2.6,1.4-3.9,2.1L1346.2,466.9z"/>
			<path class="st2" d="M1299.4,461.8l-5.2,2.7c1-3.2,3.2-5.9-1.1-8.5c0.4-0.2,0.7-0.5,1.1-0.7c1.7,0.8,3.3,1.7,5.3,2.7
				c2.3-3.6,6.3-5.9,10.5-5.9c4.3,0,9,2.9,10.2,6.8c0.1,0.9-0.2,1.7-0.8,2.4C1313.3,468.5,1306.2,468.6,1299.4,461.8z"/>
			<path class="st2" d="M1280,223.9l-5.1,2.7c1.4-3.3,2.4-5.9-0.8-8.6c0.3-0.2,0.6-0.4,0.8-0.6l4.2,2.2c3.4-1.9,6.3-4.2,9.7-5.3
				c4.8-1.5,10.1,1.7,11.8,6.5c0.3,0.7-0.4,1.9-0.9,2.7C1296,230.5,1286,230.7,1280,223.9z"/>
			<path class="st2" d="M1231.1,461.6c-1.7,0.9-3.4,1.8-4.7,2.6v-8.7l4.7,2.6c2.2-3.6,6.1-5.9,10.3-6c4.5-0.3,8.7,2.4,10.3,6.7
				c0.1,1-0.3,1.9-0.9,2.7C1244.8,468.6,1237.3,468.6,1231.1,461.6z"/>
			<path class="st2" d="M1402,417.9l-5.4,2.7c1.7-3.3,2.4-5.9,0-9.2l4.8,2.4c2.3-1.6,4.6-3.7,7.2-4.8c5.4-2.3,11.6,0.2,14,5.6
				c0.1,0.3,0.2,0.5,0.3,0.8c0.2,0.7-1.1,2-1.9,2.8C1414.6,424.6,1407.8,424.4,1402,417.9z"/>
			<path class="st2" d="M1299.5,288.6l-4.9,2.6c0.1-3,0.2-5.6,0.4-8.5c0.9,0.5,2.5,1.3,3.5,1.7c3.3-1.8,6.3-4,9.6-5.1
				c5-1.5,10.7,1.8,12.1,6.6c0.2,0.7-0.8,2-1.4,2.8C1312.7,295.3,1305.5,295.2,1299.5,288.6z"/>
			<path class="st2" d="M1260.7,247.8v-8.6l4,2.1c2.7-1.7,5.2-3.9,8.2-5c5-1.9,10.7,0.6,12.6,5.6c0,0.1,0.1,0.2,0.1,0.3
				c0.2,1,0,2-0.5,2.9c-4.9,7-13,7.1-19.8,0.3C1263.6,246.3,1261.9,247.2,1260.7,247.8z"/>
			<path class="st2" d="M1245.8,439.5l-5.2,2.8c0.9-3.2,3.1-5.9-1.3-8.5l1.3-0.6l5.1,2.6c-0.2-0.3-0.4-0.6-0.6-0.8
				c3.4-1.7,6.7-4,10.3-4.8c4.6-1.1,9.5,2.1,11,6.6c0.2,0.7-0.6,2-1.3,2.7C1258.8,446.3,1251.8,446.2,1245.8,439.5z"/>
			<path class="st2" d="M1163,371.1c2.3-3.6,6.3-5.8,10.5-5.9c4.3-0.1,9,2.8,10.2,6.7c0.3,0.8-0.8,2.2-1.6,3
				c-6.3,6.7-13,6.6-19.2-0.1l-4.7,2.6v-8.7L1163,371.1z"/>
			<path class="st2" d="M1333.6,245.3l-4.9,2.8c0.2-3,0.3-5.7,0.4-8.7l3.3,1.7c3.9-1.9,7.3-4.3,11-5.2c4.6-1.1,9.8,2.7,10.9,6.9
				c0.2,0.7-0.4,1.7-1,2.3C1347.1,252.1,1339.5,252.1,1333.6,245.3z"/>
			<path class="st2" d="M1348.5,223.8c-1.7,1-3.4,1.9-4.9,2.8c0.2-3,0.3-5.7,0.5-8.7l3.8,2c2.5-1.7,4.7-3.8,7.4-4.9
				c5.3-2.2,11.4,0.2,13.6,5.5c0.1,0.2,0.1,0.3,0.2,0.5c0.1,0.9-0.1,1.8-0.6,2.5C1362.8,230.7,1354.7,230.7,1348.5,223.8z"/>
			<path class="st2" d="M1241.5,304l3.3,1.8c3.7-1.9,6.8-4.2,10.2-5.2c4.7-1.3,10.5,2.4,11.7,6.8c0.1,0.8-0.1,1.6-0.6,2.2
				c-5.4,7.1-14.3,7.2-20.2,0.4l-5,2.6C1241.1,309.6,1241.3,307.1,1241.5,304z"/>
			<path class="st2" d="M1265.1,288.9l-5.9,2.9c1.2-2.4,2.2-3.7,2.3-5s-1-2.6-1.9-4.8l5.6,2.8c3.3-4.2,7.8-7.2,13.3-5.2
				c3,1.1,5.3,4.1,7.7,6.5c-0.3,0.9-0.8,1.8-1.6,2.5C1277.3,295.2,1272.2,295.3,1265.1,288.9z"/>
			<path class="st2" d="M1343.4,312.5c0.1-2.9,0.3-5.5,0.4-8.4c1,0.5,2.6,1.4,4.4,2.4c2.2-4,6.5-6.4,11.1-6.3c4.4,0,8.9,3.2,9.8,7.3
				c0.2,0.7-0.8,1.9-1.5,2.7c-6.4,6.5-13.5,6.2-19.1-0.3L1343.4,312.5z"/>
			<path class="st2" d="M1197.1,288.6l-4.7,2.5v-8.6l4.7,2.4c3.1-4.4,7.5-7.2,12.9-5.5c3,1,5.3,4.1,7.8,6.5c0.3,0.2-0.3,1.7-0.8,2.3
				C1211,295.3,1203.2,295.4,1197.1,288.6z"/>
			<path class="st2" d="M1231.3,371.1c2.4-4,6.9-6.3,11.6-5.9c3.8,0.2,8.1,3.3,9.1,6.7c0.1,0.9-0.2,1.8-0.8,2.5
				c-5.7,7.2-13.4,7.3-19.9,0.3l-4.7,2.6v-8.7L1231.3,371.1z"/>
			<path class="st2" d="M1333.6,374.7c-1.8,1.1-3.4,2-6.2,3.5c1.7-3.8,4.2-6.5-0.1-9l1.1-0.7l4.3,2.2c3.2-1.8,6.1-4.2,9.4-5.1
				c5.1-1.5,10,1.3,12,6.2c0.2,1-0.1,1.9-0.7,2.7C1347.4,381.6,1339.6,381.7,1333.6,374.7z"/>
			<path class="st2" d="M1211.8,435.5c2.9-4.2,6.9-6.1,12.2-5.8c4.5,0.3,6.1,4,8.5,6.7c0.3,0.3-0.6,2-1.3,2.7
				c-6.5,6.8-13,6.8-19.5,0.2l-4.9,2.5c0.2-3,0.4-5.5,0.6-8.5C1208.1,433.7,1209.8,434.5,1211.8,435.5z"/>
			<path class="st2" d="M1245.9,395.9l-5.2,2.7c0.3-3,0.5-5.5,0.8-8.5l3.4,1.6c3.3-1.8,6.3-4.1,9.6-5.2c4.9-1.5,10.7,2,12,6.8
				c0.2,0.8-0.9,2.2-1.7,3C1259,402.7,1251.5,402.4,1245.9,395.9z"/>
			<path class="st2" d="M1314.2,353.4l-5,2.7c0.2-2.9,0.4-5.6,0.6-8.6l4.4,2.2c2.3-3.7,6.4-6,10.8-5.9c4,0,8.7,3,9.9,6.6
				c0,1-0.3,1.9-1,2.6C1327.5,360.1,1320.7,360.2,1314.2,353.4z"/>
			<path class="st2" d="M1314.2,310l-4.9,2.7c0.2-3,0.3-5.6,0.5-8.5l4.3,2c2.6-3.6,6.2-6.2,11.3-6c4.1,0.1,8.9,3.6,9.7,7.3
				c0.2,0.7-0.8,1.9-1.6,2.5C1326.2,316.4,1320.8,316.3,1314.2,310z"/>
			<path class="st2" d="M1280,439.1c-1.9,1.2-3.5,2.3-5,3.2c0.2-3.1,0.3-5.7,0.4-8.8l3.4,1.8c3.5-2,6.6-4.4,10-5.4
				c5-1.3,10.1,1.4,12,6.2c0.1,1-0.2,2-0.8,2.7C1293.7,446.1,1286.1,446,1280,439.1z"/>
			<path class="st2" d="M1280,266.2l-4.8,2.9v-8.7l3.7,1.9c3.7-1.9,7-4.3,10.7-5.2c4.6-1.2,9.6,2.1,11.2,6.3c0.2,0.9,0,1.8-0.5,2.6
				C1294.8,273.3,1286,273.3,1280,266.2z"/>
			<path class="st2" d="M1225.9,196.4c1.7,0.9,3.4,1.8,5.2,2.8c2.5-4.1,7.1-6.4,11.9-5.9c3.7,0.3,8,3.6,8.8,6.9
				c0,0.9-0.3,1.7-0.9,2.3c-6.2,7.1-13.5,7.1-19.8,0.4l-5.1,2.7c1-3.2,2.7-5.9-1.3-8.4L1225.9,196.4z"/>
			<path class="st2" d="M1197.1,202.7l-4.7,2.5v-8.6l4.6,2.3l-0.6-0.9c3.6-1.6,7-3.9,10.8-4.8c4.4-1,9.3,2.5,10.6,6.6
				c0.2,0.7-0.7,2.1-1.4,2.8C1210.3,209.4,1203.1,209.4,1197.1,202.7z"/>
			<path class="st2" d="M1299.7,374.5l-5.3,3.1c1.2-3.3,2.3-6-0.3-9.2c1.8,0.9,3.5,1.9,5.5,2.9c2.4-4.1,7-6.5,11.7-6
				c3.9,0.2,8,3.3,9,6.8c0.2,0.8-0.7,2.1-1.4,2.9C1313,381.7,1305,381.5,1299.7,374.5z"/>
			<path class="st2" d="M1206.5,389.6l4.5,2.2c2.9-1.8,5.4-3.9,8.3-5c5.3-1.8,11.1,0.9,13.1,6.1c0.1,0.9-0.2,1.8-0.7,2.5
				c-5.3,7.2-12.9,7.4-20.1,0.6l-5.2,2.7c1.2-3.2,3-5.8-1.1-8.5L1206.5,389.6z"/>
			<path class="st2" d="M1382.5,266.4l-4.7,2.5v-8.6l4.3,2.2c2.1-1.5,4.2-3.6,6.8-4.8c5.3-2.5,11.7-0.2,14.2,5.2
				c0.1,0.2,0.1,0.3,0.2,0.5c0.2,1-0.1,1.9-0.8,2.7C1396.1,273.1,1388.9,273.2,1382.5,266.4z"/>
			<path class="st2" d="M1402,461.5l-5.1,2.7l-0.6-0.6c0.6-1.2,1.7-2.5,1.7-3.7s-1-2.7-2-5l5.7,2.8c1.5-1.5,3.1-2.8,4.8-4
				c5.1-3.3,11.9-1.9,15.2,3.2c0.4,0.7,0.8,1.4,1.1,2.1c0.2,0.8,0,1.6-0.4,2.2C1416.5,468.1,1408.2,468.2,1402,461.5z"/>
			<path class="st2" d="M1245.9,266.5c-1.9,1-3.5,1.8-4.7,2.4v-8.6l3.5,1.8c3.9-1.9,7.1-4.2,10.7-5.1c4.7-1.1,9.6,2.1,11.1,6.5
				c0.2,0.7-0.4,1.9-1,2.6C1259.3,273.1,1252.1,273.2,1245.9,266.5z"/>
			<path class="st2" d="M1211.8,262.7c2.3-3.7,6.5-5.9,10.9-5.8c4,0,8.7,3.1,9.8,6.7c0.1,1-0.3,1.9-1,2.6c-6.6,7-13.4,7.1-19.9,0.5
				c-1.8,0.8-3.4,1.7-4.8,2.4c0.1-2.9,0.3-5.4,0.4-8.4L1211.8,262.7z"/>
			<path class="st2" d="M1299.5,202.8l-4.8,2.3v-8.5l4.7,2.5c2.7-4.1,6.6-6.1,11.8-5.9c4.7,0.1,6.7,3.7,9,6.9
				c0.3,0.4-0.6,1.8-1.2,2.5C1312.8,209.4,1305.6,209.5,1299.5,202.8z"/>
			<path class="st2" d="M1367.1,370.2c3.4-1.7,6.7-4,10.3-4.8c4.5-1.1,9.6,2.1,11.1,6.3c0.3,0.8-0.7,2.3-1.5,3.1
				c-6.1,6.7-13.1,6.7-19.3,0l-5,2.7l-0.6-0.6c0.6-1.2,1.6-2.5,1.6-3.7s-0.9-2.7-1.7-5l5.7,2.8
				C1367.5,370.7,1367.3,370.5,1367.1,370.2z"/>
			<path class="st2" d="M1367.9,284.9c3.4-4.6,7.9-7.3,13.4-5.3c2.9,1,5,4,7.4,6.3c0.3,0.2-0.4,1.8-1,2.5c-6.8,6.9-13.2,7-19.9,0.4
				c-1.7,0.9-3.4,1.8-4.8,2.5c0.1-3,0.3-5.5,0.4-8.5L1367.9,284.9z"/>
			<path class="st2" d="M1177.6,266.4l-5,2.8l-0.6-0.6c0.6-1.2,1.7-2.5,1.7-3.7s-0.9-2.7-1.8-5.1l5.1,2.7c2.9-1.8,5.5-4.1,8.6-5.1
				c5.2-1.6,10.8,1,12.9,6.1c0.2,0.9,0.1,1.8-0.4,2.6C1192.5,273.1,1184,273.3,1177.6,266.4z"/>
			<path class="st2" d="M1402,202.7l-5.1,2.7c1-3.2,2.7-5.9-1.3-8.3l1-0.7l5.4,2.6c2.2-3.6,6.1-5.8,10.2-5.9
				c4.4-0.1,9.4,2.9,10.6,6.9c0.2,0.7-0.8,2-1.5,2.7C1414.9,209.4,1408,209.3,1402,202.7z"/>
			<path class="st2" d="M1308.2,268.2c2.9-2.5,2.7-5,0.7-8.2l4.3,2.2c3.4-1.8,6.4-4.1,9.8-5c5-1.4,9.9,1.5,12,6.1c0.2,1,0,2-0.7,2.7
				c-6.4,7.1-13.6,7.2-20.2,0.5l-5.2,2.6L1308.2,268.2z"/>
			<path class="st2" d="M1157,281.8l4.8,2.6c3.7-1.9,6.8-4.1,10.3-5.1c4.6-1.3,10.6,2.4,11.6,6.7c0.2,0.8-0.9,2.2-1.7,3
				c-6.1,6.4-13,6.2-19.1-0.3l-5.1,2.6c-0.2-0.2-0.4-0.4-0.6-0.6c0.6-1.2,1.7-2.5,1.7-3.7S1158,284.3,1157,281.8z"/>
			<path class="st2" d="M1333.6,202.9l-4.7,2.4c0.1-2.9,0.3-5.5,0.4-8.4c0.9,0.4,2.6,1.2,4.4,2c2.8-4,6.7-5.9,11.8-5.7
				c4.7,0.2,6.4,4.1,8.9,6.9c0.2,0.3-0.4,1.6-0.9,2.2C1346.8,209.4,1340.2,209.5,1333.6,202.9z"/>
			<path class="st2" d="M1260.3,368.4l5.2,2.8c2.3-3.9,6.7-6.3,11.3-6c4.1,0.1,8,2.8,9.1,6.5c0.1,1-0.2,2-0.8,2.8
				c-5.2,6.9-13.3,7-19.6,0.2c-1.7,0.9-3.4,1.8-6.2,3.3c1.6-3.7,4.2-6.4-0.1-8.9L1260.3,368.4z"/>
			<path class="st2" d="M1177.6,439.2c-1.9,1-3.4,1.9-4.7,2.5v-8.7l3.3,1.8c4.1-1.9,7.7-4.2,11.6-5c4.3-1,9.4,2.6,10.6,6.5
				c0.1,1-0.3,1.9-1,2.6C1191.1,445.9,1184.1,446,1177.6,439.2z"/>
			<path class="st2" d="M1265.4,202.8l-4.7,2.3v-8.5l4.5,2.2c1.3-1.4,2.7-2.7,4.3-3.8c6-3.9,13.7-1.9,16.7,4.4
				c0.3,0.9,0.2,1.9-0.3,2.7c-4.8,6.8-13.9,7.4-19.8,1.3C1265.8,203.2,1265.5,202.9,1265.4,202.8z"/>
			<path class="st2" d="M1158.3,205.2v-8.6l3.5,1.8c3.9-1.8,7.3-4.1,11.1-5c4.5-1,9.7,2.5,11,6.5c0.1,1-0.3,1.9-1,2.5
				c-6.8,7-13.4,7.1-19.9,0.4L1158.3,205.2z"/>
			<path class="st2" d="M1343.6,442v-8.7l4.8,2.6c2.4-4.4,7.2-6.9,12.1-6.2c3.8,0.3,8,3.7,8.7,7.1c0.2,0.8-0.9,1.9-1.6,2.7
				c-6.1,6.5-13.6,6.2-19.1-0.5C1346.7,440.1,1344.9,441.3,1343.6,442z"/>
			<path class="st2" d="M1367.8,202.8l-4.6,2.3v-8.5l3.9,1.9c2.9-1.7,5.5-4.1,8.6-5c5.2-1.6,10.8,0.9,12.9,6c0.3,0.7-0.3,2.2-1,2.9
				C1380.9,209.4,1374.5,209.5,1367.8,202.8z"/>
			<path class="st2" d="M1415.9,439.9l-4.2,2.4c0.9-3.2,2.7-5.9-0.9-8.4l0.8-0.7c1.7,0.8,3.3,1.6,4.4,2l11.4-7v16.6L1415.9,439.9z"
				/>
			<path class="st2" d="M1427.4,343.9v15.3l-10.9-5c0.1-0.3,0.3-0.6,0.4-0.9l-5.4,2.8c1.2-3.3,3-5.9-1.1-8.5l1-0.7
				c1.8,0.9,3.5,1.8,5.4,2.8C1419.1,346,1423.1,343.7,1427.4,343.9z"/>
			<path class="st2" d="M1427.2,401.9l-11.2-5.5c-0.9,0.5-2.6,1.4-4.3,2.3c0.9-3.2,3.1-5.8-1.1-8.3l1-0.7l4.6,2.1
				c3.3-2.1,6.7-4.2,11-6.9L1427.2,401.9z"/>
			<path class="st2" d="M1412.5,304.1l3.5,1.7l11.3-7v16.8c-4-1.9-7.5-3.5-11.1-5.2c-1.1,0.6-2.8,1.5-4.3,2.4
				C1412.1,309.7,1412.3,307.1,1412.5,304.1z"/>
			<path class="st2" d="M1427.4,212.9v15.7c-4.1,0.4-8.1-1.5-10.5-4.8l-5.4,2.9c1.8-3.3,2.4-5.9,0.1-9.2l4.4,2.2L1427.4,212.9z"/>
			<path class="st2" d="M1415.8,267l-3.7,1.8v-8.5l4.7,2.4c2.2-3.6,6.2-5.9,10.5-5.8v15.3C1423.2,270.4,1419.8,268.8,1415.8,267z"/>
		</g>
	</g>
</g>
<path class="st0" d="M116.3,184.8c15.3-0.1,30.6,2.2,45.2,6.9c14,4.6,26.7,12.5,36.9,23.1c10.5,10.8,18.8,24.8,25,42
	s9.2,38.6,9.2,64.1c0,25.3-3.1,46.6-9.2,64c-6.1,17.4-14.4,31.4-25,42c-10.3,10.5-23,18.4-36.9,22.9c-14.6,4.7-29.9,7-45.2,6.9
	c-15.3,0.1-30.6-2.2-45.2-6.8c-14-4.4-26.7-12.2-37-22.7c-10.5-10.6-18.8-24.6-24.9-42C3,367.9,0,346.5,0,320.9
	c0-25.7,3.1-47.3,9.2-64.7c6.1-17.4,14.4-31.4,24.9-42c10.3-10.5,23-18.3,37-22.7C85.8,187,101,184.7,116.3,184.8z M113.3,245.2
	c-6.3,0-12.5,1.1-18.4,3.4c-6,2.5-11.2,6.7-15,12c-4.2,5.8-7.6,13.5-10.1,23.3s-3.8,22-3.8,36.8c0,15,1.3,27.3,3.8,36.9
	s5.9,17.3,10.1,23.1c3.7,5.4,9,9.5,15,12c11.8,4.5,24.9,4.5,36.8,0c5.8-2.2,10.8-6.2,15.2-12c4.4-5.8,7.8-13.5,10.3-23.1
	c2.5-9.6,3.8-21.9,3.8-36.9c0-14.8-1.3-27-3.8-36.8c-2.5-9.7-5.9-17.5-10.3-23.3c-3.9-5.3-9.1-9.5-15.2-12
	C125.8,246.3,119.6,245.2,113.3,245.2L113.3,245.2z"/>
<path class="st0" d="M1012.4,184.8c15.3-0.1,30.6,2.2,45.2,6.9c14,4.6,26.7,12.5,37,23.1c10.5,10.8,18.8,24.8,24.9,42
	s9.2,38.6,9.2,64.1c0,25.3-3.1,46.6-9.2,64s-14.4,31.4-24.9,42c-10.3,10.5-23,18.4-37,22.9c-14.6,4.7-29.9,7-45.2,6.9
	c-15.3,0.1-30.6-2.2-45.2-6.8c-14-4.4-26.7-12.2-37-22.7c-10.5-10.6-18.8-24.6-24.9-42s-9.2-38.8-9.1-64.4c0-25.7,3.1-47.3,9.2-64.7
	c6.1-17.4,14.4-31.4,24.9-42c10.3-10.5,23-18.3,37-22.7C981.8,187,997.1,184.7,1012.4,184.8z M1009.4,245.2
	c-6.3,0-12.5,1.1-18.4,3.4c-6,2.5-11.2,6.7-15,12c-4.2,5.8-7.6,13.5-10.1,23.3s-3.8,22-3.8,36.8c0,15,1.3,27.3,3.8,36.9
	s5.9,17.3,10.1,23.1c4.3,5.8,9.3,9.8,15,12c11.8,4.5,24.9,4.5,36.8,0c5.8-2.2,10.8-6.2,15.2-12c4.4-5.8,7.8-13.5,10.3-23.1
	c2.5-9.6,3.8-21.9,3.8-36.9c0-14.8-1.3-27-3.8-36.8c-2.5-9.7-5.9-17.5-10.3-23.3c-3.9-5.3-9.1-9.5-15.2-12
	C1021.9,246.3,1015.6,245.2,1009.4,245.2z"/>
<path class="st3" d="M1474.6,113.4c-8.8,0-16-7.2-16-16V35.5h-235.4c-8.9,0-16-7.2-16-16s7.2-16,16-16h251.4c8.8,0,16,7.2,16,16
	v77.9C1490.6,106.2,1483.4,113.4,1474.6,113.4C1474.6,113.4,1474.6,113.4,1474.6,113.4z"/>
<path class="st3" d="M114.4,112.5c-8.8,0-16-7.2-16-16V18.5c0-8.8,7.2-16,16-16h258.7c8.9,0,16,7.2,16,16s-7.2,16-16,16H130.5v61.9
	C130.5,105.3,123.3,112.5,114.4,112.5C114.5,112.5,114.4,112.5,114.4,112.5z"/>
<path class="st3" d="M1473.9,670.3h-250.8c-8.9,0-16-7.2-16-16c0-8.9,7.2-16,16-16h234.8v-90.9c0-8.9,7.2-16,16-16s16,7.2,16,16
	v106.9C1490,663.1,1482.8,670.3,1473.9,670.3C1474,670.3,1473.9,670.3,1473.9,670.3z"/>
<path class="st3" d="M373.2,670.3H114.4c-8.8,0-16-7.2-16-16v-107c0-8.8,7.2-16,16-16s16,7.2,16,16v90.9h242.8c8.9,0,16,7.2,16,16
	C389.2,663.1,382.1,670.3,373.2,670.3L373.2,670.3z"/>
</svg>
