<svg id="Layer_1" data-name="Layer 1" xmlns="http://www.w3.org/2000/svg" xmlns:xlink="http://www.w3.org/1999/xlink" viewBox="0 0 1602.63 798.21"><defs><style>.cls-1{fill:none;}.cls-2,.cls-4{fill:#139fda;}.cls-3{clip-path:url(#clip-path);}.cls-4{fill-rule:evenodd;}.cls-5{fill:#30a576;}</style><clipPath id="clip-path" transform="translate(-190.89 -310.05)"><path class="cls-1" d="M1345.42,497.19l112.53.4a100.29,100.29,0,0,1,29.24,4.41,75.12,75.12,0,0,1,25.08,13,64.64,64.64,0,0,1,17.37,21.44q6.52,12.78,6.46,29.28a65,65,0,0,1-11.76,38A73.5,73.5,0,0,1,1493.5,629a73.61,73.61,0,0,1,30.67,25.43,64.91,64.91,0,0,1,11.48,38.11q0,16.51-6.66,29.24a64.78,64.78,0,0,1-17.51,21.32,74.94,74.94,0,0,1-25.17,12.85,100.52,100.52,0,0,1-29.28,4.21l-112.53-.38Zm65.42,62.13-.15,43.13,41.64.14a16.91,16.91,0,0,0,13.9-6.51,23.15,23.15,0,0,0,5.3-14.8,24.18,24.18,0,0,0-5.2-14.84,16.57,16.57,0,0,0-13.86-7Zm41.31,95.41-41.64-.14-.15,43.88,41.63.14a16.55,16.55,0,0,0,13.9-6.89,23.53,23.53,0,0,0,.11-29.62,16.55,16.55,0,0,0-13.85-7Z"/></clipPath></defs><title>logo острова на белый фон</title><path class="cls-2" d="M750.86,997.12a18.26,18.26,0,0,1-6-9.4,37.94,37.94,0,0,1-1.49-9.62,26.7,26.7,0,0,1,1.2-8.43c-.62,0-2,1.23-4.23,3.73s-4.59,5.46-7.19,8.88-5.13,6.79-7.65,10.07-4.39,5.68-5.64,7.24a37,37,0,0,1-5.77,5.14,11.54,11.54,0,0,1-4.34,2.1,33.77,33.77,0,0,1-7.85-1.56,31.49,31.49,0,0,1-7.73-3.67,27.41,27.41,0,0,1-6.31-5.64,17.61,17.61,0,0,1-3.6-7.51c0-4.38.14-8,.39-10.79a60.14,60.14,0,0,1,1.55-9.13,185.06,185.06,0,0,1,6.28-20.14,218.16,218.16,0,0,1,9.58-22.12,152,152,0,0,1,12.14-20.36,61.8,61.8,0,0,1,14.23-14.83,37.88,37.88,0,0,1,4.93.37,31.29,31.29,0,0,1,5.74,1.31,43.15,43.15,0,0,1,5.61,2.24,14.21,14.21,0,0,1,4.56,3.42q-2.12,2.33-10.71,15.67t-19.24,38.37a76.21,76.21,0,0,0-2.84,7.5c-1.11,3.27-2.22,6.71-3.32,10.29s-2,7.12-2.74,10.55a43.31,43.31,0,0,0-1.09,8.21,5.48,5.48,0,0,0,.58,2.81,9,9,0,0,0,1,1.41c2.35-.94,5.33-3.5,9-7.71s8.62-10.68,15.06-19.41q2.36-3.27,5.54-7.48t6.47-9q3.3-4.8,6.25-9.94a68.24,68.24,0,0,0,4.84-10.3c.63-1.88,1.47-4.1,2.5-6.67a77.47,77.47,0,0,1,3.77-8.08,92.46,92.46,0,0,1,5.19-8.54,48.65,48.65,0,0,1,6.94-8.07,33.58,33.58,0,0,1,6.56.73,56.63,56.63,0,0,1,6.68,1.78,35.45,35.45,0,0,1,5.5,2.36,12.11,12.11,0,0,1,3.5,2.72q-4.25,10.3-9.44,20.36t-9.69,19.78a169.53,169.53,0,0,0-7.56,19.31A61.71,61.71,0,0,0,769,983.82a39.24,39.24,0,0,0,.78,8.55,46,46,0,0,0,1.74,6.11c.62,1.64,1.2,3,1.74,4.1a6.69,6.69,0,0,1,.82,2.82c0,.15-.17.39-.47.7a.69.69,0,0,1-.48.23,16.39,16.39,0,0,1-4.21-.72,49.24,49.24,0,0,1-5.74-2c-2.11-.88-4.21-1.85-6.32-3A61.56,61.56,0,0,1,750.86,997.12Z" transform="translate(-190.89 -310.05)"/><path class="cls-2" d="M956.37,1020.34a2.13,2.13,0,0,1-.93.23h-1.88a33,33,0,0,1-7.6-1.08,75.61,75.61,0,0,1-8.43-2.6,37.46,37.46,0,0,1-7-3.43c-2-1.26-3.16-2.35-3.63-3.3-.14-2.19-.21-4.45-.2-6.8s0-4.61,0-6.79a410.49,410.49,0,0,1,4.06-54.85,498.44,498.44,0,0,1,13-61.84q.94-3.29,2-8.32c.71-3.35,1.47-7,2.27-10.89q-5.62,4.44-13.41,14.14t-16.37,22.91q-8.61,13.21-17.22,29t-15.7,32.07A338.88,338.88,0,0,0,873.14,991a137.58,137.58,0,0,0-6.31,29.52q-11.25-3.33-15.57-6.62t-4.31-8q0-4.21,2.62-11.95t7.33-18.25q4.71-10.55,11.57-23.53t15.1-28q9.43-17.09,18.52-32.05T919.89,865A205.61,205.61,0,0,1,937,844a71.74,71.74,0,0,1,16.58-13.54,33.1,33.1,0,0,1,8.78,1.67,90.12,90.12,0,0,1,10.77,4,86.1,86.1,0,0,1,9.36,4.84c2.73,1.65,4.25,3,4.55,4.12a166,166,0,0,0-7.79,19.67q-4.5,13.11-9.14,29.74t-8.79,35.25q-4.17,18.62-6.58,35.72,5.43-12.87,12.64-26.8t15.21-27.61q8-13.68,16.39-26.54T1015.31,861q8-10.63,15-18.59a72.25,72.25,0,0,1,12.35-11.68,32.65,32.65,0,0,1,8.78,1.68,89,89,0,0,1,10.78,4,87,87,0,0,1,9.36,4.84c2.72,1.65,4.24,3,4.56,4.11q-7.56,13.35-13.25,32.54a403.5,403.5,0,0,0-9.64,40.3q-3.93,21.07-6,41.82t-2.13,37.15q0,5.4,0,11.25t.43,12.2a45.6,45.6,0,0,1-7.86-.85,69.43,69.43,0,0,1-8.9-2.26,57.94,57.94,0,0,1-7.83-3.19,12.48,12.48,0,0,1-4.92-3.89c-.15-2.19-.22-4.45-.21-6.8s0-4.61,0-6.8a408.69,408.69,0,0,1,4.06-54.84,500,500,0,0,1,13-61.84c.63-2.18,1.35-5.16,2.15-8.9s1.58-7.65,2.39-11.71q-6.6,3.27-14.94,12.48a180.92,180.92,0,0,0-16.95,22.45q-8.61,13.21-17,29.36t-15.11,32.88A321.42,321.42,0,0,0,962,990,155.1,155.1,0,0,0,956.37,1020.34Z" transform="translate(-190.89 -310.05)"/><path class="cls-2" d="M1136.75,1015a18.67,18.67,0,0,1-6.13-9.62,38.65,38.65,0,0,1-1.56-9.85,27.49,27.49,0,0,1,1.2-8.65q-1,0-4.32,3.84t-7.34,9.13q-4,5.29-7.81,10.34t-5.77,7.45a37.1,37.1,0,0,1-5.89,5.29,11.46,11.46,0,0,1-4.45,2.17,34,34,0,0,1-8-1.57,32.61,32.61,0,0,1-7.93-3.72,27.56,27.56,0,0,1-6.49-5.77,18.06,18.06,0,0,1-3.73-7.69q0-6.74.36-11.06a63.59,63.59,0,0,1,1.56-9.38,189.73,189.73,0,0,1,6.37-20.67,225.64,225.64,0,0,1,9.74-22.72,157.06,157.06,0,0,1,12.38-20.91,63.49,63.49,0,0,1,14.55-15.27,41.29,41.29,0,0,1,5,.36,33.31,33.31,0,0,1,5.89,1.32,47.14,47.14,0,0,1,5.77,2.29,14.77,14.77,0,0,1,4.69,3.48q-2.16,2.41-10.94,16.11t-19.59,39.43q-1.2,2.64-2.88,7.69t-3.37,10.58q-1.68,5.52-2.77,10.81a44.62,44.62,0,0,0-1.08,8.42,5.52,5.52,0,0,0,.6,2.88,7.49,7.49,0,0,0,1.09,1.44q3.6-1.44,9.13-7.93t15.39-20q2.4-3.36,5.65-7.69t6.61-9.26q3.36-4.92,6.37-10.22a70.56,70.56,0,0,0,4.93-10.57q.94-2.89,2.52-6.85a81.2,81.2,0,0,1,3.85-8.3,92.46,92.46,0,0,1,5.29-8.77,48.89,48.89,0,0,1,7.09-8.3,34.56,34.56,0,0,1,6.73.72,59.56,59.56,0,0,1,6.85,1.81,34.64,34.64,0,0,1,5.65,2.4,12.29,12.29,0,0,1,3.6,2.77q-4.32,10.57-9.61,20.91t-9.86,20.31a175.08,175.08,0,0,0-7.69,19.84,63.24,63.24,0,0,0-3.13,19.23,39.61,39.61,0,0,0,.85,8.77,45.11,45.11,0,0,0,1.8,6.25c.64,1.68,1.24,3.09,1.8,4.21a6.69,6.69,0,0,1,.84,2.88c0,.16-.16.4-.48.73a.73.73,0,0,1-.48.24,17,17,0,0,1-4.33-.73,53,53,0,0,1-5.89-2q-3.24-1.32-6.49-3A64.14,64.14,0,0,1,1136.75,1015Z" transform="translate(-190.89 -310.05)"/><path class="cls-2" d="M1172.57,1099.85c-2.25-.64-3.53-3-3.85-7.21a35.81,35.81,0,0,1-1.32-7.45q-.36-4.34-.36-9.86a78.11,78.11,0,0,1,1.68-13.82q1.68-8.77,4.69-19.84t7.33-23.92q4.34-12.86,9.62-26.08,6.5-16.57,11.3-28.72t8-21q3.24-8.89,5.29-14.66t3.24-9.86a66.94,66.94,0,0,1,2.89-7,92.75,92.75,0,0,1,4.45-8.3q2.52-4.2,5.17-7.93a34.45,34.45,0,0,1,4.8-5.65,65,65,0,0,1,15.87,4.33q7.44,3.12,9.13,6a54.16,54.16,0,0,0-7.69,9.74q-4.32,6.61-8.41,14.42T1237,939a120.94,120.94,0,0,0-5,14.42,75.84,75.84,0,0,1,6.25-8.89q3.84-4.81,11.78-13.23a94.43,94.43,0,0,1,16.7-14.06q7.82-4.92,13.59-4.93,9.13,0,15,5a16.31,16.31,0,0,1,5.89,13,105.59,105.59,0,0,1-5.77,34.26,102.59,102.59,0,0,1-16.58,30.65,70.92,70.92,0,0,1-9.62,10.09,89.22,89.22,0,0,1-11.54,8.54,66.73,66.73,0,0,1-11.78,5.89,30,30,0,0,1-10.34,2.16,15.35,15.35,0,0,1-7.57-1.8,9.89,9.89,0,0,1-4.45-4.45,78.91,78.91,0,0,0,18.27-15.38,139.39,139.39,0,0,0,16.47-22.72,181,181,0,0,0,13.22-27.77,176.84,176.84,0,0,0,8.53-30.29A114.56,114.56,0,0,0,1263.56,930,84.85,84.85,0,0,0,1249,944.8q-8.65,10.58-13.71,17.06T1227,972.92a71.51,71.51,0,0,0-5.29,8.54q-2,4-4.45,9.73-3.36,7.69-7.81,20.31t-9.14,28.25q-4.68,15.63-9.37,33.3t-9,35.21q-2.64-.48-4.56-3.84c-1.29-1.44-2.21-2.49-2.77-3.13A5.27,5.27,0,0,0,1172.57,1099.85Z" transform="translate(-190.89 -310.05)"/><path class="cls-2" d="M507.49,629.32a4.51,4.51,0,0,1-2.63.75,6.36,6.36,0,0,1-3.94-1.7,29.84,29.84,0,0,1-3.91-4,29.51,29.51,0,0,0-3.94-4,6.66,6.66,0,0,0-4.3-1.7,6.3,6.3,0,0,0-3.95,1.67,28.71,28.71,0,0,0-3.95,3.93,29.88,29.88,0,0,1-3.95,3.93A6.38,6.38,0,0,1,473,630a6.73,6.73,0,0,1-4.3-1.7,29.45,29.45,0,0,1-3.93-4,28.78,28.78,0,0,0-3.93-3.95,6.28,6.28,0,0,0-3.92-1.7,5.57,5.57,0,0,0-3.76,1.68c-1.26,1.11-2.51,2.3-3.76,3.54s-2.58,2.49-3.95,3.75a8.67,8.67,0,0,1-3.95,2.23V622a8.45,8.45,0,0,0,3.77-2.06,52.82,52.82,0,0,0,3.75-3.74,38.54,38.54,0,0,1,4-3.74,5.46,5.46,0,0,1,7.87,0,30,30,0,0,1,3.93,3.95,28.82,28.82,0,0,0,3.92,4,6.76,6.76,0,0,0,4.31,1.7,6.33,6.33,0,0,0,3.94-1.67,29.34,29.34,0,0,0,4-3.93,28.62,28.62,0,0,1,4-3.92,6.3,6.3,0,0,1,3.95-1.67,6.68,6.68,0,0,1,4.3,1.7,28.88,28.88,0,0,1,3.93,4,29.86,29.86,0,0,0,3.93,3.94,6.32,6.32,0,0,0,3.92,1.7,4.61,4.61,0,0,0,2.64-.74l0,4.12ZM441.9,613.73c0-1.26,0-2.57,0-4a20.18,20.18,0,0,1,.38-3.94,7.4,7.4,0,0,0,3.76-2.24c1.25-1.23,2.45-2.48,3.58-3.73a28.87,28.87,0,0,1,3.57-3.36A6,6,0,0,1,457,595a6.43,6.43,0,0,1,3.94,1.7,31.79,31.79,0,0,1,3.91,3.95,28.32,28.32,0,0,0,3.93,4,6.68,6.68,0,0,0,4.3,1.7,6.3,6.3,0,0,0,3.95-1.67,28.71,28.71,0,0,0,3.95-3.93,29.94,29.94,0,0,1,4-3.93,6.37,6.37,0,0,1,3.95-1.66,6.75,6.75,0,0,1,4.3,1.7,30.58,30.58,0,0,1,3.93,3.95,28.18,28.18,0,0,0,3.92,4,6.26,6.26,0,0,0,3.93,1.7,4.65,4.65,0,0,0,3.38-1.48c0,1.25-.07,2.56-.2,3.93s-.19,2.69-.19,3.94a6.49,6.49,0,0,1-3,1.12,6.36,6.36,0,0,1-3.93-1.7,29.9,29.9,0,0,1-3.92-4,29.45,29.45,0,0,0-3.93-4,6.74,6.74,0,0,0-4.3-1.69,6.21,6.21,0,0,0-3.95,1.66,29.28,29.28,0,0,0-3.95,3.93,29.34,29.34,0,0,1-4,3.93,6.38,6.38,0,0,1-3.94,1.67,6.76,6.76,0,0,1-4.31-1.7,29.39,29.39,0,0,1-3.92-4,30,30,0,0,0-3.93-3.95,6.3,6.3,0,0,0-3.92-1.7,6,6,0,0,0-3.77,1.49,35.85,35.85,0,0,0-3.76,3.54c-1.25,1.38-2.52,2.69-3.76,3.93A7.61,7.61,0,0,1,441.9,613.73Zm.26,31.5a18,18,0,0,1-.35-3.56c0-1.13,0-2.31,0-3.56a7.63,7.63,0,0,0,3.75-2.24c1.25-1.25,2.52-2.56,3.76-3.94a35.9,35.9,0,0,1,3.77-3.54,5.93,5.93,0,0,1,3.75-1.49,6.33,6.33,0,0,1,3.94,1.7,29.3,29.3,0,0,1,3.92,3.95,29.45,29.45,0,0,0,3.93,4,6.75,6.75,0,0,0,4.3,1.7,6.38,6.38,0,0,0,3.95-1.67,29.29,29.29,0,0,0,3.95-3.93,28.77,28.77,0,0,1,4-3.93,6.19,6.19,0,0,1,3.95-1.66,6.74,6.74,0,0,1,4.3,1.69,30.05,30.05,0,0,1,3.93,4,29.84,29.84,0,0,0,3.91,4,6.39,6.39,0,0,0,3.94,1.7,11.63,11.63,0,0,0,3-.74c0,1.25,0,2.44,0,3.56a18,18,0,0,0,.36,3.56,6.63,6.63,0,0,1-3.38,1.12,6.31,6.31,0,0,1-3.93-1.7,28.73,28.73,0,0,1-3.92-4,31.33,31.33,0,0,0-3.93-4,6.72,6.72,0,0,0-4.31-1.7,6.28,6.28,0,0,0-3.94,1.67,29.88,29.88,0,0,0-3.95,3.93,28.76,28.76,0,0,1-4,3.93,6.32,6.32,0,0,1-3.94,1.67,6.7,6.7,0,0,1-4.31-1.7,27.74,27.74,0,0,1-3.92-4,30.58,30.58,0,0,0-3.93-3.95,6.31,6.31,0,0,0-3.93-1.7,6,6,0,0,0-3.76,1.49,31.22,31.22,0,0,0-3.57,3.36c-1.13,1.26-2.32,2.49-3.57,3.74A7.6,7.6,0,0,1,442.16,645.23Zm.35,8.25a21,21,0,0,0,7.15-6.36c2.26-3,4.64-4.48,7.15-4.47a6.3,6.3,0,0,1,3.92,1.7,31.23,31.23,0,0,1,3.93,3.95,27.28,27.28,0,0,0,3.93,4,6.66,6.66,0,0,0,4.3,1.7,6.34,6.34,0,0,0,3.95-1.67,29.87,29.87,0,0,0,4-3.93,29.79,29.79,0,0,1,3.95-3.92,6.3,6.3,0,0,1,3.94-1.67,6.7,6.7,0,0,1,4.31,1.7,31.23,31.23,0,0,1,3.93,3.95,28.73,28.73,0,0,0,3.92,4,6.31,6.31,0,0,0,3.93,1.7q1.5,0,4.14-1.85L510,659q-3,3-5.26,3a6.31,6.31,0,0,1-3.94-1.7,29.3,29.3,0,0,1-3.92-4,30.62,30.62,0,0,0-3.92-4,6.78,6.78,0,0,0-4.31-1.7,6.31,6.31,0,0,0-3.94,1.67,29.34,29.34,0,0,0-4,3.93,29.28,29.28,0,0,1-3.95,3.93,6.4,6.4,0,0,1-3.95,1.67,6.68,6.68,0,0,1-4.3-1.7,28.32,28.32,0,0,1-3.93-4,31.17,31.17,0,0,0-3.92-3.95,6.39,6.39,0,0,0-3.94-1.7q-3,0-6.39,4.11a24.19,24.19,0,0,1-6.77,6ZM444.24,589a41.91,41.91,0,0,0,6.39-6.17c2.27-2.62,4.39-3.92,6.4-3.91a6.41,6.41,0,0,1,3.93,1.7,31.07,31.07,0,0,1,3.92,3.94,28.82,28.82,0,0,0,3.92,4,6.71,6.71,0,0,0,4.32,1.7,6.3,6.3,0,0,0,3.93-1.67,28.22,28.22,0,0,0,4-3.93,30.4,30.4,0,0,1,3.95-3.92,6.36,6.36,0,0,1,4-1.67,6.75,6.75,0,0,1,4.3,1.7,29.45,29.45,0,0,1,3.93,4,28.7,28.7,0,0,0,3.93,3.94,6.26,6.26,0,0,0,3.92,1.7,5.55,5.55,0,0,0,3.57-1.3,39.64,39.64,0,0,0,3.58-3.16A31.5,31.5,0,0,0,509.85,596q-3,2.25-4.88,2.23a6.26,6.26,0,0,1-3.93-1.7,28.23,28.23,0,0,1-3.93-4,30,30,0,0,0-3.93-4,6.73,6.73,0,0,0-4.3-1.7,6.36,6.36,0,0,0-3.95,1.67,30.49,30.49,0,0,0-3.95,3.93,28.71,28.71,0,0,1-4,3.93,6.3,6.3,0,0,1-3.95,1.67,6.7,6.7,0,0,1-4.3-1.7,28.32,28.32,0,0,1-3.93-4,30.58,30.58,0,0,0-3.93-3.95,6.36,6.36,0,0,0-3.92-1.7c-2.25,0-4.57,1.49-6.95,4.48a24.38,24.38,0,0,1-7,6.35Zm.46,79.15a37.63,37.63,0,0,0,6-5.8c2-2.37,4-3.55,6-3.54a6.39,6.39,0,0,1,3.94,1.7,30.52,30.52,0,0,1,3.92,3.95,27.79,27.79,0,0,0,3.93,4,6.68,6.68,0,0,0,4.3,1.7,6.32,6.32,0,0,0,3.95-1.67,28.71,28.71,0,0,0,4-3.93,29.88,29.88,0,0,1,3.95-3.93,6.36,6.36,0,0,1,3.95-1.67,6.78,6.78,0,0,1,4.31,1.7,31.27,31.27,0,0,1,3.92,4,29.3,29.3,0,0,0,3.92,4,6.33,6.33,0,0,0,3.94,1.7,5.62,5.62,0,0,0,3.56-1.3,39.86,39.86,0,0,0,3.58-3.17,36.28,36.28,0,0,0,1.85,5.63c-1.5,1.49-3,2.93-4.5,4.3a6.71,6.71,0,0,1-4.52,2,6.32,6.32,0,0,1-3.93-1.69,30.05,30.05,0,0,1-3.93-4,30.62,30.62,0,0,0-3.92-4,6.74,6.74,0,0,0-4.31-1.69,6.38,6.38,0,0,0-4,1.66,29.82,29.82,0,0,0-3.94,3.93,30,30,0,0,1-4,3.94,6.36,6.36,0,0,1-3.94,1.66,6.72,6.72,0,0,1-4.31-1.69,28.91,28.91,0,0,1-3.92-4,31.23,31.23,0,0,0-3.93-3.95,6.37,6.37,0,0,0-3.93-1.69,7.1,7.1,0,0,0-5.45,2.79,58.15,58.15,0,0,1-5.45,5.42Zm1.07-88.9c.5-1.75,1-3.43,1.33-5.07s.82-3.17,1.33-4.67l4.32-4.3a6.13,6.13,0,0,1,4.33-2,6.31,6.31,0,0,1,3.93,1.69,29.4,29.4,0,0,1,3.92,4,30.58,30.58,0,0,0,3.93,4,6.7,6.7,0,0,0,4.31,1.7,6.3,6.3,0,0,0,3.94-1.67,29.29,29.29,0,0,0,3.95-3.93,29.18,29.18,0,0,1,3.95-3.92,6.32,6.32,0,0,1,4-1.67,6.65,6.65,0,0,1,4.29,1.7,28.84,28.84,0,0,1,3.94,3.95,29.3,29.3,0,0,0,3.92,4,5.44,5.44,0,0,0,7.87,0,40.4,40.4,0,0,0,4.14-3.92,39.47,39.47,0,0,1,4.15-3.93,6.28,6.28,0,0,1,3.94-1.67,1.75,1.75,0,0,1,.75.18,2.48,2.48,0,0,0,1.13.2,56.79,56.79,0,0,0-5.66,8.61,71.66,71.66,0,0,0-6.22,6.16c-2.14,2.38-4.19,3.55-6.19,3.54a6.26,6.26,0,0,1-3.93-1.7,28.23,28.23,0,0,1-3.93-4,31.23,31.23,0,0,0-3.93-3.95,6.75,6.75,0,0,0-4.3-1.7,6.33,6.33,0,0,0-3.95,1.67,29.2,29.2,0,0,0-3.95,3.92,28.22,28.22,0,0,1-4,3.93,6.3,6.3,0,0,1-3.94,1.67,6.7,6.7,0,0,1-4.31-1.7,28.68,28.68,0,0,1-3.91-4,31.33,31.33,0,0,0-3.93-4,6.41,6.41,0,0,0-3.94-1.7c-2,0-3.88,1-5.63,3A60.94,60.94,0,0,1,445.77,579.22Zm1.9,101.66q2.25-2.24,4.52-4.3a6.69,6.69,0,0,1,4.5-2,6.35,6.35,0,0,1,3.93,1.68,31.23,31.23,0,0,1,3.93,3.95,27.87,27.87,0,0,0,3.93,4,6.7,6.7,0,0,0,4.3,1.69,6.38,6.38,0,0,0,4-1.66,30.59,30.59,0,0,0,3.95-3.94,30.44,30.44,0,0,1,3.94-3.93,6.44,6.44,0,0,1,3.95-1.66,6.75,6.75,0,0,1,4.3,1.69,30,30,0,0,1,3.93,4,29.45,29.45,0,0,0,3.93,4,6.38,6.38,0,0,0,3.94,1.69c2,0,3.87-1,5.63-3.16A49.16,49.16,0,0,1,516,677l3.35,6a12.8,12.8,0,0,0-3.75,2.42c-1.26,1.12-2.52,2.32-3.77,3.55a45.46,45.46,0,0,1-3.76,3.37,5.74,5.74,0,0,1-3.38,1.49,6.4,6.4,0,0,1-3.94-1.71,29.3,29.3,0,0,1-3.92-4,30,30,0,0,0-3.93-3.95,6.68,6.68,0,0,0-4.3-1.7,6.3,6.3,0,0,0-3.95,1.67,29.93,29.93,0,0,0-4,3.93,29.73,29.73,0,0,1-3.94,3.92,6.42,6.42,0,0,1-3.95,1.68,6.79,6.79,0,0,1-4.31-1.71,29.3,29.3,0,0,1-3.92-3.95,29.9,29.9,0,0,0-3.92-4,6.35,6.35,0,0,0-3.94-1.7,5.3,5.3,0,0,0-3.57,1.48q-1.69,1.5-3.57,3.37Zm3.7,12.39c2.26-1.74,4-2.6,5.26-2.6a6.37,6.37,0,0,1,3.94,1.71,29.8,29.8,0,0,1,3.92,3.94,28.78,28.78,0,0,0,3.93,3.95,6.75,6.75,0,0,0,4.3,1.71,6.42,6.42,0,0,0,3.95-1.68,30.4,30.4,0,0,0,3.95-3.92,28.62,28.62,0,0,1,3.95-3.92,6.32,6.32,0,0,1,3.95-1.68,6.74,6.74,0,0,1,4.31,1.71,29.31,29.31,0,0,1,3.92,4,29.27,29.27,0,0,0,3.93,3.94,5.42,5.42,0,0,0,7.87,0,41.39,41.39,0,0,0,4.14-3.92,37.36,37.36,0,0,1,4.14-3.92,5.42,5.42,0,0,1,7.87,0,27.7,27.7,0,0,1,3.93,3.95,30,30,0,0,0,3.93,4,6.8,6.8,0,0,0,4.3,1.71c1,0,2.64-.87,4.89-2.62a15.11,15.11,0,0,0,6,1.14,39.48,39.48,0,0,0-5.45,5.81c-1.65,2.12-3.46,3.16-5.47,3.16a6.71,6.71,0,0,1-4.29-1.7,29.42,29.42,0,0,1-3.94-4,27.65,27.65,0,0,0-3.92-3.95,5.42,5.42,0,0,0-7.87,0,36.5,36.5,0,0,0-4.14,3.92,42.5,42.5,0,0,1-4.14,3.92,6.36,6.36,0,0,1-3.95,1.68,6.28,6.28,0,0,1-3.93-1.71,29.36,29.36,0,0,1-3.93-4,28.69,28.69,0,0,0-3.93-3.94,6.69,6.69,0,0,0-4.3-1.71,6.36,6.36,0,0,0-3.95,1.68,29.68,29.68,0,0,0-4,3.91,29.82,29.82,0,0,1-3.94,3.93,6.38,6.38,0,0,1-3.95,1.68,6.7,6.7,0,0,1-4.31-1.71,28.73,28.73,0,0,1-3.92-3.95,29.86,29.86,0,0,0-3.93-3.94,6.42,6.42,0,0,0-3.93-1.72,5,5,0,0,0-3,1.12Zm.85-135.78a30.43,30.43,0,0,1,1.9-5.44c.75-1.61,1.5-3.3,2.27-5h.75a6.35,6.35,0,0,1,3.93,1.7,30.05,30.05,0,0,1,3.93,4,30.36,30.36,0,0,0,3.91,3.94,6.78,6.78,0,0,0,4.32,1.7,6.35,6.35,0,0,0,3.93-1.67,29.34,29.34,0,0,0,4-3.93,29.78,29.78,0,0,1,3.95-3.92,6.32,6.32,0,0,1,3.95-1.67,6.7,6.7,0,0,1,4.3,1.7,28.32,28.32,0,0,1,3.93,4,29.86,29.86,0,0,0,3.93,3.94,6.32,6.32,0,0,0,3.93,1.7,6.44,6.44,0,0,0,3.95-1.66,42.67,42.67,0,0,0,4.13-3.93,40.42,40.42,0,0,1,4.14-3.93,6.3,6.3,0,0,1,3.95-1.67c2,0,3.8,1.08,5.42,3.21a41.1,41.1,0,0,0,5.42,5.84,32.28,32.28,0,0,0-4.51,3c-1.25-1.24-2.31-2.26-3.18-3a4.69,4.69,0,0,0-3.19-1.14,6.29,6.29,0,0,0-3.93,1.66,39.53,39.53,0,0,0-4.14,3.93,41.6,41.6,0,0,1-4.15,3.93,5.44,5.44,0,0,1-7.87,0,29.36,29.36,0,0,1-3.93-4,28.88,28.88,0,0,0-3.93-4A6.66,6.66,0,0,0,489,555a6.32,6.32,0,0,0-3.95,1.67,28.71,28.71,0,0,0-4,3.93,29.88,29.88,0,0,1-3.95,3.93,6.32,6.32,0,0,1-3.94,1.67,6.68,6.68,0,0,1-4.31-1.7,30,30,0,0,1-3.93-4,29.4,29.4,0,0,0-3.92-4,6.35,6.35,0,0,0-3.93-1.7C455.6,554.87,454,555.75,452.22,557.49Zm14.42,165.1q-2.61-3.76-5-7.72T457,706.42a8.07,8.07,0,0,1,3.75,2.08c1.24,1.12,2.55,2.39,3.92,3.76s2.67,2.63,3.93,3.76a6,6,0,0,0,4.12,1.71,6.36,6.36,0,0,0,3.95-1.68,29.73,29.73,0,0,0,3.94-3.92,29.77,29.77,0,0,1,3.95-3.92,6.34,6.34,0,0,1,3.95-1.68,6.67,6.67,0,0,1,4.3,1.71,28.29,28.29,0,0,1,3.94,4,29.21,29.21,0,0,0,3.92,3.94,5.4,5.4,0,0,0,7.87,0,40.54,40.54,0,0,0,4.15-3.93,37.36,37.36,0,0,1,4.14-3.92,5.42,5.42,0,0,1,7.87,0,28.23,28.23,0,0,1,3.93,3.95,30,30,0,0,0,3.93,4,6.69,6.69,0,0,0,4.3,1.71,6.34,6.34,0,0,0,4-1.68,29.87,29.87,0,0,0,4-3.93,27.55,27.55,0,0,1,3.95-3.92,6.29,6.29,0,0,1,3.94-1.68,6.72,6.72,0,0,1,4.31,1.71,29.36,29.36,0,0,1,3.93,3.95,29.3,29.3,0,0,0,3.92,4,5.43,5.43,0,0,0,7.88,0,41.54,41.54,0,0,0,4.14-3.93,38.32,38.32,0,0,1,4.14-3.92,5.44,5.44,0,0,1,7.88,0,29.26,29.26,0,0,1,3.93,3.94,29.25,29.25,0,0,0,3.91,4,6.74,6.74,0,0,0,4.32,1.71,6.31,6.31,0,0,0,3.93-1.68,28.77,28.77,0,0,0,4-3.93,28,28,0,0,1,3.95-3.91,6.32,6.32,0,0,1,4-1.68,6.71,6.71,0,0,1,4.3,1.71,29.27,29.27,0,0,1,3.93,3.94,28.78,28.78,0,0,0,3.93,4,5.42,5.42,0,0,0,7.87,0,42.63,42.63,0,0,0,4.15-3.92,36.45,36.45,0,0,1,4.13-3.92,6.32,6.32,0,0,1,3.94-1.68,4.79,4.79,0,0,1,3.19,1.14c.86.75,1.92,1.76,3.18,3a27.27,27.27,0,0,1-1.51,2.63,22.8,22.8,0,0,0-1.51,2.62A4.72,4.72,0,0,0,649,715a6.25,6.25,0,0,0-3.94,1.67,40.46,40.46,0,0,0-4.15,3.92,38.41,38.41,0,0,1-4.14,3.93,5.42,5.42,0,0,1-7.87,0,27.7,27.7,0,0,1-3.93-4,29.36,29.36,0,0,0-3.93-4,6.69,6.69,0,0,0-4.3-1.71,6.34,6.34,0,0,0-4,1.68,30.4,30.4,0,0,0-3.95,3.92,27.68,27.68,0,0,1-4,3.93,6.29,6.29,0,0,1-3.93,1.68,6.74,6.74,0,0,1-4.32-1.71,28.68,28.68,0,0,1-3.91-4,30.58,30.58,0,0,0-3.93-3.95,6.37,6.37,0,0,0-3.93-1.71,6.3,6.3,0,0,0-4,1.68,39.33,39.33,0,0,0-4.14,3.92,39.21,39.21,0,0,1-4.14,3.92,5.43,5.43,0,0,1-7.88,0,28.64,28.64,0,0,1-3.92-3.94,29.9,29.9,0,0,0-3.92-3.95,6.74,6.74,0,0,0-4.32-1.71,6.27,6.27,0,0,0-3.93,1.68,29.17,29.17,0,0,0-4,3.91,28.7,28.7,0,0,1-3.95,3.93,6.34,6.34,0,0,1-4,1.68,6.69,6.69,0,0,1-4.3-1.71,27.7,27.7,0,0,1-3.93-4,29.27,29.27,0,0,0-3.93-3.94,5.42,5.42,0,0,0-7.87,0,40.25,40.25,0,0,0-4.14,3.91,37.5,37.5,0,0,1-4.15,3.93,5.42,5.42,0,0,1-7.87,0,28.18,28.18,0,0,1-3.92-4,31.23,31.23,0,0,0-3.93-3.95,6.8,6.8,0,0,0-4.3-1.71,6.37,6.37,0,0,0-3.95,1.68,30.46,30.46,0,0,0-4,3.92,28.1,28.1,0,0,1-3.94,3.93,6.36,6.36,0,0,1-3.95,1.68,5.63,5.63,0,0,1-3-1C468.64,724,467.64,723.34,466.64,722.59ZM463.18,535c1.75,1.75,3.41,3.45,5,5.09a7.15,7.15,0,0,0,5.06,2.44,6.38,6.38,0,0,0,4-1.66,29.91,29.91,0,0,0,3.94-3.94,31.71,31.71,0,0,1,3.95-3.92,6.4,6.4,0,0,1,3.95-1.67,6.71,6.71,0,0,1,4.3,1.7,30,30,0,0,1,3.94,4,28.82,28.82,0,0,0,3.92,4,5.46,5.46,0,0,0,7.87,0,40.54,40.54,0,0,0,4.15-3.93,40.54,40.54,0,0,1,4.14-3.93,5.44,5.44,0,0,1,7.87,0,30.58,30.58,0,0,1,3.93,4,29.54,29.54,0,0,0,3.93,4,6.76,6.76,0,0,0,4.3,1.68,6.4,6.4,0,0,0,4-1.65,30.59,30.59,0,0,0,4-3.94,28.72,28.72,0,0,1,3.95-3.93,6.33,6.33,0,0,1,3.94-1.67,6.76,6.76,0,0,1,4.31,1.7,30.68,30.68,0,0,1,3.93,4,29.39,29.39,0,0,0,3.92,4,5.47,5.47,0,0,0,7.88,0,40.57,40.57,0,0,0,4.14-3.94,40.48,40.48,0,0,1,4.14-3.93,5.45,5.45,0,0,1,7.88,0,31.9,31.9,0,0,1,3.93,4,28.3,28.3,0,0,0,3.91,4,6.77,6.77,0,0,0,4.32,1.69,6.38,6.38,0,0,0,3.94-1.66,29.38,29.38,0,0,0,4-3.94,29.88,29.88,0,0,1,3.95-3.93,6.34,6.34,0,0,1,4-1.66,6.77,6.77,0,0,1,4.3,1.69,31.23,31.23,0,0,1,3.93,4,29,29,0,0,0,3.93,4,5.46,5.46,0,0,0,7.87,0,42.87,42.87,0,0,0,4.15-3.94,39.33,39.33,0,0,1,4.13-3.92,6.35,6.35,0,0,1,3.94-1.67H650a135.94,135.94,0,0,1,8.2,13.91c-1.49-1.51-3-2.94-4.49-4.33a6.45,6.45,0,0,0-4.11-2.07,6.25,6.25,0,0,0-3.94,1.67A37.42,37.42,0,0,0,641.5,545a41.6,41.6,0,0,1-4.14,3.93,5.44,5.44,0,0,1-7.87,0,29.45,29.45,0,0,1-3.93-4,29.36,29.36,0,0,0-3.93-4,6.67,6.67,0,0,0-4.3-1.69,6.27,6.27,0,0,0-4,1.66,29.87,29.87,0,0,0-4,3.93,29.88,29.88,0,0,1-3.95,3.93,6.35,6.35,0,0,1-3.94,1.67,6.76,6.76,0,0,1-4.31-1.7,28.82,28.82,0,0,1-3.92-4,30.58,30.58,0,0,0-3.93-4,5.45,5.45,0,0,0-7.88,0,37.5,37.5,0,0,0-4.14,3.93,42.61,42.61,0,0,1-4.13,3.93,5.46,5.46,0,0,1-7.89,0,30.52,30.52,0,0,1-3.92-4,28.82,28.82,0,0,0-3.92-4,6.73,6.73,0,0,0-4.32-1.7,6.25,6.25,0,0,0-3.93,1.67,27.69,27.69,0,0,0-4,3.93,31,31,0,0,1-3.95,3.92,6.38,6.38,0,0,1-4,1.67,6.73,6.73,0,0,1-4.3-1.7,29.36,29.36,0,0,1-3.93-4,28.78,28.78,0,0,0-3.93-4,5.44,5.44,0,0,0-7.87,0,38.46,38.46,0,0,0-4.14,3.93,42.57,42.57,0,0,1-4.14,3.92,5.44,5.44,0,0,1-7.87,0,29.36,29.36,0,0,1-3.93-4,29.36,29.36,0,0,0-3.93-3.95,6.68,6.68,0,0,0-4.3-1.7,6.3,6.3,0,0,0-3.95,1.67,29.24,29.24,0,0,0-4,3.92,29.82,29.82,0,0,1-3.94,3.93,6.4,6.4,0,0,1-3.94,1.67c-2.25,0-4.51-1.32-6.75-4a42.46,42.46,0,0,0-6.35-6.22Zm6.78-9.35a11.58,11.58,0,0,0,3.38.75,6.34,6.34,0,0,0,3.94-1.67,29.83,29.83,0,0,0,4-3.92,29.83,29.83,0,0,1,3.94-3.93,6.36,6.36,0,0,1,3.95-1.67,6.78,6.78,0,0,1,4.31,1.7,30.62,30.62,0,0,1,3.92,4,29.36,29.36,0,0,0,3.93,4,6.28,6.28,0,0,0,3.93,1.7,6.46,6.46,0,0,0,3.95-1.67,41.48,41.48,0,0,0,4.14-3.93,39.47,39.47,0,0,1,4.13-3.93,5.44,5.44,0,0,1,7.87,0,28.87,28.87,0,0,1,3.93,4,30,30,0,0,0,3.93,4,6.68,6.68,0,0,0,4.3,1.7,6.3,6.3,0,0,0,3.95-1.67,28.76,28.76,0,0,0,4-3.93,28.72,28.72,0,0,1,4-3.93,6.31,6.31,0,0,1,3.94-1.67,6.76,6.76,0,0,1,4.31,1.7,31.33,31.33,0,0,1,3.93,4,28.68,28.68,0,0,0,3.91,3.95,5.46,5.46,0,0,0,7.89,0,39.36,39.36,0,0,0,4.14-3.93,41.55,41.55,0,0,1,4.13-3.93,6.28,6.28,0,0,1,3.95-1.66,6.42,6.42,0,0,1,3.93,1.69,32.61,32.61,0,0,1,3.93,4,28.27,28.27,0,0,0,3.92,4,6.7,6.7,0,0,0,4.31,1.7,6.34,6.34,0,0,0,4-1.67,28.65,28.65,0,0,0,3.94-3.93,31.71,31.71,0,0,1,4-3.92,6.4,6.4,0,0,1,3.95-1.67,6.71,6.71,0,0,1,4.3,1.7,29.51,29.51,0,0,1,3.94,4,29.21,29.21,0,0,0,3.92,3.94,5.45,5.45,0,0,0,7.88,0c1.38-1.12,2.69-2.31,3.94-3.55l3.74,4.14a34.25,34.25,0,0,0-5.82,5.61c-1.9,2.25-3.84,3.36-5.83,3.35a6.35,6.35,0,0,1-3.94-1.69,28.82,28.82,0,0,1-3.92-4,30.05,30.05,0,0,0-3.93-4,6.73,6.73,0,0,0-4.3-1.7,6.33,6.33,0,0,0-3.95,1.67,30.55,30.55,0,0,0-4,3.93,29.32,29.32,0,0,1-3.94,3.94,6.38,6.38,0,0,1-3.95,1.66,6.76,6.76,0,0,1-4.31-1.69,29.49,29.49,0,0,1-3.92-4,31.17,31.17,0,0,0-3.92-4,5.45,5.45,0,0,0-7.88,0,39.47,39.47,0,0,0-4.14,3.93,40.63,40.63,0,0,1-4.14,3.94,5.49,5.49,0,0,1-7.88,0,29.39,29.39,0,0,1-3.92-4,31.27,31.27,0,0,0-3.92-4,6.8,6.8,0,0,0-4.32-1.7A6.33,6.33,0,0,0,549.3,525a28.72,28.72,0,0,0-3.95,3.93,30.55,30.55,0,0,1-4,3.93,6.34,6.34,0,0,1-3.95,1.66,6.74,6.74,0,0,1-4.3-1.69,29.45,29.45,0,0,1-3.93-4,29.9,29.9,0,0,0-3.92-4,5.44,5.44,0,0,0-7.87,0,41.52,41.52,0,0,0-4.14,3.92,41.63,41.63,0,0,1-4.14,3.94,5.47,5.47,0,0,1-7.88,0,29.45,29.45,0,0,1-3.93-4,30,30,0,0,0-3.93-4,6.77,6.77,0,0,0-4.3-1.7,6.46,6.46,0,0,0-4,1.67,31.82,31.82,0,0,0-3.95,3.93,29.38,29.38,0,0,1-3.95,3.94,6.36,6.36,0,0,1-3.94,1.66,5.42,5.42,0,0,1-3.38-1.13,31.76,31.76,0,0,1-3.36-3Zm5.66,207.07a27.43,27.43,0,0,0,6.4-6c2.26-2.75,4.38-4.12,6.39-4.11a6.71,6.71,0,0,1,4.3,1.71,30,30,0,0,1,3.93,4,28.69,28.69,0,0,0,3.93,3.94,5.42,5.42,0,0,0,7.87,0,39.21,39.21,0,0,0,4.14-3.92,39.33,39.33,0,0,1,4.14-3.92,5.42,5.42,0,0,1,7.87,0,28.23,28.23,0,0,1,3.93,3.95,27.62,27.62,0,0,0,3.93,3.94,6.62,6.62,0,0,0,4.3,1.71,6.3,6.3,0,0,0,4-1.67,29.92,29.92,0,0,0,4-3.93,29.14,29.14,0,0,1,3.94-3.92,6.32,6.32,0,0,1,3.94-1.68,6.74,6.74,0,0,1,4.32,1.71,31.23,31.23,0,0,1,3.93,3.95,28.12,28.12,0,0,0,3.91,4,6.43,6.43,0,0,0,3.94,1.71,6.36,6.36,0,0,0,4-1.68,41.48,41.48,0,0,0,4.14-3.93,39.28,39.28,0,0,1,4.13-3.92,5.43,5.43,0,0,1,7.88,0,29.9,29.9,0,0,1,3.92,3.95,28.78,28.78,0,0,0,3.93,4,6.72,6.72,0,0,0,4.31,1.71,6.32,6.32,0,0,0,3.94-1.68,28.16,28.16,0,0,0,3.95-3.93,30.4,30.4,0,0,1,4-3.92,6.34,6.34,0,0,1,4-1.68,6.71,6.71,0,0,1,4.3,1.72,29.32,29.32,0,0,1,3.94,3.94,27.14,27.14,0,0,0,3.92,4,6.28,6.28,0,0,0,3.93,1.71,5.78,5.78,0,0,0,3.38-1.48,47.43,47.43,0,0,0,3.77-3.37c1.25-1.24,2.5-2.44,3.75-3.55a12.93,12.93,0,0,1,3.77-2.43,98.06,98.06,0,0,1-17.7,17.57,26.48,26.48,0,0,1-6.35-6.22c-2.24-2.87-4.48-4.33-6.73-4.34a6.35,6.35,0,0,0-3.95,1.68,29.84,29.84,0,0,0-4,3.92,27.63,27.63,0,0,1-4,3.93,6.31,6.31,0,0,1-3.93,1.68,6.74,6.74,0,0,1-4.32-1.71,28.23,28.23,0,0,1-3.93-4,29.85,29.85,0,0,0-3.91-3.95,6.43,6.43,0,0,0-3.94-1.71,6.35,6.35,0,0,0-3.94,1.68,39.33,39.33,0,0,0-4.14,3.92,40.42,40.42,0,0,1-4.14,3.93,5.45,5.45,0,0,1-7.88,0,28.78,28.78,0,0,1-3.93-4,30.52,30.52,0,0,0-3.92-3.95,6.79,6.79,0,0,0-4.31-1.71,6.35,6.35,0,0,0-3.94,1.68,28.63,28.63,0,0,0-4,3.92,29.76,29.76,0,0,1-4,3.92,6.34,6.34,0,0,1-3.95,1.68,6.69,6.69,0,0,1-4.3-1.71,28.2,28.2,0,0,1-3.94-3.94,29.3,29.3,0,0,0-3.92-3.95,5.42,5.42,0,0,0-7.87,0,39.26,39.26,0,0,0-4.14,3.91,38.4,38.4,0,0,1-4.15,3.93,5.42,5.42,0,0,1-7.87,0,27.7,27.7,0,0,1-3.93-4,29.86,29.86,0,0,0-3.93-3.94,6.75,6.75,0,0,0-4.3-1.71,6.12,6.12,0,0,0-4.32,2.05l-4.33,4.3Zm34.43,21.51a95.18,95.18,0,0,1-25.83-14,5.74,5.74,0,0,1,4.14-1.87,6.72,6.72,0,0,1,4.29,1.71,29.41,29.41,0,0,1,3.94,4,27.56,27.56,0,0,0,3.92,3.94,6.28,6.28,0,0,0,3.94,1.71,6.37,6.37,0,0,0,3.93-1.67,39.47,39.47,0,0,0,4.14-3.93,40.39,40.39,0,0,1,4.15-3.92,5.42,5.42,0,0,1,7.87,0,29.36,29.36,0,0,1,3.93,3.95,28.23,28.23,0,0,0,3.93,4,6.73,6.73,0,0,0,4.3,1.71,6.36,6.36,0,0,0,3.95-1.68,28.7,28.7,0,0,0,4-3.93,29.73,29.73,0,0,1,3.94-3.92,6.4,6.4,0,0,1,4-1.68,6.77,6.77,0,0,1,4.31,1.71,29.9,29.9,0,0,1,3.92,3.95,29.36,29.36,0,0,0,3.93,4,5.43,5.43,0,0,0,7.88,0,40.36,40.36,0,0,0,4.14-3.93,40.4,40.4,0,0,1,4.14-3.92,6.35,6.35,0,0,1,4-1.68,6.43,6.43,0,0,1,3.93,1.71,30.52,30.52,0,0,1,3.92,3.95,28.73,28.73,0,0,0,3.92,4,6.72,6.72,0,0,0,4.31,1.71,6.32,6.32,0,0,0,3.94-1.68,27.68,27.68,0,0,0,4-3.93,29.7,29.7,0,0,1,4-3.91,6.37,6.37,0,0,1,3.95-1.68,6.76,6.76,0,0,1,4.12,1.9c1.48,1.25,2.86,2.5,4.11,3.75l-5.27,3.36a6.37,6.37,0,0,0-3-1.13A6.45,6.45,0,0,0,612.1,749l-4.52,4.48q-2.62.75-5.07,1.67c-1.63.63-3.31,1.18-5.07,1.68a22.44,22.44,0,0,1-6.55-6c-2.11-2.74-4.17-4.13-6.16-4.14a6.33,6.33,0,0,0-4,1.67,37.55,37.55,0,0,0-4.14,3.93,43.62,43.62,0,0,1-4.13,3.92,5.46,5.46,0,0,1-7.89,0,29.27,29.27,0,0,1-3.93-3.94,29.34,29.34,0,0,0-3.91-4,6.78,6.78,0,0,0-4.32-1.7,6.35,6.35,0,0,0-3.94,1.67,28.71,28.71,0,0,0-3.95,3.93,31,31,0,0,1-4,3.92,6.4,6.4,0,0,1-4,1.67,6.71,6.71,0,0,1-4.3-1.7,28.78,28.78,0,0,1-3.93-4,29.36,29.36,0,0,0-3.93-3.95,6.34,6.34,0,0,0-3.93-1.7,7,7,0,0,0-5.07,2.6A74.51,74.51,0,0,1,510.05,754.25ZM613.71,501.41a115,115,0,0,1,23.57,15.84,6,6,0,0,1-3.75,1.48,6.28,6.28,0,0,1-3.93-1.7,29.36,29.36,0,0,1-3.93-3.95,29.9,29.9,0,0,0-3.92-4,6.76,6.76,0,0,0-4.31-1.7,6.44,6.44,0,0,0-4,1.66,30.44,30.44,0,0,0-3.94,3.93A29.87,29.87,0,0,1,605.6,517a6.36,6.36,0,0,1-4,1.67,6.64,6.64,0,0,1-4.3-1.7,27.28,27.28,0,0,1-3.93-4,31.23,31.23,0,0,0-3.93-4,5.45,5.45,0,0,0-7.88,0,40.48,40.48,0,0,0-4.14,3.93,40.31,40.31,0,0,1-4.13,3.93,5.45,5.45,0,0,1-7.88,0,28.23,28.23,0,0,1-3.93-3.95,30,30,0,0,0-3.92-4,6.76,6.76,0,0,0-4.31-1.7,6.33,6.33,0,0,0-3.94,1.67,28.78,28.78,0,0,0-4,3.93,29.28,29.28,0,0,1-3.95,3.93,6.28,6.28,0,0,1-4,1.66,6.68,6.68,0,0,1-4.3-1.7,28.69,28.69,0,0,1-3.93-3.94,29.45,29.45,0,0,0-3.93-4,5.44,5.44,0,0,0-7.87,0,40.54,40.54,0,0,0-4.14,3.93,40.22,40.22,0,0,1-4.13,3.92,6.36,6.36,0,0,1-3.95,1.67,6,6,0,0,1-3.75-1.5,29.73,29.73,0,0,1-3.55-3.39,46,46,0,0,0-3.55-3.57,13.13,13.13,0,0,0-3.74-2.47l5.63-3.35a55.35,55.35,0,0,0,4.49,4.71,6.69,6.69,0,0,0,4.49,2.07,6.34,6.34,0,0,0,4-1.67,42.5,42.5,0,0,0,4.14-3.92,40.54,40.54,0,0,1,4.14-3.93,6.28,6.28,0,0,1,3.94-1.67,6.35,6.35,0,0,1,3.94,1.7,29.94,29.94,0,0,1,3.91,4,30.64,30.64,0,0,0,3.94,3.95,6.69,6.69,0,0,0,4.29,1.69,6.25,6.25,0,0,0,4-1.66,31.14,31.14,0,0,0,3.95-3.93,28.72,28.72,0,0,1,4-3.93,6.3,6.3,0,0,1,4-1.67,6.7,6.7,0,0,1,4.3,1.7,30.68,30.68,0,0,1,3.93,4,28.78,28.78,0,0,0,3.93,3.95,5.44,5.44,0,0,0,7.87,0,40.48,40.48,0,0,0,4.14-3.93,40.48,40.48,0,0,1,4.14-3.93,5.45,5.45,0,0,1,7.88,0,31.84,31.84,0,0,1,3.92,3.95,29.39,29.39,0,0,0,3.92,4,6.72,6.72,0,0,0,4.31,1.7q3,0,6-3.73A34.17,34.17,0,0,1,613.71,501.41Zm-112.15,0c2-1,4.07-1.92,6.19-2.79s4.2-1.67,6.21-2.42c-1.52,1.51-3,2.93-4.52,4.31a6.4,6.4,0,0,1-4.14,2A6,6,0,0,1,501.56,501.39Zm14.86,255.13c1.75-1.25,3.13-1.86,4.13-1.86a5.11,5.11,0,0,1,3.38,1.32c1,.89,2.11,1.82,3.36,2.83ZM562,490a42.28,42.28,0,0,0,3.74,3.37,5.93,5.93,0,0,0,3.74,1.52,5,5,0,0,0,3-1.12q1.49-1.11,3.39-2.62a20.76,20.76,0,0,1,3.74.4l3.74.77c-2.24,1-4.57,3-7,6s-4.7,4.48-6.95,4.47a6.31,6.31,0,0,1-3.93-1.7,29.9,29.9,0,0,1-3.92-3.95,30.05,30.05,0,0,0-3.93-4,6.7,6.7,0,0,0-4.3-1.7,6.3,6.3,0,0,0-4,1.67,29.29,29.29,0,0,0-3.95,3.93,29.84,29.84,0,0,1-4,3.92,6.28,6.28,0,0,1-3.94,1.67q-3.37,0-6.36-3.58a37.46,37.46,0,0,0-6-5.84,9.38,9.38,0,0,1,3.38-.73,16,16,0,0,0,3.38-.37c2.25,1.76,4.12,2.65,5.62,2.65a5.44,5.44,0,0,0,3.37-1.11,31.31,31.31,0,0,0,3.39-3c2.26-.25,4.51-.42,6.76-.54s4.63-.17,7.13-.17ZM557.3,761.91q-3.76,0-7.14-.21c-2.25-.13-4.5-.34-6.74-.59,1.49-1.48,3-2.93,4.5-4.29a6.19,6.19,0,0,1,9.39.22c1.49,1.49,3,3.13,4.48,4.88ZM555,550.35c-1.26,0-2.58,0-3.94.17a38.77,38.77,0,0,0-4,.55c2-2.5,4-3.74,6-3.73q2.25,0,5.61,3.4a12.59,12.59,0,0,1-1.87-.2A12.52,12.52,0,0,0,555,550.35Zm28,141.51a2.56,2.56,0,0,1,1.88-.75,6.35,6.35,0,0,1,3.93,1.71,30,30,0,0,1,3.93,3.95,29.3,29.3,0,0,0,3.92,4,6.75,6.75,0,0,0,4.31,1.71,6.39,6.39,0,0,0,3.94-1.68,29.28,29.28,0,0,0,3.95-3.93,29.09,29.09,0,0,1,4-3.91,6.36,6.36,0,0,1,3.95-1.68,6.68,6.68,0,0,1,4.3,1.7,28.78,28.78,0,0,1,3.93,4,29.36,29.36,0,0,0,3.93,4,5.43,5.43,0,0,0,7.88,0,41.49,41.49,0,0,0,4.13-3.93,38.24,38.24,0,0,1,4.15-3.91,6.27,6.27,0,0,1,3.94-1.68c2,0,3.93,1.21,5.8,3.58a31.69,31.69,0,0,0,5.8,5.83L658.39,706a55.61,55.61,0,0,1-4.87-4.69c-1.49-1.64-3-2.45-4.48-2.46a6.36,6.36,0,0,0-3.95,1.67,39.33,39.33,0,0,0-4.14,3.92,41.54,41.54,0,0,1-4.14,3.93,5.42,5.42,0,0,1-7.87,0,28.23,28.23,0,0,1-3.93-4,29.36,29.36,0,0,0-3.93-4,6.68,6.68,0,0,0-4.3-1.7,6.3,6.3,0,0,0-3.95,1.68,29.14,29.14,0,0,0-4,3.91,29.23,29.23,0,0,1-3.94,3.93,6.36,6.36,0,0,1-3.95,1.68,6.74,6.74,0,0,1-4.31-1.71,30,30,0,0,1-3.93-4,28.68,28.68,0,0,0-3.91-3.95,5.43,5.43,0,0,0-7.88,0,37.36,37.36,0,0,0-4.14,3.92,41.54,41.54,0,0,1-4.14,3.93,6.36,6.36,0,0,1-3.95,1.68q-3,0-5.43-3a46.4,46.4,0,0,0-5.42-5.64,32.61,32.61,0,0,0,6.39-.74,8.09,8.09,0,0,0,4.48,1.91c1.51,0,3.07-.81,4.7-2.43s3.33-3.18,5.08-4.68Zm-7.4-137c1.75-1.74,3.39-3.41,4.89-5a6.58,6.58,0,0,1,4.89-2.41,6.31,6.31,0,0,1,3.93,1.69,29.9,29.9,0,0,1,3.92,4,30.05,30.05,0,0,0,3.93,4,6.76,6.76,0,0,0,4.31,1.7,6.4,6.4,0,0,0,4-1.67,29.82,29.82,0,0,0,3.94-3.93,29.18,29.18,0,0,1,4-3.92,6.32,6.32,0,0,1,4-1.67,6.65,6.65,0,0,1,4.29,1.7,29.32,29.32,0,0,1,3.94,3.94,28.82,28.82,0,0,0,3.92,4,5.44,5.44,0,0,0,7.87,0,42.7,42.7,0,0,0,4.15-3.92,37.5,37.5,0,0,1,4.14-3.93,6.28,6.28,0,0,1,3.94-1.67c2.25,0,4.5,1.5,6.73,4.52a20.93,20.93,0,0,0,7.11,6.4l1.11,2.63-6,1.48c-1.5-1.75-3-3.38-4.48-4.9a6.52,6.52,0,0,0-4.5-2.26,6.3,6.3,0,0,0-3.94,1.67,39.47,39.47,0,0,0-4.15,3.93,41.55,41.55,0,0,1-4.13,3.93,6.32,6.32,0,0,1-3.94,1.67,6.24,6.24,0,0,1-3.93-1.7,28.32,28.32,0,0,1-3.93-4,29.36,29.36,0,0,0-3.93-4,6.7,6.7,0,0,0-4.3-1.7,6.28,6.28,0,0,0-3.95,1.67,28.76,28.76,0,0,0-4,3.93,29.88,29.88,0,0,1-4,3.93,6.22,6.22,0,0,1-3.94,1.66,6.76,6.76,0,0,1-4.31-1.69,29.39,29.39,0,0,1-3.92-4,30.52,30.52,0,0,0-3.92-4,6.35,6.35,0,0,0-3.94-1.7c-1.5,0-3.13.87-4.88,2.61Zm15,203.36c-2.5.49-4.93.94-7.32,1.29s-4.81.8-7.31,1.29q2.25-2.24,4.32-4.1a6.36,6.36,0,0,1,4.33-1.87C586,754.89,587.94,756,590.68,758.27Zm3.64-182.65a67.08,67.08,0,0,0-7.09-11.28,20.44,20.44,0,0,1,6.18,5.28,16.05,16.05,0,0,0,6.16,4.89Zm-5-82.55a128,128,0,0,1,18.73,5.69q-1.87,1.89-3.2,3a4.69,4.69,0,0,1-3.19,1.12q-3.37,0-6.36-3.58A57.78,57.78,0,0,0,589.36,493.07Zm2.72,186.81q2.25,2.26,4.49,4.34a6.79,6.79,0,0,0,4.5,2.07,6.09,6.09,0,0,0,4.31-2q2.07-2.06,4.34-4.68l17.61,3.82c2,2,3.87,3,5.62,3a6.35,6.35,0,0,0,3-1.11l6.75,1.52-5.08,5.05c-1.64,1.62-3.2,2.43-4.7,2.43a6.36,6.36,0,0,1-3.93-1.71,29.36,29.36,0,0,1-3.93-4,29.9,29.9,0,0,0-3.92-4,6.72,6.72,0,0,0-4.31-1.7,6.32,6.32,0,0,0-4,1.67,28.57,28.57,0,0,0-3.94,3.92,29.93,29.93,0,0,1-4,3.93,6.39,6.39,0,0,1-3.94,1.68c-2,0-4-1.15-6-3.4a68.29,68.29,0,0,0-6-6Zm9-1.84a5.4,5.4,0,0,1-3.37-1.14l4.5,1.15ZM617.25,563.7a6,6,0,0,1,3.92,1.88q2.05,1.89,3.93,3.76l-19.89,4.06a34.08,34.08,0,0,0,6-6C613.24,564.93,615.24,563.68,617.25,563.7Zm32.25.11a.77.77,0,0,1,.56.18,1.46,1.46,0,0,0,.94.19l-4.88,1.11A7.12,7.12,0,0,1,649.5,563.81ZM663.3,694a7.31,7.31,0,0,1-2.43-1.51c-.88-.74-1.81-1.5-2.8-2.26l6.37,1.15Z" transform="translate(-190.89 -310.05)"/><path class="cls-2" d="M686.08,494.91V496a7,7,0,0,1-2.28,5.42,9.26,9.26,0,0,1-5.26,2.43l0-9ZM680,526.77a15.82,15.82,0,0,1-.39,3.57,22.4,22.4,0,0,1-1.14,3.56l0-13.88a26.36,26.36,0,0,1,1.11,3.38A13.48,13.48,0,0,1,680,526.77Zm8.58,15.79a9.58,9.58,0,0,1,9.71,9.78,7.42,7.42,0,0,1-1.15,4.51l-17.24-.06a7.36,7.36,0,0,1-1.11-4.51,9.61,9.61,0,0,1,9.79-9.72Zm6.52-42.75a8.33,8.33,0,0,1,8.22,8.29,7.3,7.3,0,0,1-2.45,5.61,8.25,8.25,0,0,1-5.83,2.23,8.15,8.15,0,0,1-5.8-2.27,7.29,7.29,0,0,1-2.43-5.63,8.37,8.37,0,0,1,8.29-8.23Zm4,21.4a9.61,9.61,0,1,1-7,2.79A9.46,9.46,0,0,1,699.12,521.21ZM714.8,543a13.33,13.33,0,0,1,9.74,4.15A14.84,14.84,0,0,1,729,557l-28.51-.1a13.4,13.4,0,0,1,4.16-9.74A13.81,13.81,0,0,1,714.8,543Zm-5.48-44.66a11.27,11.27,0,0,1,.39-3.38l27.39.1a8.19,8.19,0,0,0,.17,1.69,8.32,8.32,0,0,1,.19,1.69,13.64,13.64,0,0,1-4,9.73,13.13,13.13,0,0,1-10,4.1,13.71,13.71,0,0,1-10.11-4.16A13.34,13.34,0,0,1,709.32,498.37Zm13.45,19.18a8.59,8.59,0,0,1,6.35,2.65,9.06,9.06,0,0,1,2.61,6.75,9,9,0,0,1-9,9,9.12,9.12,0,0,1-6.74-2.66,8.64,8.64,0,0,1-2.61-6.38,9,9,0,0,1,9.42-9.34Zm10.64,67.17a9.19,9.19,0,0,1-2.65,6.75l0-13.5A9.13,9.13,0,0,1,733.41,584.72Zm9.71,11.67a14.09,14.09,0,0,1,14.2,14.3,13.32,13.32,0,0,1-4.15,9.74A13.82,13.82,0,0,1,743,624.52c-5.75,0-9.88-2.29-12.35-6.79l0-14.25Q734.51,596.36,743.12,596.39Zm-3.51,39a9.19,9.19,0,0,1-2.65,6.75,10.38,10.38,0,0,1-6.39,3l.07-19.51a9.73,9.73,0,0,1,6.36,3.21A9.28,9.28,0,0,1,739.61,635.39Zm1.82,15.75a15,15,0,0,1,11.23,4.73A15.48,15.48,0,0,1,757.13,667a15.87,15.87,0,0,1-4.54,11.42A14.93,14.93,0,0,1,741.31,683c-4.75,0-8.37-1.54-10.85-4.54l.08-22.87A14.83,14.83,0,0,1,741.43,651.14Zm.09,81.41a15,15,0,0,1-3.22,9.36,18.2,18.2,0,0,1-8.09,6l.1-30.38a15.92,15.92,0,0,1,8.05,5.66A15,15,0,0,1,741.52,732.55Zm3.91-43.88a14.25,14.25,0,1,1-.11,28.5,13.24,13.24,0,0,1-9.73-4.15,14.5,14.5,0,0,1,.07-20.26A13.36,13.36,0,0,1,745.43,688.67Zm-1-143.67a9.6,9.6,0,1,1-6.95,2.79A9.44,9.44,0,0,1,744.42,545Zm11.76-35.59a16,16,0,0,1,15.69,15.81,14.53,14.53,0,0,1-4.72,10.86A15.85,15.85,0,0,1,745,536a14.48,14.48,0,0,1-4.65-10.89,16,16,0,0,1,15.81-15.7ZM750,570.53a9.6,9.6,0,0,1,9.72,9.78,9.63,9.63,0,0,1-9.79,9.73,9.76,9.76,0,1,1,.07-19.51Zm-.23,172.92a9.61,9.61,0,0,1,9.73,9.78,7.59,7.59,0,0,1-1.14,4.51l-17.64-.06c-.51-.76-.74-2.26-.73-4.52a9.6,9.6,0,0,1,9.78-9.71Zm4.15-114.39a9.61,9.61,0,1,1-7,2.79A9.41,9.41,0,0,1,753.88,629.06Zm.43,94.15a8.33,8.33,0,0,1,8.22,8.28,7.35,7.35,0,0,1-2.46,5.62,8.64,8.64,0,0,1-11.62-.05,7.28,7.28,0,0,1-2.43-5.63,8.35,8.35,0,0,1,8.29-8.22Zm3.39-219.42a8.86,8.86,0,0,1-6.57-2.47,9.8,9.8,0,0,1-2.78-6.19l19.13.06a9.07,9.07,0,0,1-3.21,6.18A9.72,9.72,0,0,1,757.7,503.79Zm9.15,171.08a9.75,9.75,0,1,1-.07,19.5,9.82,9.82,0,0,1-6.88-16.71A9.44,9.44,0,0,1,766.85,674.87Zm7.21-130.14a14.1,14.1,0,0,1,14.2,14.3,13.37,13.37,0,0,1-4.16,9.74,14.5,14.5,0,0,1-20.26-.07,13.36,13.36,0,0,1-4.09-9.77,14.1,14.1,0,0,1,14.31-14.2Zm-4.36,66.38a9.61,9.61,0,1,1-7,2.79A9.47,9.47,0,0,1,769.7,611.11Zm6.86-32.23a13.2,13.2,0,0,1,9.93,4.16,15,15,0,0,1-.07,20.26,13.13,13.13,0,0,1-9.95,4.08,14.25,14.25,0,1,1,.09-28.5Zm1.09,119.65a16,16,0,0,1,15.7,15.83,14.55,14.55,0,0,1-4.73,10.85,15.85,15.85,0,0,1-22.13-.08,14.52,14.52,0,0,1-4.65-10.89,16,16,0,0,1,15.81-15.71Zm2.07-57a16.06,16.06,0,0,1,15.71,15.82,15.56,15.56,0,0,1-4.74,11.42,15.43,15.43,0,0,1-22.13-.07,15.55,15.55,0,0,1-4.65-11.47,16.06,16.06,0,0,1,15.81-15.7Zm-1.45,93.78a11.67,11.67,0,0,1,8.24,3.21,10.62,10.62,0,0,1,3.35,8.08,10.94,10.94,0,0,1-2.46,7.12,12.39,12.39,0,0,1-6.21,4.1l-6.37,0A11.61,11.61,0,0,1,767,746.52a10.9,10.9,0,0,1,11.29-11.22ZM772.69,505a12.12,12.12,0,0,1,4.54-9.73l16.13.06a12.43,12.43,0,0,1-8,22.1,12.53,12.53,0,0,1-9-3.59A11.73,11.73,0,0,1,772.69,505ZM788.38,526a8.22,8.22,0,0,1,5.76,14.08,8.26,8.26,0,0,1-14-5.86,8.31,8.31,0,0,1,8.29-8.22Zm1.33,155.67a8.21,8.21,0,0,1,6.74,3.4l0,9.38a7.55,7.55,0,0,1-6.75,3.35,8.18,8.18,0,0,1-5.81-2.28,7.33,7.33,0,0,1-2.43-5.64,8.35,8.35,0,0,1,8.29-8.21Zm1.73-64.51a9.06,9.06,0,0,1,5.24,1.89l0,12.75a8.15,8.15,0,0,1-5.26,1.48A7.76,7.76,0,0,1,786,631a7.26,7.26,0,0,1-2.42-5.62A8,8,0,0,1,786,619.6,7.61,7.61,0,0,1,791.44,617.19Zm-2,140.65a11.84,11.84,0,0,1,6.77-4.84v4.87Zm1-182.29q0-6.39,6.4-7.48l-.06,15.75Q790.44,581.93,790.46,575.55Zm1.69,159.8a13.27,13.27,0,0,1,4.16-9.74l-.07,19.88A13.72,13.72,0,0,1,792.15,735.35Zm3.07-129.77a14.94,14.94,0,0,1,1.53-6.76l0,13.88A14.24,14.24,0,0,1,795.22,605.58Zm.63,36.38a6.17,6.17,0,0,1,.76-3.38l0,7.13A7,7,0,0,1,795.85,642ZM808.21,541.1a11.57,11.57,0,0,1,8.24,3.22,10.63,10.63,0,0,1,3.35,8.07,10.76,10.76,0,0,1-1.15,4.88L798,557.2a10.8,10.8,0,0,1-1.11-4.89,10.91,10.91,0,0,1,11.3-11.21Zm3.87-36a9,9,0,0,1-9-9v-.75l18.38.07,0,.75a8.64,8.64,0,0,1-2.64,6.36A9.12,9.12,0,0,1,812.08,505.1Zm7.11,3.78a13.29,13.29,0,0,1,9.74,4.16A13.77,13.77,0,0,1,833,523.19,14.11,14.11,0,0,1,819.09,537,13.77,13.77,0,0,1,809,532.84a13.3,13.3,0,0,1-4.09-9.75,14.09,14.09,0,0,1,14.3-14.21Zm22,27.08a17.13,17.13,0,0,1,8.24,2.28l-.07,19.14-23.25-.09a22.69,22.69,0,0,1-.74-5.62A16.06,16.06,0,0,1,841.24,536Zm8.36-32.6a15.12,15.12,0,0,1-16.69-.63,13,13,0,0,1-4.67-7.32l21.39.07ZM849.51,530a9.75,9.75,0,1,1,.06-19.49Z" transform="translate(-190.89 -310.05)"/><path class="cls-2" d="M982.66,495.91h3L879.14,601.7l0-5.62L980,495.9ZM879.2,585.57l90.34-89.7,5.61,0-96,95.31Zm0-10.5L959,495.83l5.63,0L879.21,580.7Zm0-10.5,69.25-68.78h5.63l-74.9,74.4Zm64-68.8-64,63.93v-5.63L938,495.75Zm-63.93,47.8,48.18-47.86,5.25,0-53.45,53.46Zm0-10.51L917,495.68h5.25l-42.91,43Zm0-10.5,27.1-26.92,5.25,0-32.37,32.52Zm21.85-26.94-21.83,22.06,0-5.62L896,495.61Zm-21.78,5.93,6-6,5.25,0-11.29,11.59Zm0-6h.74l-.76,1.13ZM995,496.7,879.11,612.21l0-5.63,111-110.27A29.7,29.7,0,0,1,995,496.7ZM938.51,678.06v.75l-59.85,59.43,0-5.26,185.94-185a26.29,26.29,0,0,1,1.86,3.77L939.26,678.06Zm.41-114.79-59.85,59.44,0-5.63,59.85-59.43Zm-59.87,64.32,59.85-59.44,0,5.63L879,633.21Zm0,10.5,59.85-59.44,0,5.63L879,643.71Zm0,10.5,59.85-59.44,0,5.63L879,654.21Zm0,10.51,59.84-59.45v5.63l-59.84,59.44Zm0,10.5,59.86-59.44,0,5.62-59.85,59.45Zm113.85-55.12-114,113.25,0-5.25L985.25,616.32A23.39,23.39,0,0,0,992.75,614.48ZM878.75,712l96-95.68h5.63L878.74,717.23Zm0-10.5,85.44-85.22,5.63,0-91.09,90.45Zm0-10.88,74.9-74.38,5.25,0-80.17,80Zm0-10.49,64.37-63.92,5.25,0-69.64,69.53Zm-.21,63.39,59.84-59.43v5.25l-59.85,59.43Zm0,14.63V754l59.85-59.43,0,5.25-58.72,58.32Zm6.37,0,53.45-53.08,0,5.25-48.18,47.85Zm10.5,0,42.92-42.61,0,5.25L900.72,758.2Zm10.5,0,32.38-32.15,0,5.26-27.11,26.9Zm10.5,0,21.84-21.67v5.25l-16.57,16.44Zm10.51,0,11.3-11.21,0,5.25-6,6Zm10.5,0,.76-.74v.75ZM1004,498.6l-59.84,59.07-5.25,0,60.59-60.19A30.6,30.6,0,0,1,1004,498.6Zm65.06,61L949.76,678.1l-5.24,0,123.09-122.61C1068.09,556.72,1068.59,558.11,1069.09,559.6Zm-56.81-58.72-57.59,56.83-5.25,0,58.34-57.94A29.94,29.94,0,0,1,1012.28,500.88Zm59,67-111,110.26-5.25,0L1070.2,563.36A30.28,30.28,0,0,1,1071.31,567.87Zm-53.42-64.72a12.15,12.15,0,0,0,1.88.76l-54.58,53.83-5.25,0,55.71-55.32C1016.4,502.65,1017.14,502.91,1017.89,503.15Zm54.88,73.72-102,101.3-5.25,0L1072,572A15.08,15.08,0,0,1,1072.77,576.87Zm-46.26-69.56-50.82,50.47-5.25,0,52.7-52.33C1024.38,506.17,1025.51,506.82,1026.51,507.31Zm47,79.31-92.21,91.59-5.26,0,97.12-96.82A35.71,35.71,0,0,1,1073.49,586.62Zm-40.25-75.16-47,46.72a20.72,20.72,0,0,0-3.74-.38h-1.51l48.93-48.6Zm39.46,86.41-80.54,80a43.56,43.56,0,0,0-5.63.36l86.94-86.36C1073.21,593.87,1073,595.88,1072.7,597.87ZM1039.24,516l-44.81,44.48c-1.25-.5-2.61-1-4.12-1.52l45.92-45.59A28.15,28.15,0,0,1,1039.24,516Zm5.6,4.89-44,43.73a21.23,21.23,0,0,0-3.36-2.26l44.41-44.11Zm25.57,89.73-65.5,65q-3,.74-6.75,1.48l73.78-73.26C1071.42,605.88,1070.92,608.12,1070.41,610.61Zm-20.34-84.46-44.41,43.73a12.08,12.08,0,0,0-2.24-3l44-43.73A26.08,26.08,0,0,0,1050.07,526.15Zm4.87,5.65L1009.38,577a11.65,11.65,0,0,0-1.47-4.13l44.4-44.11A30.65,30.65,0,0,1,1054.94,531.8Zm7.82,13.15L1009.31,598a40.39,40.39,0,0,0,2.28-7.87l49.31-49A13,13,0,0,1,1062.76,545Zm-3.72-6.76-47.43,47.1c-.26-1.75-.5-3.26-.74-4.51l45.93-46Zm7.2,84.8-2.27,4.48-42.15,41.87a33.57,33.57,0,0,1-4.51,1.86c-1.5.75-3.14,1.49-4.89,2.24l55.71-55.32C1067.62,619.61,1067,621.24,1066.24,623Zm-19.61,28.81a95.64,95.64,0,0,1-12.41,10.46l22.59-22.42A92,92,0,0,1,1046.63,651.8Z" transform="translate(-190.89 -310.05)"/><path class="cls-2" d="M1565.88,750.72a78.49,78.49,0,0,1,8.44.58,96.72,96.72,0,0,1,10.68,1.91,100.27,100.27,0,0,1,11.24,3.42,63.64,63.64,0,0,1,10.11,4.72c.5.51.37.77-.37.76l-18.76-.06a59.54,59.54,0,0,0-14.43-3.06q-8.07-.78-15.56-1.55c-2.75-.26-5.25-.45-7.5-.59a43.54,43.54,0,0,1-6.75-1,.33.33,0,0,1-.38-.38l3-7.86.36-.38,3,.77c2.74.75,5.49,1.39,8.25,1.9A48.73,48.73,0,0,0,1565.88,750.72ZM1552,760.79a9.38,9.38,0,0,1,1.69.19,7.56,7.56,0,0,0,1.67.2.38.38,0,1,1,0,.75l-11.25,0c-.26,0-.36-.13-.36-.37s.11-.38.37-.38h2.62a5.93,5.93,0,0,0,1.5-.19,7,7,0,0,1,1.51-.18Zm9.81-18.34c-1.26.24-2.38.43-3.38.55a26.7,26.7,0,0,1-3.37.17c-3.51,0-5.75-.76-6.75-2.27v-.37l4.17-10.5.37-.37q12,0,27.93,4.42A176,176,0,0,1,1612,746l.38.38-3.41,9.74c0,.26-.26.38-.75.38a134.92,134.92,0,0,0-22.29-11c-7.36-2.78-13.18-4.17-17.42-4.19Zm53.66-4.33a.33.33,0,0,1-.38.38,131,131,0,0,0-29.4-11.36A121.2,121.2,0,0,0,1557,723.3h-2.25c-.25,0-.37-.26-.37-.75l3.41-9,.37-.38c6.76.29,12.81.69,18.19,1.23a86.77,86.77,0,0,1,15,2.78,102.9,102.9,0,0,1,13.49,4.9,137,137,0,0,1,13.67,7.07v.37Zm-40-43.26c1.5,0,3,.07,4.5.2s3.24.34,5.25.6c2.25.53,5.87,1.56,10.87,3.13s10.43,3.56,16.3,6,11.91,5.24,18.16,8.35,11.85,6.21,16.85,9.3c.49.52.37.79-.39.78l-22.5-.07q-10.47-6.21-20.59-11t-16.49-4.88l-5.25,0a37.06,37.06,0,0,0-5.25.36c-2,.25-3.94.44-5.82.55s-4.07.17-6.57.16l-4.49,0a.33.33,0,0,1-.38-.38l4.55-12.34.37-.39q3.75-.35,6.57-.35Zm175.25-21.12h.37c-1.26.75-3.32,1.81-6.2,3.18s-6.2,3-9.95,4.7q-8.65,4.13-17.67,8.62t-12.4,8.65q-6.78,7.9-11.21,13.74a90.94,90.94,0,0,0-7,10.37l-.36.38-22.81-.08q-7.85-6.46-21.52-13.15t-28.1-12q-14.42-5.34-27.15-8.8t-18.37-3.47c-.26,0-.38-.12-.38-.39l3.41-10.11.38-.38a96.69,96.69,0,0,1,35,7.81,336.79,336.79,0,0,1,30.52,15.3q7.88,4.17,16.85,8.88t18,8.5a20.26,20.26,0,0,0,3.56-.36,21.2,21.2,0,0,1,3.57-.37,33.13,33.13,0,0,0,4.29-4.37c1.61-1.91,3.15-3.81,4.59-5.71a51.87,51.87,0,0,0,3.8-5.71,10.63,10.63,0,0,0,1.63-5.16,8.59,8.59,0,0,0-2.84-6.21,27.79,27.79,0,0,0-7.12-4.9,44.35,44.35,0,0,0-8.74-3.21,30.33,30.33,0,0,0-7.12-1.15,58.33,58.33,0,0,0-7.32.53c-2.88.36-4.31,1.93-4.32,4.68q0,2.63,3.54,6.2t6.18,3.59a4,4,0,0,0,2.44-1.12c.87-.75,1.56-1.37,2.07-1.87s1.19-1.12,2.07-1.87a4.72,4.72,0,0,1,3.19-1.11,9.15,9.15,0,0,1,6,2.64c2,1.76,3,3.64,3,5.64s-.89,4.47-2.64,7.16-3.9,4.08-6.41,4.07c-6,0-10.68-1.24-14-3.62a97,97,0,0,1-9.92-8.1c-1.49-1.5-3-3-4.67-4.51a36.75,36.75,0,0,0-5.42-4.15c-.5-.24-3.37-1.14-8.62-2.66s-11.38-3.28-18.36-5.31-14.18-4-21.55-6.08-13.43-3.67-18.17-4.94c-.26,0-.38-.12-.38-.37l3.79-9.74c0-.26.12-.38.37-.38q7.88,3,17.8,6.25t19.29,5.88q9.38,2.67,16.5,4.38a53,53,0,0,0,10.12,1.72,22,22,0,0,0,5.81-.74q2.82-.74,5.82-1.85t5.82-2a18.17,18.17,0,0,1,5.82-.92,40.76,40.76,0,0,1,16.4,3.28,112.74,112.74,0,0,1,12.45,6.26q6.36,3.81,9,3.82,5.64,0,20.47-6.54t32.87-16.25a.33.33,0,0,1,.38.37l2.6,7.51v.38ZM1583.9,640.5c0-.26.12-.38.37-.38a184.13,184.13,0,0,0,32.79,10.43,166.25,166.25,0,0,0,27.93,4c.24,0,.36.12.36.38l-4.16,10.11-.36.38a106.81,106.81,0,0,1-31.5-4.62,137.21,137.21,0,0,1-27.71-12.1l-.38-.38Zm59.62,4.32a145.31,145.31,0,0,1-56.6-11.82l-.38-.37,3-8.24a.34.34,0,0,1,.38-.38,109.5,109.5,0,0,0,19.68,4.39q10.3,1.33,19.68,2.5l12.56,1.55a74.79,74.79,0,0,1,10.31,1.9.35.35,0,0,1,.38.39l-3.79,10.1-.37.38a8,8,0,0,0-2.44-.39Zm-23.87-41.72a30.85,30.85,0,0,0-4.64-12,75.72,75.72,0,0,0-9.15-12v-.38l3.79-10.11c0-.25.24-.38.75-.38q4.86,4.15,10.1,9a22.33,22.33,0,0,1,5.4,10.51c.61,3.51,1.16,6.75,1.66,9.76a50.46,50.46,0,0,0,1.1,6.94,10.44,10.44,0,0,0,3.16,5.45,17.32,17.32,0,0,0,7.31,3.59,54,54,0,0,0,13.49,1.37,22.69,22.69,0,0,0,7.13-1.11.33.33,0,0,1,.38.37l-4.93,13.5-.37.36-9.74-2.28q-6.75-1.89-13.69-3.23a73.08,73.08,0,0,0-13.68-1.36,79.2,79.2,0,0,1-25.11-3.84.33.33,0,0,1-.38-.38l2.64-7.11a.34.34,0,0,1,.38-.38,33.83,33.83,0,0,0,14.62,3.43,10.4,10.4,0,0,0,7.51-3.35v.38Zm-14.2-10.55h.36a9.85,9.85,0,0,1,4.68,2.45,6.88,6.88,0,0,1,1.67,5.07,1.66,1.66,0,0,1-.18.75,2.62,2.62,0,0,0-.19,1.13v.38l-5.64,3.35a6.5,6.5,0,0,1-3.2-.76c-.87-.5-1.67-1-2.43-1.51l0-7.12ZM1661,570.61q39,.15,55.59-24.18c.5-.49.76-.37.76.38l4.08,11.64v.37a54.47,54.47,0,0,1-9,7.1,51.13,51.13,0,0,1-10.52,5.21,94.45,94.45,0,0,0-10.9,5.6,75.68,75.68,0,0,1-9.21,5.22c-3.13,1.48-5.45,2.23-7,2.22a68.9,68.9,0,0,1-7.5-.78c-3.75-.5-7.81-1.15-12.18-1.92L1643,579.36a43.76,43.76,0,0,1-7.49-1.7,70.59,70.59,0,0,1-9-4.53q-6.73-3.78-15-9.06v-.37l3.41-10.12c0-.24.25-.38.75-.38q10.11,6.43,20.59,11.9T1661,570.61Zm2.26-6.73a72.4,72.4,0,0,1-25.68-4.41,61.55,61.55,0,0,1-20-12.25v-.38l3.78-11.24c0-.75.26-.87.75-.38a45.75,45.75,0,0,0,17.78,12.91,58.62,58.62,0,0,0,22.67,4.49q13.52,0,26.67-8.07a52.41,52.41,0,0,0,19.58-20.65.37.37,0,1,1,.74,0l4.09,12v.37a63.33,63.33,0,0,1-21.81,20A56.71,56.71,0,0,1,1663.3,563.88Zm37-64.77.38.38,4.45,13.14a32.81,32.81,0,0,1-6.61,12.73,53,53,0,0,1-10.73,9.72,48.82,48.82,0,0,1-13.14,6.33,46,46,0,0,1-13.89,2.2q-17.26-.06-24.74-5.71a29.7,29.7,0,0,1-10.45-14.3l5.31-14.61a.32.32,0,0,1,.37-.36c.25,0,.38.12.38.36a53.34,53.34,0,0,0,12.88,16.19,27,27,0,0,0,17.8,6.43,35.52,35.52,0,0,0,23.09-8q10-8,10-21.54v-2.62a.33.33,0,0,1,.37-.38Zm-61.07,87.94a8.3,8.3,0,0,1,3.37,1.51,13.38,13.38,0,0,1,2.62,2.64,33.27,33.27,0,0,0,2.8,2.44,4.91,4.91,0,0,0,2.81,1.32,8,8,0,0,0,2.83-1.11c1.36-.75,2.67-1.49,3.93-2.24a15,15,0,0,0,3-1.49,3.69,3.69,0,0,1,1.88-.74,8,8,0,0,1,6.37,2.64v2.26a.33.33,0,0,1-.38.37.32.32,0,0,1-.37-.37l-.37-1.5-4.54,11.61a25.65,25.65,0,0,1-13.9,3.7c-5.25,0-9.13-1.78-11.61-5.3a25.21,25.21,0,0,1-4.45-12.39l.37-.37Zm26.15-74.93a7.62,7.62,0,0,0,7-4.3,21,21,0,0,0,2.84-8.42.33.33,0,0,1,.37-.38l11.26,0a.34.34,0,0,1,.37.38,27.59,27.59,0,0,1-6.81,17.24,20.26,20.26,0,0,1-16.15,7.44,23.1,23.1,0,0,1-17-7.56,55,55,0,0,1-11.38-17.3.33.33,0,0,1,.38-.37l10.5,0,.37.39a29.1,29.1,0,0,0,8,9A17.14,17.14,0,0,0,1665.37,512.12Zm-5.21-12a4.93,4.93,0,0,1-2.26-.39c-.25,0-.38-.12-.37-.37a.34.34,0,0,1,.38-.38l4.5,0a.38.38,0,1,1,0,.75A5.14,5.14,0,0,1,1660.16,500.1Zm49.61,76.31a.33.33,0,0,0,.38.38h.75l.37.38,1.86,4.49a30.66,30.66,0,0,1-4.89,5.44q-3.78,3.55-9,8.4t-11.47,10.09q-6.23,5.24-11.86,9.71c-.51,0-.75-.13-.75-.38l-3-9v-.37c1.25-1.49,2.63-3,4.14-4.48a39.56,39.56,0,0,0,4.14-4.87,133.64,133.64,0,0,1,12.62-13.65,22.87,22.87,0,0,1,16.33-6.13Zm-9.64,78.75a32.09,32.09,0,0,1-11.26-2.3l-.36-.38-10.78-30.79v-.37a67.8,67.8,0,0,1,8.48-7.11,110.3,110.3,0,0,1,10-6.32q5.64-3.75,10.71-7.48a43.23,43.23,0,0,0,8.1-7.47,53.51,53.51,0,0,0,4.53-7.86c2-4,4-8.48,6-13.48a.38.38,0,0,1,.76,0l4.08,11.64a74.1,74.1,0,0,0-3.41,9.36q-2.65,9-8.85,13.29a122.14,122.14,0,0,1-13.35,8,81.38,81.38,0,0,0-11.47,6.91,35.12,35.12,0,0,0-9.22,9.9v1.88a11.6,11.6,0,0,0,4.84,10,18.63,18.63,0,0,0,11.25,3.6,43.78,43.78,0,0,0,20.08-5,136.34,136.34,0,0,0,18.23-11l6.76-4.11a.33.33,0,0,1,.38.37l3.34,10.15-.38.37a299.81,299.81,0,0,1-27.8,12.85Q1707.26,655.19,1700.13,655.16Zm-7.44,10.47-1.09-3.75a.34.34,0,0,1,.38-.38c1.47.26,3,.45,4.66.58s3.43.2,5.43.21q7.52,0,20.84-5a227.21,227.21,0,0,0,28.36-13.22.34.34,0,0,1,.38.38l3.34,9.76-.37.38a206.45,206.45,0,0,1-27.81,13.78q-13.14,5.21-20.27,5.18a30.58,30.58,0,0,1-11-2.29q-5.79-2.28-10.66-4.16a1.55,1.55,0,0,1-1.12-.39,1,1,0,0,1-.75-.38.32.32,0,0,1-.37-.36c0-.26.12-.38.37-.38Zm21.82-46.81a8.35,8.35,0,0,1,8.59,8.66,6,6,0,0,1-1.51,3.74,4.3,4.3,0,0,1-3.38,1.87c-4.26,0-7.19.42-8.82,1.28a29.4,29.4,0,0,0-4.33,2.8c-.75.5-1.44.93-2.06,1.3a5.58,5.58,0,0,1-2.82.55,6.37,6.37,0,0,1-4.31-1.89,9.67,9.67,0,0,1-2.79-4.13,7.14,7.14,0,0,1,2.45-5.06,29.1,29.1,0,0,1,6-4.48,45,45,0,0,1,7.14-3.34A17.59,17.59,0,0,1,1714.51,618.82Zm-17.63,104.59c-.25,0-.37-.38-.36-1.13a92.77,92.77,0,0,1,7-9.72,87.82,87.82,0,0,1,8.85-9.35,38.69,38.69,0,0,1,8.83-6.15c3.89-2.12,7.45-4,10.72-5.79l8.26-4.47h-.38L1762,674.5c.5,0,.74.12.74.37l4.46,12.77-.37.38a33.52,33.52,0,0,1-6.77,3.16c-2.5.87-5.13,1.93-7.89,3.16a214,214,0,0,0-22.73,10.24q-11.82,6.17-20.5,18.87Zm18.73,7.11v-.38a83.94,83.94,0,0,1,23-24.12A71.4,71.4,0,0,1,1769,693.66l.38.39,3.71,10.85c0,.27-.13.39-.37.39a60.63,60.63,0,0,0-29.87,12.1,86.61,86.61,0,0,0-22.39,24.48.35.35,0,0,1-.39.37.32.32,0,0,1-.37-.37Zm8.55,23.75a64.13,64.13,0,0,1,20.54-27.13,69.09,69.09,0,0,1,31-14l.39.39,3.7,10.87a.34.34,0,0,1-.38.39,54.82,54.82,0,0,0-14.83,4.41,63.32,63.32,0,0,0-13.54,8.3,68.54,68.54,0,0,0-11.1,11.29,43.46,43.46,0,0,0-7.17,13.35l-.38.37-4.87,0-.38-.37Zm7.27-147.77c2,0,4.06,1,6.17,2.84s3.18,3.83,3.17,5.82a8,8,0,0,1-2.08,5.62,7,7,0,0,1-5.44,2.23c-1.76,0-3.56-1.25-5.44-3.77s-2.78-4.64-2.78-6.39a6.35,6.35,0,0,1,1.89-4.3A5.83,5.83,0,0,1,1731.43,606.5Zm11.08,156.09a.34.34,0,0,1-.38-.38,43,43,0,0,1,16.2-20,50.81,50.81,0,0,1,24.79-8.73l.37.38,3.35,10.13a.33.33,0,0,1-.37.38,39.52,39.52,0,0,0-17.47,5.57,41.91,41.91,0,0,0-13.37,12.7Zm51-.21a.35.35,0,0,1-.38.38l-24.38-.08c-.75,0-.88-.26-.38-.76,5-4.47,10.4-6.72,16.15-6.7a27.31,27.31,0,0,1,3,.2c1,.13,2.13.33,3.38.58l.38.38Z" transform="translate(-190.89 -310.05)"/><path class="cls-2" d="M687.53,310.68v8.6h-7.3v27.87h-9.17V319.28h-7.29v-8.6Z" transform="translate(-190.89 -310.05)"/><path class="cls-2" d="M695.34,338.5a3.82,3.82,0,0,0,2-.47,5.25,5.25,0,0,0,1.82-1.67l3.39-5.47-12.46-20.21h10.22l7.34,11.88L715,310.68h10.21l-18.54,30.06h0a11.63,11.63,0,0,1-4.74,5,13.52,13.52,0,0,1-6.52,1.48Z" transform="translate(-190.89 -310.05)"/><path class="cls-2" d="M736,336v11.15h-8.28V310.68H742a12.39,12.39,0,0,1,4.92,1,12.61,12.61,0,0,1,6.75,6.74,12.89,12.89,0,0,1,0,9.86,12.61,12.61,0,0,1-6.75,6.74,12.39,12.39,0,0,1-4.92,1Zm0-8.6h6a4.06,4.06,0,0,0,0-8.12h-6Z" transform="translate(-190.89 -310.05)"/><path class="cls-2" d="M773,324.64a13,13,0,0,1,6.85,1.67,11.28,11.28,0,0,1,4.11,4.16,11.33,11.33,0,0,1,0,10.84,11.23,11.23,0,0,1-4.11,4.17,13,13,0,0,1-6.85,1.67H758.66V310.68h24.12v8.6H767.83v5.36Zm-5.16,13.91H773a3.85,3.85,0,0,0,3-1.1,3.48,3.48,0,0,0,1-2.39,3.4,3.4,0,0,0-1-2.4,3.82,3.82,0,0,0-3-1.09h-5.16Z" transform="translate(-190.89 -310.05)"/><path class="cls-2" d="M821,347.15h-9.12v-20c-.76,1.48-1.62,3.09-2.56,4.81s-1.92,3.47-2.94,5.24-2.05,3.51-3.08,5.21-2,3.27-2.94,4.74h-9.12V310.68h9.12v20.11c.76-1.5,1.62-3.12,2.56-4.88s1.92-3.51,2.94-5.28,2.05-3.51,3.07-5.21,2-3.28,3-4.74H821Z" transform="translate(-190.89 -310.05)"/><path class="cls-2" d="M826.16,321.31a10.16,10.16,0,0,1,1.13-4.9,11,11,0,0,1,2.88-3.49,12.35,12.35,0,0,1,4-2.09,15,15,0,0,1,4.33-.67,17,17,0,0,1,4.35.59,12.54,12.54,0,0,1,4,1.89,9.83,9.83,0,0,1,2.92,3.25,9.33,9.33,0,0,1,1.12,4.69,11.34,11.34,0,0,1-1.05,5.18,6.36,6.36,0,0,1-3.69,3.05,6.18,6.18,0,0,1,3.69,3,11.54,11.54,0,0,1,1.05,5.21,9.23,9.23,0,0,1-1.12,4.67,9.92,9.92,0,0,1-2.92,3.22,12.09,12.09,0,0,1-4,1.87,16.17,16.17,0,0,1-4.35.6,14.67,14.67,0,0,1-4.33-.67,12.32,12.32,0,0,1-4-2.08,11,11,0,0,1-2.88-3.49,10.22,10.22,0,0,1-1.13-4.9h9a3.5,3.5,0,0,0,.94,2.68,3.1,3.1,0,0,0,2,1,2.8,2.8,0,0,0,2-.74,2.91,2.91,0,0,0,.94-2.39,10.51,10.51,0,0,0-.23-2.47,2.65,2.65,0,0,0-.94-1.52,4.38,4.38,0,0,0-1.95-.75,21.06,21.06,0,0,0-3.34-.21v-6.1a21.25,21.25,0,0,0,3.34-.2,4.38,4.38,0,0,0,1.95-.75,2.64,2.64,0,0,0,.94-1.49,10.33,10.33,0,0,0,.23-2.45,3,3,0,0,0-.94-2.43,2.81,2.81,0,0,0-2-.75,3.05,3.05,0,0,0-2,1,3.49,3.49,0,0,0-.94,2.68Z" transform="translate(-190.89 -310.05)"/><path class="cls-2" d="M872.48,332.14h-7.34v15H856V310.68h9.12v12.76h7.34Zm0-8.7H874V310.68h9.12v36.47H874v-15h-1.56Z" transform="translate(-190.89 -310.05)"/><path class="cls-2" d="M889.26,310.68H915v8.6H898.38v5.36H908.6v8.6H898.38v5.36H915v8.55H889.26Z" transform="translate(-190.89 -310.05)"/><path class="cls-2" d="M934.14,310.26a21.2,21.2,0,0,1,4.77.53,14.34,14.34,0,0,1,4.19,1.69,13.11,13.11,0,0,1,3.41,3,15.39,15.39,0,0,1,2.42,4.58l-9.74,2a5.41,5.41,0,0,0-2.32-2.74,6.57,6.57,0,0,0-3.15-.75,6.85,6.85,0,0,0-2.56.47,4.62,4.62,0,0,0-2.08,1.67,9.28,9.28,0,0,0-1.41,3.22,26,26,0,0,0,0,10.24,9.34,9.34,0,0,0,1.41,3.2,4.69,4.69,0,0,0,2.08,1.67,6.85,6.85,0,0,0,2.56.47,6.69,6.69,0,0,0,3.15-.75,5.45,5.45,0,0,0,2.32-2.74L949,338.2a14.92,14.92,0,0,1-2.44,4.57,13.5,13.5,0,0,1-3.42,3.06,13.81,13.81,0,0,1-4.19,1.69,22,22,0,0,1-4.79.52,20.43,20.43,0,0,1-6.28-.94,12.13,12.13,0,0,1-5.13-3.16,15.24,15.24,0,0,1-3.47-5.82,32.24,32.24,0,0,1,0-17.92,15.3,15.3,0,0,1,3.47-5.85,12.41,12.41,0,0,1,5.13-3.15A20.74,20.74,0,0,1,934.14,310.26Z" transform="translate(-190.89 -310.05)"/><path class="cls-2" d="M987.19,332.14h-7.35v15h-9.12V310.68h9.12v12.76h7.35Zm0-8.7h1.56V310.68h9.11v36.47h-9.11v-15h-1.56Z" transform="translate(-190.89 -310.05)"/><path class="cls-2" d="M1014,310.68h9.12l13,36.47h-9.12l-2-5.47h-12.87l-1.93,5.47h-9.11Zm8.23,23.13-3.64-10.27-3.65,10.27Z" transform="translate(-190.89 -310.05)"/><path class="cls-2" d="M1067.62,310.05a20.14,20.14,0,0,1,6.28,1,12.55,12.55,0,0,1,5.13,3.2,15.66,15.66,0,0,1,3.46,5.83,31.58,31.58,0,0,1,0,17.8,15.27,15.27,0,0,1-3.46,5.83,12.85,12.85,0,0,1-5.13,3.19,20.14,20.14,0,0,1-6.28.95,20.37,20.37,0,0,1-6.27-.93,12.22,12.22,0,0,1-5.14-3.16,15.4,15.4,0,0,1-3.46-5.83,32,32,0,0,1,0-17.92,15.44,15.44,0,0,1,3.46-5.84,12.51,12.51,0,0,1,5.14-3.15A20.67,20.67,0,0,1,1067.62,310.05Zm-.41,8.4a7,7,0,0,0-2.56.46,4.71,4.71,0,0,0-2.08,1.67,9.42,9.42,0,0,0-1.41,3.23,25.42,25.42,0,0,0,0,10.23,9.31,9.31,0,0,0,1.41,3.21,4.78,4.78,0,0,0,2.08,1.67,7.18,7.18,0,0,0,5.11,0,5,5,0,0,0,2.11-1.67,8.78,8.78,0,0,0,1.43-3.21,25.42,25.42,0,0,0,0-10.23,8.89,8.89,0,0,0-1.43-3.23,4.89,4.89,0,0,0-2.11-1.67A7,7,0,0,0,1067.21,318.45Z" transform="translate(-190.89 -310.05)"/><path class="cls-2" d="M1103.42,310.05a20.51,20.51,0,0,1,4.77.53,14.23,14.23,0,0,1,4.19,1.69,12.76,12.76,0,0,1,3.41,3,15.47,15.47,0,0,1,2.43,4.59l-9.74,2a5.37,5.37,0,0,0-2.32-2.74,6.61,6.61,0,0,0-3.16-.75,7,7,0,0,0-2.55.46,4.79,4.79,0,0,0-2.09,1.67,9.24,9.24,0,0,0-1.4,3.23,25.42,25.42,0,0,0,0,10.23,9.12,9.12,0,0,0,1.4,3.21,4.86,4.86,0,0,0,2.09,1.67,7,7,0,0,0,2.55.47,6.73,6.73,0,0,0,3.16-.76,5.43,5.43,0,0,0,2.32-2.73l9.79,2.08a15,15,0,0,1-2.45,4.58,13.18,13.18,0,0,1-7.61,4.74,21.31,21.31,0,0,1-4.79.52,20.48,20.48,0,0,1-6.28-.93,12.25,12.25,0,0,1-5.13-3.16,15.4,15.4,0,0,1-3.46-5.83,32,32,0,0,1,0-17.92,15.44,15.44,0,0,1,3.46-5.84,12.54,12.54,0,0,1,5.13-3.15A20.79,20.79,0,0,1,1103.42,310.05Z" transform="translate(-190.89 -310.05)"/><path class="cls-2" d="M1144.48,310.68v8.6h-7.3v27.87H1128V319.28h-7.29v-8.6Z" transform="translate(-190.89 -310.05)"/><path class="cls-2" d="M1156.9,336v11.15h-8.28V310.68H1163a12.39,12.39,0,0,1,4.92,1,12.81,12.81,0,0,1,4,2.71,13.05,13.05,0,0,1,2.71,4,12.89,12.89,0,0,1,0,9.86,13.05,13.05,0,0,1-2.71,4,12.81,12.81,0,0,1-4,2.71,12.39,12.39,0,0,1-4.92,1Zm0-8.6h6a4.06,4.06,0,0,0,0-8.12h-6Z" transform="translate(-190.89 -310.05)"/><path class="cls-2" d="M1193.67,310.05a20.14,20.14,0,0,1,6.28,1,12.48,12.48,0,0,1,5.13,3.2,15.66,15.66,0,0,1,3.46,5.83,31.58,31.58,0,0,1,0,17.8,15.27,15.27,0,0,1-3.46,5.83,12.78,12.78,0,0,1-5.13,3.19,20.14,20.14,0,0,1-6.28.95,20.37,20.37,0,0,1-6.27-.93,12.22,12.22,0,0,1-5.14-3.16,15.4,15.4,0,0,1-3.46-5.83,32,32,0,0,1,0-17.92,15.44,15.44,0,0,1,3.46-5.84,12.51,12.51,0,0,1,5.14-3.15A20.67,20.67,0,0,1,1193.67,310.05Zm-.41,8.4a7,7,0,0,0-2.56.46,4.71,4.71,0,0,0-2.08,1.67,9.42,9.42,0,0,0-1.41,3.23,25.42,25.42,0,0,0,0,10.23,9.31,9.31,0,0,0,1.41,3.21,4.78,4.78,0,0,0,2.08,1.67,7.18,7.18,0,0,0,5.11,0,5,5,0,0,0,2.11-1.67,8.78,8.78,0,0,0,1.43-3.21,25.42,25.42,0,0,0,0-10.23,8.89,8.89,0,0,0-1.43-3.23,4.89,4.89,0,0,0-2.11-1.67A7,7,0,0,0,1193.26,318.45Z" transform="translate(-190.89 -310.05)"/><path class="cls-2" d="M1213.9,310.68h15.63a13.91,13.91,0,0,1,4.06.6,10.49,10.49,0,0,1,3.49,1.79,9.1,9.1,0,0,1,2.42,3,8.77,8.77,0,0,1,.92,4.06,9,9,0,0,1-1.62,5.29,10.32,10.32,0,0,1-4.27,3.53,10.2,10.2,0,0,1,4.27,3.51,9,9,0,0,1,1.62,5.29,8.74,8.74,0,0,1-.92,4.06,8.9,8.9,0,0,1-2.42,3,10.33,10.33,0,0,1-3.49,1.8,13.91,13.91,0,0,1-4.06.6H1213.9Zm9.12,8.6v6h5.78a2.32,2.32,0,0,0,1.92-.9,3.19,3.19,0,0,0,.73-2.06,3.33,3.33,0,0,0-.73-2.06,2.29,2.29,0,0,0-1.92-1Zm5.78,13.23H1223v6.09h5.78a2.27,2.27,0,0,0,1.92-1,3.35,3.35,0,0,0,.73-2.06,3.3,3.3,0,0,0-.73-2.05,2.3,2.3,0,0,0-1.92-1Z" transform="translate(-190.89 -310.05)"/><path class="cls-2" d="M1255.18,310.68h9.12l13,36.47h-9.11l-2-5.47H1253.3l-1.92,5.47h-9.12Zm8.24,23.13-3.66-10.27-3.64,10.27Z" transform="translate(-190.89 -310.05)"/><path class="cls-2" d="M1301.4,310.68h10.22l-10,16.25,12.45,20.22h-10.21l-7.34-11.88-7.35,11.88h-10.22l12.46-20.22-10-16.25h10.21l4.9,8Z" transform="translate(-190.89 -310.05)"/><g class="cls-3"><g id="_7Ul0tJ" data-name="7Ul0tJ"><path class="cls-4" d="M1344.5,524.11c.38.13.77.29,1.16.41,4,1.2,8.52,5.33,8.48,7.71s-5.35,6.19-9.64,6.76Z" transform="translate(-190.89 -310.05)"/><path class="cls-4" d="M1344.5,567.09c4.82-.27,6.92,3.51,9.45,6.53a2.73,2.73,0,0,1-.59,2.54c-2.86,2.07-5.89,3.9-8.86,5.81Z" transform="translate(-190.89 -310.05)"/><path class="cls-4" d="M1344.5,610.07c.26.09.52.19.78.26,4.36,1.22,8.8,5.19,8.8,7.88,0,2.31-5.27,6-9.58,6.74Z" transform="translate(-190.89 -310.05)"/><path class="cls-4" d="M1344.5,739.85c4.79-.22,6.92,3.52,9.47,6.52a2.56,2.56,0,0,1-.21,2.49c-3,2.08-6.15,3.94-9.26,5.87Z" transform="translate(-190.89 -310.05)"/><path class="cls-4" d="M1344.5,653.89c4.71-.07,7,3.47,9.41,6.6.41.53.33,2.2-.11,2.48-3,2.06-6.17,3.89-9.3,5.79Z" transform="translate(-190.89 -310.05)"/><path class="cls-4" d="M1344.5,696.86c4.14.18,8.93,3.31,9.57,6.68.16.86-1.09,2-1.73,3-1.82,2.87-4.3,4.57-7.84,4.36Z" transform="translate(-190.89 -310.05)"/><path class="cls-4" d="M1422,642.35l-5.12,2.77c.79-3.23,2.92-5.87-1.23-8.53.42-.21.83-.44,1.24-.65l4.35,2.15c2.91-1.77,5.48-3.91,8.44-5a10.43,10.43,0,0,1,13.09,6.29,3.46,3.46,0,0,1-.94,2.65C1435.42,649.1,1428.28,649.12,1422,642.35Z" transform="translate(-190.89 -310.05)"/><path class="cls-4" d="M1557.94,638.05c3.1-1.83,5.8-4,8.88-5.07,5.07-1.74,11.55,1.8,12.77,6.62.21.78-.83,2.13-1.62,2.88-6.71,6.49-12.85,6.42-19.31-.07l-5.08,2.68c.81-3.19,2.73-5.84-1-8.37.29-.24.58-.5.86-.75Z" transform="translate(-190.89 -310.05)"/><path class="cls-4" d="M1490.34,642.45l-5.27,2.64c1.12-3.21,2.82-5.83-.94-8.45l.94-.7,4.62,2.14c2.84-1.71,5.49-3.93,8.54-5a10.52,10.52,0,0,1,13,6.43c.23.66-.42,1.87-1,2.5C1503.38,649,1497,649.11,1490.34,642.45Z" transform="translate(-190.89 -310.05)"/><path class="cls-4" d="M1456.21,642.37l-5.1,2.67c1-3.18,2.74-5.81-1.07-8.39l1-.68,4.5,2.19c2.77-1.71,5.32-3.87,8.26-4.95a10.49,10.49,0,0,1,13.3,6.3c.23.72-.84,2.14-1.62,2.9C1468.79,649,1462.78,648.89,1456.21,642.37Z" transform="translate(-190.89 -310.05)"/><path class="cls-4" d="M1573.33,619.81l-4.78,2.63c.16-3,.3-5.58.45-8.55l4,1.94c2.18-1.51,4.38-3.63,7-4.77a11.07,11.07,0,0,1,14.58,5.94,2.56,2.56,0,0,1-.41,2.18C1586.79,627.72,1578.6,625.67,1573.33,619.81Z" transform="translate(-190.89 -310.05)"/><path class="cls-4" d="M1436.73,533.86l-5.09,2.86-.62-.61c.63-1.23,1.71-2.45,1.75-3.69s-.91-2.7-1.84-5.12l5.86,3a12.28,12.28,0,0,1,10.82-6c4.25,0,9.13,3.46,9.85,7.18.14.77-.86,1.92-1.57,2.68C1449.72,540.7,1442.62,540.56,1436.73,533.86Z" transform="translate(-190.89 -310.05)"/><path class="cls-4" d="M1388,728.09l-5.1,2.83c.86-3.17,2.59-5.84-1-8.41.29-.22.59-.44.88-.68,1.67.86,3.34,1.69,4.09,2.08,3.76-1.92,7-4.29,10.59-5.22,4.62-1.21,10.15,2.5,11.27,6.84.18.74-.84,2-1.55,2.72C1401.08,734.91,1393.81,734.8,1388,728.09Z" transform="translate(-190.89 -310.05)"/><path class="cls-4" d="M1348.49,645.09c1.18-3.29,3-5.94-1.18-8.6l1.17-.63,4.66,2.26c2.75-1.69,5.29-3.85,8.22-4.94a10.63,10.63,0,0,1,13.36,6.25A3,3,0,0,1,1374,642c-7.31,7-12.94,7.1-20.25.51Z" transform="translate(-190.89 -310.05)"/><path class="cls-4" d="M1368.45,534l-5,2.76c1.11-3.25,2.66-5.89-1.15-8.5l1.06-.66,4.58,2.3c2.55-1.66,4.94-3.79,7.75-4.88a10.2,10.2,0,0,1,13.45,6c.28.7-.38,1.91-.86,2.74C1383.85,541,1373.86,540.25,1368.45,534Z" transform="translate(-190.89 -310.05)"/><path class="cls-4" d="M1402.51,619.94l-5.14,2.68c1.29-3.22,2.68-5.85-.85-8.47l.84-.7c1.65.81,3.29,1.64,5.25,2.61,2.61-3.6,6.3-6.12,11.38-5.87,3.79.16,8.79,3.75,9.55,7,.15.62-.48,1.51-.94,2.16C1416.82,627.75,1407.56,625.4,1402.51,619.94Z" transform="translate(-190.89 -310.05)"/><path class="cls-4" d="M1368.58,619.8c-2,1-3.64,1.91-5.31,2.81,1.26-3.3,3-5.93-1.3-8.67.46-.19.94-.39,1.4-.56,1.68.88,3.37,1.78,5.18,2.75a12.61,12.61,0,0,1,10.87-6c4.13,0,8.77,3.09,9.87,6.75a3.32,3.32,0,0,1-.81,2.46C1382.94,626.58,1375,626.71,1368.58,619.8Z" transform="translate(-190.89 -310.05)"/><path class="cls-4" d="M1573.5,530.24a12.54,12.54,0,0,1,10-6c4.51-.34,9.29,2.67,10.62,6.82.24.7-.45,1.94-1.06,2.61-6.32,7-13.15,7-19.72.25l-5,2.69c1-3.18,2.65-5.74-1-8.24.32-.25.64-.49,1-.75C1569.91,528.47,1571.54,529.27,1573.5,530.24Z" transform="translate(-190.89 -310.05)"/><path class="cls-4" d="M1558.77,555.34c-1.94,1-3.6,1.93-5.27,2.82,1.56-3.28,2.31-5.93,0-9.19l4.61,2.39c2.47-1.66,4.74-3.73,7.41-4.84a10.52,10.52,0,0,1,13.9,5.89c.28.72-.72,2.22-1.48,3C1571.77,562.09,1564.67,562,1558.77,555.34Z" transform="translate(-190.89 -310.05)"/><path class="cls-4" d="M1387.92,642.25c-1.72,1-3.42,1.89-5.11,2.84.89-3.17,2.7-5.8-.94-8.37l.86-.71,4.56,2.19c2.65-1.69,5.14-3.87,8-5a10.45,10.45,0,0,1,13.37,6.24c.22.69-.69,2-1.39,2.75C1401,649,1393.9,648.94,1387.92,642.25Z" transform="translate(-190.89 -310.05)"/><path class="cls-4" d="M1558.69,728.2c-1.9,1-3.5,1.87-5.09,2.73,1.06-3.2,2.61-5.85-1.09-8.39l1-.72,4.55,2.28c2.77-1.72,5.41-4,8.48-5.11,5.19-1.89,11.7,1.55,13,6.42.18.68-.47,1.74-1,2.42C1573,734.93,1565.2,735,1558.69,728.2Z" transform="translate(-190.89 -310.05)"/><path class="cls-4" d="M1470.91,705.82l-5.28,2.94c1.18-3.19,2.58-5.72-.76-8.32.31-.25.62-.51.92-.78l5.06,2.83-.74-.79c3.52-1.79,6.85-4.22,10.57-5.2,4.36-1.16,9.72,2.34,11.11,6.52.25.76-.8,2.22-1.59,3C1483.81,712.77,1476.8,712.56,1470.91,705.82Z" transform="translate(-190.89 -310.05)"/><path class="cls-4" d="M1381.75,686.75c2.82-2.52,3.07-5,.82-8.28l4.53,2.24c3.18-1.83,6-4.14,9.19-5.1a10.19,10.19,0,0,1,12.33,6.3,3,3,0,0,1-.63,2.44c-5.89,7.3-13.75,7.42-20,.53-1.75.93-3.47,1.82-5.19,2.71Z" transform="translate(-190.89 -310.05)"/><path class="cls-4" d="M1592.75,598.49l-5.16,2.77c1-3.21,3.11-5.83-1.14-8.48l1.15-.63,4.37,2.13c3.27-1.87,6.1-4.13,9.33-5.16,5.09-1.64,11.4,2.24,12.43,7.2.14.66-1,1.71-1.73,2.4C1605.14,605.15,1599.11,605,1592.75,598.49Z" transform="translate(-190.89 -310.05)"/><path class="cls-4" d="M1587.75,635.91l4.69,2.46c1.89-1.46,3.72-3.39,5.94-4.52a10.94,10.94,0,0,1,15.36,5.64c.23.61-.76,1.91-1.46,2.63-6.74,6.83-13.4,6.81-19.43.16-1.85.92-3.65,1.85-5.46,2.77,1.46-3.18,2.95-5.66-.64-8.32Z" transform="translate(-190.89 -310.05)"/><path class="cls-4" d="M1402.6,663.43l-5.15,2.75c1.29-3.23,2.36-6-.11-9.26,1.72.89,3.43,1.78,5.31,2.74a12.54,12.54,0,0,1,11.28-5.84c3.9.13,8.38,3.16,9.46,6.62a3.48,3.48,0,0,1-1,2.6C1416,670.21,1409,670.28,1402.6,663.43Z" transform="translate(-190.89 -310.05)"/><path class="cls-4" d="M1456,771.93l-5.94,3.2c1.17-2.52,2.28-3.88,2.31-5.28s-1.05-2.62-2.06-4.82c2.34,1.13,4,1.93,5.22,2.55,2.51-1.63,4.81-3.68,7.5-4.74,5.56-2.2,12.54,1,14.11,6.16.18.63-.9,1.83-1.62,2.52C1468.29,778.45,1463,778.52,1456,771.93Z" transform="translate(-190.89 -310.05)"/><path class="cls-4" d="M1592.92,684.91l-4.85,2.37v-8.56l4.35,2.13c2.08-1.5,4-3.48,6.41-4.57a10.71,10.71,0,0,1,14.67,5.52c.29.72-.65,2.27-1.41,3.07C1605.87,691.54,1598.81,691.49,1592.92,684.91Z" transform="translate(-190.89 -310.05)"/><path class="cls-4" d="M1363.22,708.75c1.54-3.22,2.67-5.75-.79-8.39l.94-.7c1.65.85,3.29,1.68,4.21,2.14,3.32-1.83,6.3-4.13,9.67-5.17,4.93-1.53,11,2.07,12.06,6.68.18.78-.82,2-1.52,2.76-6.15,6.58-13.21,6.49-19.24-.11Z" transform="translate(-190.89 -310.05)"/><path class="cls-4" d="M1470.94,619.81l-5.27,3.06-.77-.65c1.68-2.53,3.66-5.06-.22-7.62l1-.76,4.43,2.3c2.73-1.81,5.37-4.26,8.48-5.46,5.15-2,11.38,1.25,13.1,6.24a3.31,3.31,0,0,1-.77,2.47C1485.36,626.67,1477.55,626.7,1470.94,619.81Z" transform="translate(-190.89 -310.05)"/><path class="cls-4" d="M1401.91,529.81c3-1.78,5.62-4,8.69-5.11,5.17-1.78,11.49,1.62,12.85,6.58.22.77-.9,2.12-1.69,2.94-6.13,6.42-12.93,6.3-19.06-.23-1.78.91-3.59,1.81-5.4,2.73,1.65-3.26,2.47-5.88-.76-8.57.28-.2.56-.39.83-.61Z" transform="translate(-190.89 -310.05)"/><path class="cls-4" d="M1505.16,706c-2,1-3.74,1.85-5.44,2.71,1.78-3.22,2.33-5.86.15-9.12l4.43,2.21c2.9-1.71,5.69-4,8.89-5.08,5.18-1.78,11.48,1.7,12.74,6.64.18.79-1,2.11-1.74,2.92C1517.91,712.64,1511.26,712.51,1505.16,706Z" transform="translate(-190.89 -310.05)"/><path class="cls-4" d="M1523.54,638c3.47-1.85,6.47-4.11,9.84-5.1,4.78-1.43,10.74,2.24,12,6.83.18.65-.87,1.79-1.57,2.48-6.83,6.67-12.82,6.73-19.27.32l-4.58,2.32v-8.64C1521.21,636.8,1522.79,637.6,1523.54,638Z" transform="translate(-190.89 -310.05)"/><path class="cls-4" d="M1573.43,706l-6.13,3.31c1.13-2.51,2.13-3.79,2.16-5.09s-.89-2.65-1.75-4.91l4.93,2.59c2.93-1.74,5.7-4,8.88-5.11a10.38,10.38,0,0,1,12.69,6.3c.24.71-.39,2-1,2.66C1586.89,712.72,1579.72,712.74,1573.43,706Z" transform="translate(-190.89 -310.05)"/><path class="cls-4" d="M1505,534l-5.09,2.77c-.19-.23-.37-.46-.56-.68.64-1.27,1.76-2.51,1.8-3.8s-1-2.65-2-5l5.29,2.56c2.66-1.69,5.19-3.88,8.12-5a10.48,10.48,0,0,1,13.32,6.34c.21.68-.72,1.95-1.42,2.66C1517.72,540.65,1511.55,540.61,1505,534Z" transform="translate(-190.89 -310.05)"/><path class="cls-4" d="M1592.92,555.35l-5.35,2.82c1.47-3.26,2.45-5.89-.82-8.53l.81-.63,4.06,2c4-1.94,7.43-4.29,11.15-5.14,4.5-1,9.75,2.64,10.84,6.85.2.81-1,2.14-1.76,3C1606.1,562.08,1598.58,561.88,1592.92,555.35Z" transform="translate(-190.89 -310.05)"/><path class="cls-4" d="M1422.18,555.35c-1.83,1-3.41,1.89-4.69,2.61v-8.72l4,2.07c2.8-1.75,5.33-3.94,8.28-5a10.25,10.25,0,0,1,13,6.29A3.28,3.28,0,0,1,1442,555C1436.56,562.18,1428.54,562.27,1422.18,555.35Z" transform="translate(-190.89 -310.05)"/><path class="cls-4" d="M1348.75,549l4.33,2.37c2.92-1.8,5.58-4.06,8.64-5.13a10.53,10.53,0,0,1,13,6.43,2.9,2.9,0,0,1-.75,2.33c-6.47,7.19-13.39,7.29-20.2.51l-5.13,2.7c1-3.22,3-5.86-1.13-8.49C1347.91,549.44,1348.33,549.19,1348.75,549Z" transform="translate(-190.89 -310.05)"/><path class="cls-4" d="M1524.55,728.34l-4.61,2.36v-8.59l3.83,1.83c3-1.75,5.64-4,8.72-5,5.11-1.75,11.47,1.74,12.84,6.65.18.65-.9,1.8-1.6,2.52C1537.3,734.82,1530.85,734.84,1524.55,728.34Z" transform="translate(-190.89 -310.05)"/><path class="cls-4" d="M1490.48,728.14c-2,1.06-3.73,1.93-5,2.63.15-3,.28-5.69.43-8.61l3.56,1.78c3.44-1.89,6.38-4.19,9.73-5.2,4.85-1.45,10.85,2.24,12,6.83.19.73-.84,1.95-1.55,2.71C1503.49,734.88,1496.17,734.77,1490.48,728.14Z" transform="translate(-190.89 -310.05)"/><path class="cls-4" d="M1456.16,728.45c-2,.9-3.6,1.64-5.21,2.4,1.74-3.19,2.32-5.84,0-9l5.16,2.41a27.53,27.53,0,0,1,2.41-2.57,11.56,11.56,0,0,1,18.52,3.64,2.56,2.56,0,0,1-.25,2.26C1470,735.07,1462.79,734.85,1456.16,728.45Z" transform="translate(-190.89 -310.05)"/><path class="cls-4" d="M1422,728.11l-4.7,2.64V722l4,2.15c2.79-1.76,5.39-4,8.41-5.14a10.37,10.37,0,0,1,13,6.35,3.05,3.05,0,0,1-.76,2.42C1436,735,1428.07,735,1422,728.11Z" transform="translate(-190.89 -310.05)"/><path class="cls-4" d="M1348.67,721.76,1353,724c3.27-1.88,6.07-4.17,9.29-5.21,4.94-1.6,11.2,2,12.41,6.75.2.77-1,2.06-1.78,2.89-6,6.39-12.9,6.28-19-.25-1.8.91-3.61,1.81-5.41,2.73C1350.28,727.69,1350.81,725.06,1348.67,721.76Z" transform="translate(-190.89 -310.05)"/><path class="cls-4" d="M1471,663.44l-4.91,2.56c.18-2.92.32-5.46.49-8.51l4.42,2.13c2.55-3.51,6.25-6,11.34-5.81,3.86.16,8.49,3.3,9.46,6.67a3.69,3.69,0,0,1-1.08,2.61C1484.32,670.23,1477.6,670.27,1471,663.44Z" transform="translate(-190.89 -310.05)"/><path class="cls-4" d="M1524.44,598.89l-4.5,2.2v-8.43l3.52,1.64c3.62-1.84,6.76-4.06,10.25-5,4.49-1.28,10.49,2.45,11.68,6.67.2.67-.8,1.88-1.51,2.58C1536.94,605.31,1531.23,605.34,1524.44,598.89Z" transform="translate(-190.89 -310.05)"/><path class="cls-4" d="M1490.64,555.18c-2.08,1.12-3.87,2.07-5.65,3.05,1.8-3.3,2.31-5.93.25-9.28l4.66,2.59c2.43-1.66,4.73-3.85,7.47-5a10.32,10.32,0,0,1,13.83,6c.28.77-.77,2.25-1.52,3.11C1503.84,562.2,1495.84,561.91,1490.64,555.18Z" transform="translate(-190.89 -310.05)"/><path class="cls-4" d="M1539.26,663.36c-1.63.94-3.21,1.84-4.56,2.63v-8.71l4.68,2.43a12.54,12.54,0,0,1,10.69-5.91c4.28,0,8.72,2.86,9.91,6.71.24.71-.42,1.94-1,2.63C1552.87,670.27,1545.83,670.26,1539.26,663.36Z" transform="translate(-190.89 -310.05)"/><path class="cls-4" d="M1387.86,555.39l-5.12,2.78c1.23-3.23,2.48-5.88-.84-8.52.26-.21.53-.43.8-.63l4.51,2.27c2.89-1.77,5.51-4,8.56-5.1a10.43,10.43,0,0,1,13,6.46,3,3,0,0,1-.83,2.34C1401.57,562.15,1394.2,562.2,1387.86,555.39Z" transform="translate(-190.89 -310.05)"/><path class="cls-4" d="M1573.37,663.42c-1.69.91-3.35,1.79-4.8,2.58.14-3,.26-5.56.4-8.58l3.68,1.86c3-1.76,5.8-4.12,9-5.12a10.18,10.18,0,0,1,12.38,6.26c.26.7-.45,1.85-.91,2.69C1588.9,670.74,1578.16,669.49,1573.37,663.42Z" transform="translate(-190.89 -310.05)"/><path class="cls-4" d="M1368.45,663.45l-4.62,2.45v-8.68c1.17.64,2.85,1.53,4.27,2.28,2-1.53,4-3.54,6.39-4.66a10.94,10.94,0,0,1,14.8,5.39,3.29,3.29,0,0,1-.78,2.72C1382.28,670.25,1375.42,670.32,1368.45,663.45Z" transform="translate(-190.89 -310.05)"/><path class="cls-4" d="M1572.69,744.68c3.57-1.66,7-3.94,10.74-4.82,4.24-1,9.78,2.66,11,6.49.21.68-.74,2-1.46,2.68-7.19,7-12.91,7-19.7.23l-4.77,2.73c-.2-.2-.42-.39-.62-.6.56-1.26,1.55-2.52,1.55-3.78s-.9-2.69-1.81-5.07l5.64,3C1573.09,745.25,1572.89,745,1572.69,744.68Z" transform="translate(-190.89 -310.05)"/><path class="cls-4" d="M1537.09,776.93c-7-.5-8.46-1.1-12.69-4.93-1.69.83-3.29,1.62-4.66,2.31.16-2.91.31-5.47.48-8.48l4.38,2a12.5,12.5,0,0,1,10.5-5.7c4.48,0,9.37,2.88,9.85,7.05.22,1.75-2.42,4-4.09,5.75-1,1-2.57,1.42-3.89,2.1Z" transform="translate(-190.89 -310.05)"/><path class="cls-4" d="M1490.29,771.83l-5.17,2.71c1-3.2,3.18-5.86-1.14-8.45.37-.24.74-.47,1.1-.72,1.67.84,3.35,1.67,5.32,2.67a12.65,12.65,0,0,1,10.54-5.92c4.31,0,9,2.94,10.21,6.77a3.1,3.1,0,0,1-.79,2.37C1504.21,778.54,1497.07,778.66,1490.29,771.83Z" transform="translate(-190.89 -310.05)"/><path class="cls-4" d="M1470.89,534l-5.08,2.73c1.44-3.25,2.36-5.89-.8-8.57.27-.19.55-.39.82-.6l4.21,2.24c3.36-1.88,6.31-4.21,9.65-5.25,4.8-1.48,10.11,1.7,11.85,6.48.25.7-.45,1.86-.91,2.71C1486.88,540.55,1476.88,540.78,1470.89,534Z" transform="translate(-190.89 -310.05)"/><path class="cls-4" d="M1422,771.7c-1.71.94-3.38,1.84-4.69,2.57v-8.73l4.68,2.6a12.32,12.32,0,0,1,10.29-6,10.3,10.3,0,0,1,10.26,6.66,3.51,3.51,0,0,1-.92,2.67C1435.67,778.63,1428.15,778.62,1422,771.7Z" transform="translate(-190.89 -310.05)"/><path class="cls-4" d="M1592.91,727.94l-5.41,2.74c1.72-3.25,2.36-5.89,0-9.17l4.78,2.43c2.34-1.61,4.57-3.72,7.19-4.82a10.63,10.63,0,0,1,14.25,6.39c.22.68-1.06,2-1.86,2.8C1605.52,734.65,1598.64,734.48,1592.91,727.94Z" transform="translate(-190.89 -310.05)"/><path class="cls-4" d="M1490.42,598.7l-4.93,2.56c.13-3,.24-5.59.39-8.54.93.46,2.54,1.26,3.54,1.74,3.28-1.8,6.25-4,9.56-5.06,5-1.53,10.74,1.83,12.13,6.58.22.73-.75,2-1.44,2.78C1503.54,605.36,1496.39,605.28,1490.42,598.7Z" transform="translate(-190.89 -310.05)"/><path class="cls-4" d="M1451.57,557.9v-8.63l4,2.06c2.7-1.71,5.23-3.93,8.16-5a9.78,9.78,0,0,1,12.77,5.94,3.66,3.66,0,0,1-.53,2.86c-4.9,7-13,7.1-19.82.35C1454.46,556.38,1452.77,557.26,1451.57,557.9Z" transform="translate(-190.89 -310.05)"/><path class="cls-4" d="M1436.72,749.55l-5.15,2.78c.88-3.22,3.08-5.88-1.29-8.54l1.29-.61,5.06,2.63c-.19-.29-.4-.56-.59-.84,3.43-1.67,6.69-4,10.32-4.85,4.64-1.12,9.47,2.14,11,6.6.23.68-.61,2-1.28,2.74C1449.72,756.33,1442.74,756.28,1436.72,749.55Z" transform="translate(-190.89 -310.05)"/><path class="cls-4" d="M1353.85,681.12a12.64,12.64,0,0,1,10.53-5.87c4.32-.07,9,2.85,10.22,6.67.25.79-.78,2.21-1.55,3-6.26,6.67-13,6.6-19.23-.1l-4.73,2.57v-8.74Z" transform="translate(-190.89 -310.05)"/><path class="cls-4" d="M1524.45,555.32l-4.89,2.76c.15-3,.28-5.69.43-8.68l3.28,1.69c3.94-1.93,7.32-4.33,11-5.19,4.61-1.07,9.79,2.65,10.87,6.87.17.65-.44,1.68-1,2.28C1538,562.12,1530.41,562.15,1524.45,555.32Z" transform="translate(-190.89 -310.05)"/><path class="cls-4" d="M1539.37,533.9c-1.74,1-3.45,1.9-4.95,2.75.19-3,.35-5.67.54-8.69l3.85,2c2.48-1.68,4.73-3.78,7.4-4.88a10.41,10.41,0,0,1,13.83,6,3.17,3.17,0,0,1-.62,2.47C1553.64,540.75,1545.56,540.8,1539.37,533.9Z" transform="translate(-190.89 -310.05)"/><path class="cls-4" d="M1432.37,614.09l3.25,1.75c3.67-1.91,6.77-4.17,10.23-5.19,4.69-1.35,10.5,2.38,11.65,6.81a3,3,0,0,1-.56,2.2c-5.43,7.11-14.28,7.21-20.17.36l-5,2.64C1432,619.69,1432.16,617.18,1432.37,614.09Z" transform="translate(-190.89 -310.05)"/><path class="cls-4" d="M1456,598.93l-5.89,2.93c1.16-2.42,2.23-3.69,2.25-5s-1-2.63-1.9-4.82l5.64,2.76c3.27-4.24,7.75-7.2,13.31-5.24,3,1.06,5.27,4.14,7.72,6.45a6,6,0,0,1-1.56,2.48C1468.19,605.28,1463.07,605.32,1456,598.93Z" transform="translate(-190.89 -310.05)"/><path class="cls-4" d="M1534.34,622.56c.14-2.94.27-5.48.42-8.43,1,.52,2.6,1.4,4.44,2.37a12.28,12.28,0,0,1,11.06-6.31c4.36,0,8.88,3.24,9.78,7.26.17.74-.8,1.93-1.5,2.66-6.44,6.45-13.5,6.22-19.13-.34Z" transform="translate(-190.89 -310.05)"/><path class="cls-4" d="M1388,598.7l-4.74,2.45v-8.57L1388,595c3.07-4.38,7.49-7.2,12.88-5.47,3,1,5.34,4.13,7.84,6.46.25.23-.29,1.72-.81,2.33C1401.88,605.36,1394.11,605.46,1388,598.7Z" transform="translate(-190.89 -310.05)"/><path class="cls-4" d="M1422.19,681.18a12.41,12.41,0,0,1,11.63-5.9c3.8.23,8.09,3.32,9.07,6.72a3.31,3.31,0,0,1-.79,2.45c-5.7,7.16-13.42,7.26-19.95.35l-4.66,2.62v-8.74Z" transform="translate(-190.89 -310.05)"/><path class="cls-4" d="M1524.45,684.75c-1.85,1.06-3.43,2-6.21,3.53,1.66-3.81,4.22-6.55-.11-9l1.09-.74,4.34,2.19c3.2-1.8,6.11-4.16,9.42-5.12,5.13-1.46,10,1.34,12,6.22a3.34,3.34,0,0,1-.73,2.68C1538.33,691.65,1530.53,691.71,1524.45,684.75Z" transform="translate(-190.89 -310.05)"/><path class="cls-4" d="M1402.72,745.54c2.86-4.19,6.88-6.13,12.17-5.81,4.48.29,6.14,3.95,8.52,6.73.27.3-.64,2-1.32,2.69-6.5,6.8-13,6.81-19.52.2l-4.91,2.55c.2-2.95.38-5.55.57-8.53C1399,743.74,1400.65,744.55,1402.72,745.54Z" transform="translate(-190.89 -310.05)"/><path class="cls-4" d="M1436.82,705.94l-5.15,2.69c.27-3,.49-5.45.76-8.46l3.39,1.59c3.34-1.85,6.28-4.14,9.61-5.16,4.91-1.51,10.74,2,12,6.77.21.81-.9,2.18-1.68,3C1449.94,712.71,1442.41,712.46,1436.82,705.94Z" transform="translate(-190.89 -310.05)"/><path class="cls-4" d="M1505.05,663.43l-5,2.66c.21-2.94.39-5.56.6-8.58l4.42,2.17a12.43,12.43,0,0,1,10.85-5.87c4,0,8.74,3.05,9.92,6.59a3.5,3.5,0,0,1-1,2.62C1518.42,670.19,1511.57,670.27,1505.05,663.43Z" transform="translate(-190.89 -310.05)"/><path class="cls-4" d="M1505.08,620.08l-4.92,2.66c.18-3,.33-5.61.49-8.54l4.3,2c2.55-3.58,6.19-6.2,11.31-6,4.14.13,8.92,3.6,9.67,7.32.15.72-.83,1.88-1.55,2.52C1517.12,626.42,1511.73,626.36,1505.08,620.08Z" transform="translate(-190.89 -310.05)"/><path class="cls-4" d="M1470.94,749.14c-1.9,1.23-3.52,2.25-5,3.23.15-3.09.29-5.73.44-8.83l3.42,1.83c3.52-2,6.55-4.39,10-5.37a10.17,10.17,0,0,1,12,6.2,3.41,3.41,0,0,1-.84,2.71C1484.59,756.11,1477,756.1,1470.94,749.14Z" transform="translate(-190.89 -310.05)"/><path class="cls-4" d="M1470.87,576.24l-4.77,2.88v-8.66l3.73,1.91c3.67-1.86,7-4.29,10.74-5.23,4.6-1.18,9.61,2.09,11.2,6.29a3.22,3.22,0,0,1-.51,2.58C1485.68,583.32,1476.9,583.31,1470.87,576.24Z" transform="translate(-190.89 -310.05)"/><path class="cls-4" d="M1416.83,506.41c1.68.88,3.36,1.78,5.19,2.76a12.34,12.34,0,0,1,11.88-5.91c3.65.29,8,3.63,8.83,6.87a3.12,3.12,0,0,1-.89,2.31c-6.2,7.06-13.52,7.13-19.83.38l-5.07,2.67c1-3.2,2.74-5.87-1.29-8.42Z" transform="translate(-190.89 -310.05)"/><path class="cls-4" d="M1388,512.78l-4.71,2.52v-8.59l4.59,2.28-.58-.86c3.57-1.65,7-3.92,10.75-4.76,4.38-1,9.35,2.48,10.64,6.57.22.74-.68,2.08-1.38,2.84C1401.24,519.44,1394,519.42,1388,512.78Z" transform="translate(-190.89 -310.05)"/><path class="cls-4" d="M1490.56,684.56l-5.27,3.08c1.2-3.29,2.32-6-.25-9.22,1.76.94,3.54,1.86,5.49,2.89a12.21,12.21,0,0,1,11.7-6c3.86.23,8,3.25,9,6.76.21.79-.7,2.07-1.38,2.86C1503.87,691.78,1495.94,691.52,1490.56,684.56Z" transform="translate(-190.89 -310.05)"/><path class="cls-4" d="M1397.39,699.63l4.52,2.23c2.87-1.76,5.41-3.91,8.35-5a10.34,10.34,0,0,1,13.06,6.11,3.34,3.34,0,0,1-.74,2.47c-5.28,7.22-12.94,7.36-20.06.63l-5.19,2.65c1.19-3.24,3-5.85-1.07-8.53Z" transform="translate(-190.89 -310.05)"/><path class="cls-4" d="M1573.42,576.48l-4.68,2.5V570.4l4.25,2.19c2.14-1.55,4.23-3.63,6.76-4.77a10.66,10.66,0,0,1,14.36,5.65,3.21,3.21,0,0,1-.79,2.67C1587,583.18,1579.75,583.25,1573.42,576.48Z" transform="translate(-190.89 -310.05)"/><path class="cls-4" d="M1592.85,771.52l-5.09,2.65-.58-.63c.62-1.24,1.72-2.49,1.72-3.73s-1-2.7-2-5l5.73,2.77a35.61,35.61,0,0,1,4.76-4,11,11,0,0,1,16.29,5.34,2.64,2.64,0,0,1-.41,2.19C1607.42,778.12,1599.06,778.26,1592.85,771.52Z" transform="translate(-190.89 -310.05)"/><path class="cls-4" d="M1436.76,576.52c-1.87,1-3.47,1.79-4.72,2.44v-8.6l3.51,1.83c3.86-1.89,7.12-4.21,10.74-5.07,4.69-1.12,9.56,2.11,11.1,6.48.23.68-.4,1.94-1,2.61C1450.24,583.16,1443,583.24,1436.76,576.52Z" transform="translate(-190.89 -310.05)"/><path class="cls-4" d="M1402.72,572.72a12.43,12.43,0,0,1,10.88-5.82c4,0,8.7,3.1,9.84,6.67a3.34,3.34,0,0,1-1,2.59c-6.59,7-13.39,7.08-19.86.45-1.76.85-3.45,1.7-4.82,2.38.13-2.92.25-5.44.37-8.39Z" transform="translate(-190.89 -310.05)"/><path class="cls-4" d="M1490.44,512.85l-4.77,2.35v-8.53l4.73,2.46c2.71-4.12,6.63-6.06,11.75-5.92,4.73.15,6.68,3.74,9,6.87.28.38-.55,1.83-1.16,2.51C1503.7,519.48,1496.52,519.51,1490.44,512.85Z" transform="translate(-190.89 -310.05)"/><path class="cls-4" d="M1558,680.26c3.42-1.65,6.7-4,10.31-4.8,4.53-1.07,9.63,2.14,11.14,6.28.28.77-.71,2.3-1.48,3.14-6.08,6.7-13.08,6.66-19.25,0l-5,2.72-.6-.58c.57-1.23,1.61-2.47,1.62-3.71s-.89-2.72-1.74-5l5.65,2.81C1558.43,680.8,1558.22,680.54,1558,680.26Z" transform="translate(-190.89 -310.05)"/><path class="cls-4" d="M1558.75,595c3.37-4.56,7.91-7.28,13.45-5.34,2.86,1,5,4,7.36,6.34.26.24-.41,1.84-1,2.46-6.8,6.94-13.18,7-19.9.36-1.7.87-3.39,1.75-4.79,2.48.14-3,.28-5.49.43-8.46Z" transform="translate(-190.89 -310.05)"/><path class="cls-4" d="M1368.5,576.44l-5,2.79-.63-.64c.59-1.24,1.65-2.48,1.66-3.73s-.94-2.74-1.85-5.07l5.07,2.66c2.89-1.77,5.54-4.09,8.63-5.1a10.5,10.5,0,0,1,12.86,6.06,3.11,3.11,0,0,1-.43,2.58C1383.4,583.16,1374.89,583.33,1368.5,576.44Z" transform="translate(-190.89 -310.05)"/><path class="cls-4" d="M1592.86,512.78l-5.08,2.69c1-3.18,2.66-5.89-1.28-8.34l1-.69,5.4,2.61a12.37,12.37,0,0,1,10.24-5.85c4.44-.15,9.37,2.93,10.55,6.9.2.71-.82,2-1.52,2.72C1605.79,519.42,1598.88,519.39,1592.86,512.78Z" transform="translate(-190.89 -310.05)"/><path class="cls-4" d="M1499.07,578.3c2.87-2.52,2.74-5,.71-8.22l4.31,2.16c3.44-1.82,6.41-4.12,9.76-5,5-1.36,9.93,1.46,12,6.11a3.14,3.14,0,0,1-.65,2.73c-6.41,7.13-13.58,7.24-20.2.54l-5.17,2.61Z" transform="translate(-190.89 -310.05)"/><path class="cls-4" d="M1347.86,591.83l4.85,2.59c3.69-1.89,6.82-4.14,10.31-5.13,4.62-1.32,10.59,2.37,11.62,6.69.21.83-.89,2.17-1.69,3-6.12,6.36-13,6.24-19.06-.25l-5.11,2.64c-.19-.19-.38-.38-.57-.6.61-1.23,1.71-2.47,1.71-3.71S1348.91,594.33,1347.86,591.83Z" transform="translate(-190.89 -310.05)"/><path class="cls-4" d="M1524.51,513l-4.74,2.37c.14-2.91.28-5.45.43-8.43.93.4,2.6,1.17,4.4,2q4.15-5.94,11.85-5.67c4.74.18,6.4,4.06,8.91,6.93.24.28-.41,1.65-.95,2.22C1537.72,519.44,1531.08,519.58,1524.51,513Z" transform="translate(-190.89 -310.05)"/><path class="cls-4" d="M1451.14,678.4l5.15,2.82a12.33,12.33,0,0,1,11.28-6c4.08.14,8,2.85,9.14,6.55a3.78,3.78,0,0,1-.79,2.81c-5.2,6.93-13.35,7-19.63.2-1.67.92-3.36,1.84-6.17,3.35,1.59-3.69,4.19-6.41-.14-8.87Z" transform="translate(-190.89 -310.05)"/><path class="cls-4" d="M1368.51,749.29c-1.86,1-3.43,1.87-4.68,2.55v-8.68l3.35,1.75c4.12-1.87,7.67-4.18,11.55-5,4.31-1,9.43,2.59,10.64,6.47a3.47,3.47,0,0,1-1,2.62C1382,756,1375,756.09,1368.51,749.29Z" transform="translate(-190.89 -310.05)"/><path class="cls-4" d="M1456.29,512.88l-4.68,2.32v-8.45l4.51,2.23a30.81,30.81,0,0,1,4.25-3.82c6-3.9,13.7-1.85,16.7,4.41a3.19,3.19,0,0,1-.26,2.66c-4.8,6.84-13.86,7.38-19.83,1.28C1456.7,513.24,1456.4,513,1456.29,512.88Z" transform="translate(-190.89 -310.05)"/><path class="cls-4" d="M1349.14,515.26v-8.58l3.47,1.77c3.87-1.83,7.29-4.15,11.05-5,4.46-1.05,9.71,2.47,11,6.52a3.26,3.26,0,0,1-1,2.54c-6.84,7-13.36,7.06-19.91.38Z" transform="translate(-190.89 -310.05)"/><path class="cls-4" d="M1534.48,752.1v-8.74l4.78,2.62a12,12,0,0,1,12.13-6.23c3.79.35,8,3.67,8.7,7.14.16.77-.87,1.94-1.59,2.7-6.11,6.49-13.62,6.22-19.12-.52C1537.57,750.19,1535.78,751.31,1534.48,752.1Z" transform="translate(-190.89 -310.05)"/><path class="cls-4" d="M1558.65,512.88l-4.59,2.35v-8.47l3.93,1.93c2.89-1.74,5.54-4.06,8.63-5a10.55,10.55,0,0,1,12.88,5.95c.32.71-.33,2.2-1,2.89C1571.8,519.5,1565.4,519.54,1558.65,512.88Z" transform="translate(-190.89 -310.05)"/><path class="cls-4" d="M1606.81,750l-4.2,2.37c.94-3.21,2.7-5.86-.91-8.42l.75-.71c1.65.77,3.3,1.56,4.37,2l11.36-7v16.63Z" transform="translate(-190.89 -310.05)"/><path class="cls-4" d="M1618.32,653.91v15.33l-10.9-5c.14-.3.29-.59.43-.89l-5.37,2.79c1.18-3.25,3-5.9-1.11-8.46l1-.73c1.77.91,3.53,1.81,5.4,2.75A11.93,11.93,0,0,1,1618.32,653.91Z" transform="translate(-190.89 -310.05)"/><path class="cls-4" d="M1618.08,711.93l-11.21-5.5c-.87.49-2.58,1.41-4.29,2.35.87-3.17,3.08-5.79-1.12-8.33l1-.73,4.58,2.14c3.33-2.09,6.69-4.17,11-6.87Z" transform="translate(-190.89 -310.05)"/><path class="cls-4" d="M1603.36,614.11l3.51,1.7,11.29-7v16.83c-4-1.87-7.46-3.53-11.11-5.24-1.09.59-2.77,1.54-4.29,2.37C1603,619.77,1603.15,617.18,1603.36,614.11Z" transform="translate(-190.89 -310.05)"/><path class="cls-4" d="M1618.31,523v15.66a11.67,11.67,0,0,1-10.51-4.79l-5.43,2.86c1.77-3.27,2.45-5.89.11-9.2l4.42,2.21Z" transform="translate(-190.89 -310.05)"/><path class="cls-4" d="M1606.74,577.08l-3.7,1.83V570.4l4.74,2.42a12.15,12.15,0,0,1,10.47-5.83v15.34C1614.12,580.43,1610.71,578.89,1606.74,577.08Z" transform="translate(-190.89 -310.05)"/></g></g><path class="cls-2" d="M307.18,494.85a144.67,144.67,0,0,1,45.2,6.94,90.2,90.2,0,0,1,36.94,23.08q15.75,16.13,24.95,42T423.46,631q0,37.9-9.19,64t-24.95,42a90.94,90.94,0,0,1-36.94,22.89,144.38,144.38,0,0,1-45.2,6.94,148,148,0,0,1-45.2-6.75,89.44,89.44,0,0,1-37-22.7q-15.76-15.93-24.95-42T190.89,631q0-38.62,9.19-64.7t24.95-42a89.34,89.34,0,0,1,37-22.7A148.33,148.33,0,0,1,307.18,494.85Zm-3,60.4a49.94,49.94,0,0,0-18.37,3.37,34.26,34.26,0,0,0-15,12q-6.37,8.64-10.12,23.26t-3.76,36.76q0,22.51,3.76,36.94t10.12,23.07a34.05,34.05,0,0,0,15,12,51.64,51.64,0,0,0,36.75,0q8.63-3.36,15.19-12t10.32-23.07q3.75-14.42,3.76-36.94,0-22.14-3.76-36.76t-10.32-23.26a35.45,35.45,0,0,0-15.19-12A50,50,0,0,0,304.17,555.25Z" transform="translate(-190.89 -310.05)"/><path class="cls-2" d="M1203.25,494.85a144.62,144.62,0,0,1,45.2,6.94,90.29,90.29,0,0,1,37,23.08q15.75,16.13,24.94,42t9.19,64.14q0,37.9-9.19,64t-24.94,42a91,91,0,0,1-37,22.89,144.33,144.33,0,0,1-45.2,6.94,148.07,148.07,0,0,1-45.2-6.75,89.51,89.51,0,0,1-37-22.7q-15.75-15.93-24.95-42T1087,631q0-38.62,9.18-64.7t24.95-42a89.4,89.4,0,0,1,37-22.7A148.38,148.38,0,0,1,1203.25,494.85Zm-3,60.4a50,50,0,0,0-18.38,3.37,34.32,34.32,0,0,0-15,12q-6.37,8.64-10.12,23.26T1153,630.64q0,22.51,3.76,36.94t10.12,23.07q6.39,8.63,15,12a51.64,51.64,0,0,0,36.75,0q8.63-3.36,15.2-12t10.31-23.07q3.75-14.42,3.76-36.94,0-22.14-3.76-36.76t-10.31-23.26a35.53,35.53,0,0,0-15.2-12A49.94,49.94,0,0,0,1200.25,555.25Z" transform="translate(-190.89 -310.05)"/><path class="cls-5" d="M1665.45,423.42a16,16,0,0,1-16-16V345.51H1414.05a16,16,0,1,1,0-32.06h251.4a16,16,0,0,1,16,16V407.4A16,16,0,0,1,1665.45,423.42Z" transform="translate(-190.89 -310.05)"/><path class="cls-5" d="M305.32,422.52a16,16,0,0,1-16-16V328.58a16,16,0,0,1,16-16H564a16,16,0,0,1,0,32.06H321.35V406.5A16,16,0,0,1,305.32,422.52Z" transform="translate(-190.89 -310.05)"/><path class="cls-5" d="M1664.79,980.37H1414a16,16,0,0,1,0-32.06h234.79V857.4a16,16,0,1,1,32.06,0V964.34A16,16,0,0,1,1664.79,980.37Z" transform="translate(-190.89 -310.05)"/><path class="cls-5" d="M564.09,980.37H305.26a16,16,0,0,1-16-16V857.4a16,16,0,1,1,32,0v90.91H564.09a16,16,0,0,1,0,32.06Z" transform="translate(-190.89 -310.05)"/></svg>