<svg width="319.000000" height="159.000000" viewBox="0 0 319 159" fill="none" xmlns="http://www.w3.org/2000/svg" xmlns:xlink="http://www.w3.org/1999/xlink">
	<desc>
			Created with Pixso.
	</desc>
	<defs/>
	<path id="Arrow 1" d="M144.63 155.45Q148.13 156.32 151.6 156.94L152.12 153.99Q148.75 153.39 145.36 152.54Q142.22 151.75 139.13 150.75L138.2 153.6Q141.39 154.64 144.63 155.45ZM172.15 158.31Q175.69 158.15 179.22 157.72L178.85 154.74Q175.44 155.16 172.02 155.31Q168.74 155.46 165.45 155.37L165.36 158.36Q168.76 158.46 172.15 158.31ZM114.25 141.88Q119.76 145.62 125.81 148.58L127.13 145.88Q121.27 143.02 115.94 139.4L114.25 141.88ZM192.83 155Q199.34 153.21 205.92 150.44L204.76 147.68Q198.36 150.37 192.03 152.11L192.83 155ZM94.7 123.73Q98.75 128.94 103.77 133.57L105.81 131.37Q100.97 126.9 97.07 121.89L94.7 123.73ZM218.37 144.4Q224.14 141.22 230.25 137.2L228.59 134.69Q222.59 138.65 216.93 141.77L218.37 144.4ZM82.54 99.96Q84.3 106.35 87.46 112.45L90.12 111.07Q87.11 105.25 85.43 99.16L82.54 99.96ZM246.91 125.18Q249.69 123.05 252.85 120.47L250.95 118.14Q247.82 120.7 245.08 122.81Q242.26 124.97 239.76 126.83L241.55 129.24Q244.07 127.37 246.91 125.18ZM80.36 84.52Q80.37 85.61 80.41 86.69L83.41 86.56Q83.37 85.55 83.36 84.55Q83.34 82.32 83.49 80.1Q83.75 76.35 83.54 72.78L80.54 72.97Q80.75 76.34 80.5 79.89Q80.34 82.21 80.36 84.52ZM264.87 110.26Q270.42 105.39 276.71 99.65L274.68 97.43Q268.42 103.15 262.89 108L264.87 110.26ZM77.31 58.75Q77.54 59.29 77.75 59.84L80.55 58.77Q80.26 58.01 79.94 57.25Q77.46 51.43 73.33 46.32L71 48.2Q74.98 53.13 77.31 58.75ZM8.88 20.11L21.16 33.97C22.27 35.22 22.16 37.09 20.9 38.2C19.65 39.31 17.78 39.2 16.67 37.95L0.75 19.98C-0.36 18.73 -0.25 16.86 1.01 15.75L18.97 -0.17C20.22 -1.28 22.09 -1.17 23.2 0.09C24.31 1.34 24.2 3.21 22.95 4.32L8.59 17.05Q9.3 17.14 10.06 17.24L9.66 20.21Q9.26 20.16 8.88 20.11ZM288.16 89.03L299.43 78.31L297.36 76.13L286.09 86.85L288.16 89.03ZM49.43 31.73Q55.95 34.96 61.16 38.84L62.95 36.44Q57.53 32.39 50.76 29.04L49.43 31.73ZM23.31 22.7Q30.23 24.29 36.51 26.41L37.47 23.57Q31.05 21.4 23.98 19.77L23.31 22.7ZM313.92 59.95L312.87 58.9L312.87 58.87C314.06 57.69 315.93 57.69 317.12 58.87C318.31 60.06 318.31 61.93 317.12 63.12L317.09 63.12L316.04 62.07L310.6 67.45L308.49 65.32L313.92 59.95Z" fill="#139FDA" fill-opacity="1.000000" fill-rule="evenodd"/>
</svg>
