<svg width="40.000000" height="30.000000" viewBox="0 0 43 33" fill="none" xmlns="http://www.w3.org/2000/svg" xmlns:xlink="http://www.w3.org/1999/xlink">
	<desc>
	</desc>
	<defs/>
	<path id="Vector" d="M1.02 2.47L1 2.5C0.16 2.5 -0.5 1.84 -0.5 1C-0.5 0.15 0.16 -0.5 1 -0.5L1.02 -0.48L1.02 2.47ZM40.98 -0.48L41 -0.5C41.84 -0.5 42.5 0.15 42.5 1C42.5 1.84 41.84 2.5 41 2.5L40.98 2.47L40.98 -0.48ZM1.02 12.98L1 13C0.16 13 -0.5 12.34 -0.5 11.5C-0.5 10.66 0.16 10 1 10L1.02 10.02L1.02 12.98ZM40.98 10.02L41 10C41.84 10 42.5 10.66 42.5 11.5C42.5 12.34 41.84 13 41 13L40.98 12.98L40.98 10.02ZM1.02 22.98L1 23C0.16 23 -0.5 22.34 -0.5 21.5C-0.5 20.66 0.16 20 1 20L1.02 20.02L1.02 22.98ZM40.98 20.02L41 20C41.84 20 42.5 20.66 42.5 21.5C42.5 22.34 41.84 23 41 23L40.98 22.98L40.98 20.02ZM1.02 32.98L1 33C0.16 33 -0.5 32.34 -0.5 31.5C-0.5 30.66 0.16 30 1 30L1.02 30.02L1.02 32.98ZM40.98 30.02L41 30C41.84 30 42.5 30.66 42.5 31.5C42.5 32.34 41.84 33 41 33L40.98 32.98L40.98 30.02Z" fill="#D9D9D9" fill-opacity="1.000000" fill-rule="nonzero"/>
	<path id="Vector" d="M1 1L41 1M1 11.5L41 11.5M1 21.5L41 21.5M1 31.5L41 31.5" stroke="#039BE5" stroke-opacity="1.000000" stroke-width="3.000000"/>
</svg>
