<svg width="100" height="180" viewBox="0 0 119 200" fill="none" xmlns="http://www.w3.org/2000/svg" xmlns:xlink="http://www.w3.org/1999/xlink">
	<desc>
			Created with Pixso.
	</desc>
	<defs>
		<filter id="filter_192_155_dd" x="-0.880005" y="-0.600006" width="119" height="200"
		filterUnits="userSpaceOnUse"
		color-interpolation-filters="sRGB">
			<feFlood flood-opacity="0" result="BackgroundImageFix"/>
			<!-- <feGaussianBlur in="BackgroundImage" stdDeviation="5"/> -->
			<feComposite in2="SourceAlpha" operator="in" result="effect_backgroundBlur_1"/>
			<feColorMatrix in="SourceAlpha" type="matrix" values="0 0 0 0 0 0 0 0 0 0 0 0 0 0 0 0 0 0 127 0" result="hardAlpha"/>
			<feOffset dx="5" dy="5"/>
			<feGaussianBlur stdDeviation="3.33333"/>
			<feComposite in2="hardAlpha" operator="out" k2="-1" k3="1"/>
			<feColorMatrix type="matrix" values="0 0 0 0 0.25098 0 0 0 0 0.58824 0 0 0 0 0.99608 0 0 0 1 0"/>
			<feBlend mode="normal" in2="effect_backgroundBlur_1" result="effect_dropShadow_2"/>
			<feBlend mode="normal" in="SourceGraphic" in2="effect_dropShadow_2" result="shape"/>
		</filter>
	</defs>
	<g filter="url(#filter_192_155_dd)">
		<path id="t" d="M89.43 152.24C93.12 152.24 97.96 151.67 103.96 150.56L103.96 181.52C100.12 182.4 95.92 183.12 91.36 183.68C86.8 184.24 82.43 184.52 78.28 184.52C43.96 184.52 26.8 168.04 26.8 135.08L26.8 82.28L4.12 82.28L4.12 50.72L26.8 50.72L34 4.39L66.87 4.39L66.87 50.72L103.24 50.72L103.24 82.28L66.87 82.28L66.87 127.88C66.87 133.96 67.64 138.8 69.16 142.39C70.76 145.92 73.19 148.44 76.48 149.96C79.76 151.48 84.08 152.24 89.43 152.24Z" fill="#FFFFFF" fill-opacity="1.000000"/>
	</g>
</svg>
